  0
SECTION
  2
HEADER
  9
$ACADVER
  1
AC1009
  0
ENDSEC
  0
SECTION
  2
ENTITIES
  0
POLYLINE
  5
90
  8
Layer_0
  62
1
  66
1
  10
0
  20
0
  30
0
  0
VERTEX
  5
90
  8
Layer_0
  10
167
  20
68.5
  0
VERTEX
  5
91
  8
Layer_0
  10
3
  20
68.5
  0
VERTEX
  5
92
  8
Layer_0
  10
3
  20
1.5
  0
VERTEX
  5
93
  8
Layer_0
  10
167
  20
1.5
  0
VERTEX
  5
94
  8
Layer_0
  10
167
  20
68.5
  0
SEQEND
  0
POLYLINE
  5
96
  8
Layer_0
  62
1
  66
1
  10
0
  20
0
  30
0
  0
VERTEX
  5
96
  8
Layer_0
  10
22.886999
  20
60.203598
  0
VERTEX
  5
97
  8
Layer_0
  10
22.774401
  20
60.214203
  0
VERTEX
  5
98
  8
Layer_0
  10
22.662701
  20
60.231903
  0
VERTEX
  5
99
  8
Layer_0
  10
22.552401
  20
60.2565
  0
VERTEX
  5
9a
  8
Layer_0
  10
22.4438
  20
60.288101
  0
VERTEX
  5
9b
  8
Layer_0
  10
22.3374
  20
60.326401
  0
VERTEX
  5
9c
  8
Layer_0
  10
22.233601
  20
60.3713
  0
VERTEX
  5
9d
  8
Layer_0
  10
22.132799
  20
60.4226
  0
VERTEX
  5
9e
  8
Layer_0
  10
22.0355
  20
60.480202
  0
VERTEX
  5
9f
  8
Layer_0
  10
21.941999
  20
60.5438
  0
VERTEX
  5
a0
  8
Layer_0
  10
21.8526
  20
60.613098
  0
VERTEX
  5
a1
  8
Layer_0
  10
21.767799
  20
60.687897
  0
VERTEX
  5
a2
  8
Layer_0
  10
21.687901
  20
60.767799
  0
VERTEX
  5
a3
  8
Layer_0
  10
21.6131
  20
60.8526
  0
VERTEX
  5
a4
  8
Layer_0
  10
21.5438
  20
60.942001
  0
VERTEX
  5
a5
  8
Layer_0
  10
21.4802
  20
61.0355
  0
VERTEX
  5
a6
  8
Layer_0
  10
21.4226
  20
61.132797
  0
VERTEX
  5
a7
  8
Layer_0
  10
21.3713
  20
61.233597
  0
VERTEX
  5
a8
  8
Layer_0
  10
21.326401
  20
61.337402
  0
VERTEX
  5
a9
  8
Layer_0
  10
21.288099
  20
61.443802
  0
VERTEX
  5
aa
  8
Layer_0
  10
21.2565
  20
61.552399
  0
VERTEX
  5
ab
  8
Layer_0
  10
21.231899
  20
61.662697
  0
VERTEX
  5
ac
  8
Layer_0
  10
21.214199
  20
61.774399
  0
VERTEX
  5
ad
  8
Layer_0
  10
21.2036
  20
61.887001
  0
VERTEX
  5
ae
  8
Layer_0
  10
21.200001
  20
62
  0
VERTEX
  5
af
  8
Layer_0
  10
21.2036
  20
62.112999
  0
VERTEX
  5
b0
  8
Layer_0
  10
21.214199
  20
62.225601
  0
VERTEX
  5
b1
  8
Layer_0
  10
21.231899
  20
62.337303
  0
VERTEX
  5
b2
  8
Layer_0
  10
21.2565
  20
62.447601
  0
VERTEX
  5
b3
  8
Layer_0
  10
21.288099
  20
62.556198
  0
VERTEX
  5
b4
  8
Layer_0
  10
21.326401
  20
62.662598
  0
VERTEX
  5
b5
  8
Layer_0
  10
21.3713
  20
62.766403
  0
VERTEX
  5
b6
  8
Layer_0
  10
21.4226
  20
62.867203
  0
VERTEX
  5
b7
  8
Layer_0
  10
21.4802
  20
62.964508
  0
VERTEX
  5
b8
  8
Layer_0
  10
21.5438
  20
63.057999
  0
VERTEX
  5
b9
  8
Layer_0
  10
21.6131
  20
63.1474
  0
VERTEX
  5
ba
  8
Layer_0
  10
21.687901
  20
63.232208
  0
VERTEX
  5
bb
  8
Layer_0
  10
21.767799
  20
63.312103
  0
VERTEX
  5
bc
  8
Layer_0
  10
21.8526
  20
63.386902
  0
VERTEX
  5
bd
  8
Layer_0
  10
21.941999
  20
63.456207
  0
VERTEX
  5
be
  8
Layer_0
  10
22.0355
  20
63.519806
  0
VERTEX
  5
bf
  8
Layer_0
  10
22.132799
  20
63.577301
  0
VERTEX
  5
c0
  8
Layer_0
  10
22.233601
  20
63.628693
  0
VERTEX
  5
c1
  8
Layer_0
  10
22.3374
  20
63.673599
  0
VERTEX
  5
c2
  8
Layer_0
  10
22.4438
  20
63.711899
  0
VERTEX
  5
c3
  8
Layer_0
  10
22.552401
  20
63.743408
  0
VERTEX
  5
c4
  8
Layer_0
  10
22.662701
  20
63.768097
  0
VERTEX
  5
c5
  8
Layer_0
  10
22.774401
  20
63.785797
  0
VERTEX
  5
c6
  8
Layer_0
  10
22.886999
  20
63.796402
  0
VERTEX
  5
c7
  8
Layer_0
  10
23
  20
63.800003
  0
VERTEX
  5
c8
  8
Layer_0
  10
23.113001
  20
63.796402
  0
VERTEX
  5
c9
  8
Layer_0
  10
23.225599
  20
63.785797
  0
VERTEX
  5
ca
  8
Layer_0
  10
23.337299
  20
63.768097
  0
VERTEX
  5
cb
  8
Layer_0
  10
23.447599
  20
63.743408
  0
VERTEX
  5
cc
  8
Layer_0
  10
23.5562
  20
63.711899
  0
VERTEX
  5
cd
  8
Layer_0
  10
23.6626
  20
63.673599
  0
VERTEX
  5
ce
  8
Layer_0
  10
23.766399
  20
63.628693
  0
VERTEX
  5
cf
  8
Layer_0
  10
23.867201
  20
63.577301
  0
VERTEX
  5
d0
  8
Layer_0
  10
23.9645
  20
63.519806
  0
VERTEX
  5
d1
  8
Layer_0
  10
24.058001
  20
63.456207
  0
VERTEX
  5
d2
  8
Layer_0
  10
24.1474
  20
63.386902
  0
VERTEX
  5
d3
  8
Layer_0
  10
24.232201
  20
63.312103
  0
VERTEX
  5
d4
  8
Layer_0
  10
24.312099
  20
63.232208
  0
VERTEX
  5
d5
  8
Layer_0
  10
24.3869
  20
63.1474
  0
VERTEX
  5
d6
  8
Layer_0
  10
24.4562
  20
63.057999
  0
VERTEX
  5
d7
  8
Layer_0
  10
24.5198
  20
62.964508
  0
VERTEX
  5
d8
  8
Layer_0
  10
24.577299
  20
62.867203
  0
VERTEX
  5
d9
  8
Layer_0
  10
24.6287
  20
62.766403
  0
VERTEX
  5
da
  8
Layer_0
  10
24.673599
  20
62.662598
  0
VERTEX
  5
db
  8
Layer_0
  10
24.711901
  20
62.556198
  0
VERTEX
  5
dc
  8
Layer_0
  10
24.743401
  20
62.447601
  0
VERTEX
  5
dd
  8
Layer_0
  10
24.768101
  20
62.337303
  0
VERTEX
  5
de
  8
Layer_0
  10
24.785801
  20
62.225601
  0
VERTEX
  5
df
  8
Layer_0
  10
24.7964
  20
62.112999
  0
VERTEX
  5
e0
  8
Layer_0
  10
24.799999
  20
62
  0
VERTEX
  5
e1
  8
Layer_0
  10
24.7964
  20
61.887001
  0
VERTEX
  5
e2
  8
Layer_0
  10
24.785801
  20
61.774399
  0
VERTEX
  5
e3
  8
Layer_0
  10
24.768101
  20
61.662697
  0
VERTEX
  5
e4
  8
Layer_0
  10
24.743401
  20
61.552399
  0
VERTEX
  5
e5
  8
Layer_0
  10
24.711901
  20
61.443802
  0
VERTEX
  5
e6
  8
Layer_0
  10
24.673599
  20
61.337402
  0
VERTEX
  5
e7
  8
Layer_0
  10
24.6287
  20
61.233597
  0
VERTEX
  5
e8
  8
Layer_0
  10
24.577299
  20
61.132797
  0
VERTEX
  5
e9
  8
Layer_0
  10
24.5198
  20
61.0355
  0
VERTEX
  5
ea
  8
Layer_0
  10
24.4562
  20
60.942001
  0
VERTEX
  5
eb
  8
Layer_0
  10
24.3869
  20
60.8526
  0
VERTEX
  5
ec
  8
Layer_0
  10
24.312099
  20
60.767799
  0
VERTEX
  5
ed
  8
Layer_0
  10
24.232201
  20
60.687897
  0
VERTEX
  5
ee
  8
Layer_0
  10
24.1474
  20
60.613098
  0
VERTEX
  5
ef
  8
Layer_0
  10
24.058001
  20
60.5438
  0
VERTEX
  5
f0
  8
Layer_0
  10
23.9645
  20
60.480202
  0
VERTEX
  5
f1
  8
Layer_0
  10
23.867201
  20
60.4226
  0
VERTEX
  5
f2
  8
Layer_0
  10
23.766399
  20
60.3713
  0
VERTEX
  5
f3
  8
Layer_0
  10
23.6626
  20
60.326401
  0
VERTEX
  5
f4
  8
Layer_0
  10
23.5562
  20
60.288101
  0
VERTEX
  5
f5
  8
Layer_0
  10
23.447599
  20
60.2565
  0
VERTEX
  5
f6
  8
Layer_0
  10
23.337299
  20
60.231903
  0
VERTEX
  5
f7
  8
Layer_0
  10
23.225599
  20
60.214203
  0
VERTEX
  5
f8
  8
Layer_0
  10
23.113001
  20
60.203598
  0
VERTEX
  5
f9
  8
Layer_0
  10
23
  20
60.199997
  0
VERTEX
  5
fa
  8
Layer_0
  10
22.886999
  20
60.203598
  0
SEQEND
  0
POLYLINE
  5
fc
  8
Layer_0
  62
1
  66
1
  10
0
  20
0
  30
0
  0
VERTEX
  5
fc
  8
Layer_0
  10
146.88699
  20
60.203598
  0
VERTEX
  5
fd
  8
Layer_0
  10
146.774
  20
60.214203
  0
VERTEX
  5
fe
  8
Layer_0
  10
146.66299
  20
60.231903
  0
VERTEX
  5
ff
  8
Layer_0
  10
146.552
  20
60.2565
  0
VERTEX
  5
100
  8
Layer_0
  10
146.444
  20
60.288101
  0
VERTEX
  5
101
  8
Layer_0
  10
146.33701
  20
60.326401
  0
VERTEX
  5
102
  8
Layer_0
  10
146.23399
  20
60.3713
  0
VERTEX
  5
103
  8
Layer_0
  10
146.133
  20
60.4226
  0
VERTEX
  5
104
  8
Layer_0
  10
146.036
  20
60.480202
  0
VERTEX
  5
105
  8
Layer_0
  10
145.942
  20
60.5438
  0
VERTEX
  5
106
  8
Layer_0
  10
145.853
  20
60.613098
  0
VERTEX
  5
107
  8
Layer_0
  10
145.76801
  20
60.687897
  0
VERTEX
  5
108
  8
Layer_0
  10
145.688
  20
60.767799
  0
VERTEX
  5
109
  8
Layer_0
  10
145.61301
  20
60.8526
  0
VERTEX
  5
10a
  8
Layer_0
  10
145.54401
  20
60.942001
  0
VERTEX
  5
10b
  8
Layer_0
  10
145.48
  20
61.0355
  0
VERTEX
  5
10c
  8
Layer_0
  10
145.423
  20
61.132797
  0
VERTEX
  5
10d
  8
Layer_0
  10
145.371
  20
61.233597
  0
VERTEX
  5
10e
  8
Layer_0
  10
145.326
  20
61.337402
  0
VERTEX
  5
10f
  8
Layer_0
  10
145.28799
  20
61.443802
  0
VERTEX
  5
110
  8
Layer_0
  10
145.257
  20
61.552399
  0
VERTEX
  5
111
  8
Layer_0
  10
145.23199
  20
61.662697
  0
VERTEX
  5
112
  8
Layer_0
  10
145.214
  20
61.774399
  0
VERTEX
  5
113
  8
Layer_0
  10
145.20399
  20
61.887001
  0
VERTEX
  5
114
  8
Layer_0
  10
145.2
  20
62
  0
VERTEX
  5
115
  8
Layer_0
  10
145.20399
  20
62.112999
  0
VERTEX
  5
116
  8
Layer_0
  10
145.214
  20
62.225601
  0
VERTEX
  5
117
  8
Layer_0
  10
145.23199
  20
62.337303
  0
VERTEX
  5
118
  8
Layer_0
  10
145.257
  20
62.447601
  0
VERTEX
  5
119
  8
Layer_0
  10
145.28799
  20
62.556198
  0
VERTEX
  5
11a
  8
Layer_0
  10
145.326
  20
62.662598
  0
VERTEX
  5
11b
  8
Layer_0
  10
145.371
  20
62.766403
  0
VERTEX
  5
11c
  8
Layer_0
  10
145.423
  20
62.867203
  0
VERTEX
  5
11d
  8
Layer_0
  10
145.48
  20
62.964508
  0
VERTEX
  5
11e
  8
Layer_0
  10
145.54401
  20
63.057999
  0
VERTEX
  5
11f
  8
Layer_0
  10
145.61301
  20
63.1474
  0
VERTEX
  5
120
  8
Layer_0
  10
145.688
  20
63.232208
  0
VERTEX
  5
121
  8
Layer_0
  10
145.76801
  20
63.312103
  0
VERTEX
  5
122
  8
Layer_0
  10
145.853
  20
63.386902
  0
VERTEX
  5
123
  8
Layer_0
  10
145.942
  20
63.456207
  0
VERTEX
  5
124
  8
Layer_0
  10
146.036
  20
63.519806
  0
VERTEX
  5
125
  8
Layer_0
  10
146.133
  20
63.577301
  0
VERTEX
  5
126
  8
Layer_0
  10
146.23399
  20
63.628693
  0
VERTEX
  5
127
  8
Layer_0
  10
146.33701
  20
63.673599
  0
VERTEX
  5
128
  8
Layer_0
  10
146.444
  20
63.711899
  0
VERTEX
  5
129
  8
Layer_0
  10
146.552
  20
63.743408
  0
VERTEX
  5
12a
  8
Layer_0
  10
146.66299
  20
63.768097
  0
VERTEX
  5
12b
  8
Layer_0
  10
146.774
  20
63.785797
  0
VERTEX
  5
12c
  8
Layer_0
  10
146.88699
  20
63.796402
  0
VERTEX
  5
12d
  8
Layer_0
  10
147
  20
63.800003
  0
VERTEX
  5
12e
  8
Layer_0
  10
147.11301
  20
63.796402
  0
VERTEX
  5
12f
  8
Layer_0
  10
147.226
  20
63.785797
  0
VERTEX
  5
130
  8
Layer_0
  10
147.33701
  20
63.768097
  0
VERTEX
  5
131
  8
Layer_0
  10
147.448
  20
63.743408
  0
VERTEX
  5
132
  8
Layer_0
  10
147.556
  20
63.711899
  0
VERTEX
  5
133
  8
Layer_0
  10
147.66299
  20
63.673599
  0
VERTEX
  5
134
  8
Layer_0
  10
147.76601
  20
63.628693
  0
VERTEX
  5
135
  8
Layer_0
  10
147.867
  20
63.577301
  0
VERTEX
  5
136
  8
Layer_0
  10
147.964
  20
63.519806
  0
VERTEX
  5
137
  8
Layer_0
  10
148.058
  20
63.456207
  0
VERTEX
  5
138
  8
Layer_0
  10
148.147
  20
63.386902
  0
VERTEX
  5
139
  8
Layer_0
  10
148.23199
  20
63.312103
  0
VERTEX
  5
13a
  8
Layer_0
  10
148.312
  20
63.232208
  0
VERTEX
  5
13b
  8
Layer_0
  10
148.38699
  20
63.1474
  0
VERTEX
  5
13c
  8
Layer_0
  10
148.45599
  20
63.057999
  0
VERTEX
  5
13d
  8
Layer_0
  10
148.52
  20
62.964508
  0
VERTEX
  5
13e
  8
Layer_0
  10
148.577
  20
62.867203
  0
VERTEX
  5
13f
  8
Layer_0
  10
148.629
  20
62.766403
  0
VERTEX
  5
140
  8
Layer_0
  10
148.674
  20
62.662598
  0
VERTEX
  5
141
  8
Layer_0
  10
148.71201
  20
62.556198
  0
VERTEX
  5
142
  8
Layer_0
  10
148.743
  20
62.447601
  0
VERTEX
  5
143
  8
Layer_0
  10
148.76801
  20
62.337303
  0
VERTEX
  5
144
  8
Layer_0
  10
148.786
  20
62.225601
  0
VERTEX
  5
145
  8
Layer_0
  10
148.79601
  20
62.112999
  0
VERTEX
  5
146
  8
Layer_0
  10
148.8
  20
62
  0
VERTEX
  5
147
  8
Layer_0
  10
148.79601
  20
61.887001
  0
VERTEX
  5
148
  8
Layer_0
  10
148.786
  20
61.774399
  0
VERTEX
  5
149
  8
Layer_0
  10
148.76801
  20
61.662697
  0
VERTEX
  5
14a
  8
Layer_0
  10
148.743
  20
61.552399
  0
VERTEX
  5
14b
  8
Layer_0
  10
148.71201
  20
61.443802
  0
VERTEX
  5
14c
  8
Layer_0
  10
148.674
  20
61.337402
  0
VERTEX
  5
14d
  8
Layer_0
  10
148.629
  20
61.233597
  0
VERTEX
  5
14e
  8
Layer_0
  10
148.577
  20
61.132797
  0
VERTEX
  5
14f
  8
Layer_0
  10
148.52
  20
61.0355
  0
VERTEX
  5
150
  8
Layer_0
  10
148.45599
  20
60.942001
  0
VERTEX
  5
151
  8
Layer_0
  10
148.38699
  20
60.8526
  0
VERTEX
  5
152
  8
Layer_0
  10
148.312
  20
60.767799
  0
VERTEX
  5
153
  8
Layer_0
  10
148.23199
  20
60.687897
  0
VERTEX
  5
154
  8
Layer_0
  10
148.147
  20
60.613098
  0
VERTEX
  5
155
  8
Layer_0
  10
148.058
  20
60.5438
  0
VERTEX
  5
156
  8
Layer_0
  10
147.964
  20
60.480202
  0
VERTEX
  5
157
  8
Layer_0
  10
147.867
  20
60.4226
  0
VERTEX
  5
158
  8
Layer_0
  10
147.76601
  20
60.3713
  0
VERTEX
  5
159
  8
Layer_0
  10
147.66299
  20
60.326401
  0
VERTEX
  5
15a
  8
Layer_0
  10
147.556
  20
60.288101
  0
VERTEX
  5
15b
  8
Layer_0
  10
147.448
  20
60.2565
  0
VERTEX
  5
15c
  8
Layer_0
  10
147.33701
  20
60.231903
  0
VERTEX
  5
15d
  8
Layer_0
  10
147.226
  20
60.214203
  0
VERTEX
  5
15e
  8
Layer_0
  10
147.11301
  20
60.203598
  0
VERTEX
  5
15f
  8
Layer_0
  10
147
  20
60.199997
  0
VERTEX
  5
160
  8
Layer_0
  10
146.88699
  20
60.203598
  0
SEQEND
  0
POLYLINE
  5
162
  8
Layer_0
  62
1
  66
1
  10
0
  20
0
  30
0
  0
VERTEX
  5
162
  8
Layer_0
  10
46.5
  20
8
  0
VERTEX
  5
163
  8
Layer_0
  10
46.5
  20
62
  0
VERTEX
  5
164
  8
Layer_0
  10
123.5
  20
62
  0
VERTEX
  5
165
  8
Layer_0
  10
123.5
  20
8
  0
VERTEX
  5
166
  8
Layer_0
  10
46.5
  20
8
  0
SEQEND
  0
POLYLINE
  5
168
  8
Layer_0
  62
1
  66
1
  10
0
  20
0
  30
0
  0
VERTEX
  5
168
  8
Layer_0
  10
7.88696
  20
58.203598
  0
VERTEX
  5
169
  8
Layer_0
  10
7.7744002
  20
58.214203
  0
VERTEX
  5
16a
  8
Layer_0
  10
7.6627002
  20
58.231903
  0
VERTEX
  5
16b
  8
Layer_0
  10
7.55235
  20
58.2565
  0
VERTEX
  5
16c
  8
Layer_0
  10
7.4437599
  20
58.288101
  0
VERTEX
  5
16d
  8
Layer_0
  10
7.3373699
  20
58.326401
  0
VERTEX
  5
16e
  8
Layer_0
  10
7.2336001
  20
58.3713
  0
VERTEX
  5
16f
  8
Layer_0
  10
7.1328402
  20
58.4226
  0
VERTEX
  5
170
  8
Layer_0
  10
7.0355101
  20
58.480202
  0
VERTEX
  5
171
  8
Layer_0
  10
6.9419899
  20
58.5438
  0
VERTEX
  5
172
  8
Layer_0
  10
6.8526297
  20
58.613098
  0
VERTEX
  5
173
  8
Layer_0
  10
6.7678099
  20
58.687897
  0
VERTEX
  5
174
  8
Layer_0
  10
6.68785
  20
58.767799
  0
VERTEX
  5
175
  8
Layer_0
  10
6.61307
  20
58.8526
  0
VERTEX
  5
176
  8
Layer_0
  10
6.5437603
  20
58.942001
  0
VERTEX
  5
177
  8
Layer_0
  10
6.4802103
  20
59.0355
  0
VERTEX
  5
178
  8
Layer_0
  10
6.4226398
  20
59.132797
  0
VERTEX
  5
179
  8
Layer_0
  10
6.3713102
  20
59.233597
  0
VERTEX
  5
17a
  8
Layer_0
  10
6.3263998
  20
59.337402
  0
VERTEX
  5
17b
  8
Layer_0
  10
6.2880898
  20
59.443802
  0
VERTEX
  5
17c
  8
Layer_0
  10
6.2565498
  20
59.552399
  0
VERTEX
  5
17d
  8
Layer_0
  10
6.2318697
  20
59.662697
  0
VERTEX
  5
17e
  8
Layer_0
  10
6.21419
  20
59.774399
  0
VERTEX
  5
17f
  8
Layer_0
  10
6.2035398
  20
59.887001
  0
VERTEX
  5
180
  8
Layer_0
  10
6.1999998
  20
60
  0
VERTEX
  5
181
  8
Layer_0
  10
6.2035398
  20
60.112999
  0
VERTEX
  5
182
  8
Layer_0
  10
6.21419
  20
60.225601
  0
VERTEX
  5
183
  8
Layer_0
  10
6.2318697
  20
60.337303
  0
VERTEX
  5
184
  8
Layer_0
  10
6.2565498
  20
60.447601
  0
VERTEX
  5
185
  8
Layer_0
  10
6.2880898
  20
60.556198
  0
VERTEX
  5
186
  8
Layer_0
  10
6.3263998
  20
60.662598
  0
VERTEX
  5
187
  8
Layer_0
  10
6.3713102
  20
60.766403
  0
VERTEX
  5
188
  8
Layer_0
  10
6.4226398
  20
60.867203
  0
VERTEX
  5
189
  8
Layer_0
  10
6.4802103
  20
60.9645
  0
VERTEX
  5
18a
  8
Layer_0
  10
6.5437603
  20
61.057999
  0
VERTEX
  5
18b
  8
Layer_0
  10
6.61307
  20
61.1474
  0
VERTEX
  5
18c
  8
Layer_0
  10
6.68785
  20
61.232201
  0
VERTEX
  5
18d
  8
Layer_0
  10
6.7678099
  20
61.312103
  0
VERTEX
  5
18e
  8
Layer_0
  10
6.8526297
  20
61.386902
  0
VERTEX
  5
18f
  8
Layer_0
  10
6.9419899
  20
61.4562
  0
VERTEX
  5
190
  8
Layer_0
  10
7.0355101
  20
61.519798
  0
VERTEX
  5
191
  8
Layer_0
  10
7.1328402
  20
61.577301
  0
VERTEX
  5
192
  8
Layer_0
  10
7.2336001
  20
61.6287
  0
VERTEX
  5
193
  8
Layer_0
  10
7.3373699
  20
61.673599
  0
VERTEX
  5
194
  8
Layer_0
  10
7.4437599
  20
61.711899
  0
VERTEX
  5
195
  8
Layer_0
  10
7.55235
  20
61.743401
  0
VERTEX
  5
196
  8
Layer_0
  10
7.6627002
  20
61.768097
  0
VERTEX
  5
197
  8
Layer_0
  10
7.7744002
  20
61.785797
  0
VERTEX
  5
198
  8
Layer_0
  10
7.88696
  20
61.796402
  0
VERTEX
  5
199
  8
Layer_0
  10
8
  20
61.800003
  0
VERTEX
  5
19a
  8
Layer_0
  10
8.1130199
  20
61.796402
  0
VERTEX
  5
19b
  8
Layer_0
  10
8.2255898
  20
61.785797
  0
VERTEX
  5
19c
  8
Layer_0
  10
8.3372803
  20
61.768097
  0
VERTEX
  5
19d
  8
Layer_0
  10
8.4476299
  20
61.743401
  0
VERTEX
  5
19e
  8
Layer_0
  10
8.5562305
  20
61.711899
  0
VERTEX
  5
19f
  8
Layer_0
  10
8.6626101
  20
61.673599
  0
VERTEX
  5
1a0
  8
Layer_0
  10
8.7663898
  20
61.6287
  0
VERTEX
  5
1a1
  8
Layer_0
  10
8.8671398
  20
61.577301
  0
VERTEX
  5
1a2
  8
Layer_0
  10
8.9644794
  20
61.519798
  0
VERTEX
  5
1a3
  8
Layer_0
  10
9.0580006
  20
61.4562
  0
VERTEX
  5
1a4
  8
Layer_0
  10
9.1473503
  20
61.386902
  0
VERTEX
  5
1a5
  8
Layer_0
  10
9.2321796
  20
61.312103
  0
VERTEX
  5
1a6
  8
Layer_0
  10
9.31213
  20
61.232201
  0
VERTEX
  5
1a7
  8
Layer_0
  10
9.38692
  20
61.1474
  0
VERTEX
  5
1a8
  8
Layer_0
  10
9.4562206
  20
61.057999
  0
VERTEX
  5
1a9
  8
Layer_0
  10
9.5197802
  20
60.9645
  0
VERTEX
  5
1aa
  8
Layer_0
  10
9.5773506
  20
60.867203
  0
VERTEX
  5
1ab
  8
Layer_0
  10
9.6286802
  20
60.766403
  0
VERTEX
  5
1ac
  8
Layer_0
  10
9.6735802
  20
60.662598
  0
VERTEX
  5
1ad
  8
Layer_0
  10
9.7119007
  20
60.556198
  0
VERTEX
  5
1ae
  8
Layer_0
  10
9.7434406
  20
60.447601
  0
VERTEX
  5
1af
  8
Layer_0
  10
9.7681103
  20
60.337303
  0
VERTEX
  5
1b0
  8
Layer_0
  10
9.7858
  20
60.225601
  0
VERTEX
  5
1b1
  8
Layer_0
  10
9.7964497
  20
60.112999
  0
VERTEX
  5
1b2
  8
Layer_0
  10
9.7999897
  20
60
  0
VERTEX
  5
1b3
  8
Layer_0
  10
9.7964497
  20
59.887001
  0
VERTEX
  5
1b4
  8
Layer_0
  10
9.7858
  20
59.774399
  0
VERTEX
  5
1b5
  8
Layer_0
  10
9.7681103
  20
59.662697
  0
VERTEX
  5
1b6
  8
Layer_0
  10
9.7434406
  20
59.552399
  0
VERTEX
  5
1b7
  8
Layer_0
  10
9.7119007
  20
59.443802
  0
VERTEX
  5
1b8
  8
Layer_0
  10
9.6735802
  20
59.337402
  0
VERTEX
  5
1b9
  8
Layer_0
  10
9.6286802
  20
59.233597
  0
VERTEX
  5
1ba
  8
Layer_0
  10
9.5773506
  20
59.132797
  0
VERTEX
  5
1bb
  8
Layer_0
  10
9.5197802
  20
59.0355
  0
VERTEX
  5
1bc
  8
Layer_0
  10
9.4562206
  20
58.942001
  0
VERTEX
  5
1bd
  8
Layer_0
  10
9.38692
  20
58.8526
  0
VERTEX
  5
1be
  8
Layer_0
  10
9.31213
  20
58.767799
  0
VERTEX
  5
1bf
  8
Layer_0
  10
9.2321796
  20
58.687897
  0
VERTEX
  5
1c0
  8
Layer_0
  10
9.1473503
  20
58.613098
  0
VERTEX
  5
1c1
  8
Layer_0
  10
9.0580006
  20
58.5438
  0
VERTEX
  5
1c2
  8
Layer_0
  10
8.9644794
  20
58.480202
  0
VERTEX
  5
1c3
  8
Layer_0
  10
8.8671398
  20
58.4226
  0
VERTEX
  5
1c4
  8
Layer_0
  10
8.7663898
  20
58.3713
  0
VERTEX
  5
1c5
  8
Layer_0
  10
8.6626101
  20
58.326401
  0
VERTEX
  5
1c6
  8
Layer_0
  10
8.5562305
  20
58.288101
  0
VERTEX
  5
1c7
  8
Layer_0
  10
8.4476299
  20
58.2565
  0
VERTEX
  5
1c8
  8
Layer_0
  10
8.3372803
  20
58.231903
  0
VERTEX
  5
1c9
  8
Layer_0
  10
8.2255898
  20
58.214203
  0
VERTEX
  5
1ca
  8
Layer_0
  10
8.1130199
  20
58.203598
  0
VERTEX
  5
1cb
  8
Layer_0
  10
8
  20
58.199997
  0
VERTEX
  5
1cc
  8
Layer_0
  10
7.88696
  20
58.203598
  0
SEQEND
  0
POLYLINE
  5
1ce
  8
Layer_0
  62
1
  66
1
  10
0
  20
0
  30
0
  0
VERTEX
  5
1ce
  8
Layer_0
  10
161.88699
  20
58.203598
  0
VERTEX
  5
1cf
  8
Layer_0
  10
161.774
  20
58.214203
  0
VERTEX
  5
1d0
  8
Layer_0
  10
161.66299
  20
58.231903
  0
VERTEX
  5
1d1
  8
Layer_0
  10
161.552
  20
58.2565
  0
VERTEX
  5
1d2
  8
Layer_0
  10
161.444
  20
58.288101
  0
VERTEX
  5
1d3
  8
Layer_0
  10
161.33701
  20
58.326401
  0
VERTEX
  5
1d4
  8
Layer_0
  10
161.23399
  20
58.3713
  0
VERTEX
  5
1d5
  8
Layer_0
  10
161.133
  20
58.4226
  0
VERTEX
  5
1d6
  8
Layer_0
  10
161.036
  20
58.480202
  0
VERTEX
  5
1d7
  8
Layer_0
  10
160.942
  20
58.5438
  0
VERTEX
  5
1d8
  8
Layer_0
  10
160.853
  20
58.613098
  0
VERTEX
  5
1d9
  8
Layer_0
  10
160.76801
  20
58.687897
  0
VERTEX
  5
1da
  8
Layer_0
  10
160.688
  20
58.767799
  0
VERTEX
  5
1db
  8
Layer_0
  10
160.61301
  20
58.8526
  0
VERTEX
  5
1dc
  8
Layer_0
  10
160.54401
  20
58.942001
  0
VERTEX
  5
1dd
  8
Layer_0
  10
160.48
  20
59.0355
  0
VERTEX
  5
1de
  8
Layer_0
  10
160.423
  20
59.132797
  0
VERTEX
  5
1df
  8
Layer_0
  10
160.371
  20
59.233597
  0
VERTEX
  5
1e0
  8
Layer_0
  10
160.326
  20
59.337402
  0
VERTEX
  5
1e1
  8
Layer_0
  10
160.28799
  20
59.443802
  0
VERTEX
  5
1e2
  8
Layer_0
  10
160.257
  20
59.552399
  0
VERTEX
  5
1e3
  8
Layer_0
  10
160.23199
  20
59.662697
  0
VERTEX
  5
1e4
  8
Layer_0
  10
160.214
  20
59.774399
  0
VERTEX
  5
1e5
  8
Layer_0
  10
160.20399
  20
59.887001
  0
VERTEX
  5
1e6
  8
Layer_0
  10
160.2
  20
60
  0
VERTEX
  5
1e7
  8
Layer_0
  10
160.20399
  20
60.112999
  0
VERTEX
  5
1e8
  8
Layer_0
  10
160.214
  20
60.225601
  0
VERTEX
  5
1e9
  8
Layer_0
  10
160.23199
  20
60.337303
  0
VERTEX
  5
1ea
  8
Layer_0
  10
160.257
  20
60.447601
  0
VERTEX
  5
1eb
  8
Layer_0
  10
160.28799
  20
60.556198
  0
VERTEX
  5
1ec
  8
Layer_0
  10
160.326
  20
60.662598
  0
VERTEX
  5
1ed
  8
Layer_0
  10
160.371
  20
60.766403
  0
VERTEX
  5
1ee
  8
Layer_0
  10
160.423
  20
60.867203
  0
VERTEX
  5
1ef
  8
Layer_0
  10
160.48
  20
60.9645
  0
VERTEX
  5
1f0
  8
Layer_0
  10
160.54401
  20
61.057999
  0
VERTEX
  5
1f1
  8
Layer_0
  10
160.61301
  20
61.1474
  0
VERTEX
  5
1f2
  8
Layer_0
  10
160.688
  20
61.232201
  0
VERTEX
  5
1f3
  8
Layer_0
  10
160.76801
  20
61.312103
  0
VERTEX
  5
1f4
  8
Layer_0
  10
160.853
  20
61.386902
  0
VERTEX
  5
1f5
  8
Layer_0
  10
160.942
  20
61.4562
  0
VERTEX
  5
1f6
  8
Layer_0
  10
161.036
  20
61.519798
  0
VERTEX
  5
1f7
  8
Layer_0
  10
161.133
  20
61.577301
  0
VERTEX
  5
1f8
  8
Layer_0
  10
161.23399
  20
61.6287
  0
VERTEX
  5
1f9
  8
Layer_0
  10
161.33701
  20
61.673599
  0
VERTEX
  5
1fa
  8
Layer_0
  10
161.444
  20
61.711899
  0
VERTEX
  5
1fb
  8
Layer_0
  10
161.552
  20
61.743401
  0
VERTEX
  5
1fc
  8
Layer_0
  10
161.66299
  20
61.768097
  0
VERTEX
  5
1fd
  8
Layer_0
  10
161.774
  20
61.785797
  0
VERTEX
  5
1fe
  8
Layer_0
  10
161.88699
  20
61.796402
  0
VERTEX
  5
1ff
  8
Layer_0
  10
162
  20
61.800003
  0
VERTEX
  5
200
  8
Layer_0
  10
162.11301
  20
61.796402
  0
VERTEX
  5
201
  8
Layer_0
  10
162.226
  20
61.785797
  0
VERTEX
  5
202
  8
Layer_0
  10
162.33701
  20
61.768097
  0
VERTEX
  5
203
  8
Layer_0
  10
162.448
  20
61.743401
  0
VERTEX
  5
204
  8
Layer_0
  10
162.556
  20
61.711899
  0
VERTEX
  5
205
  8
Layer_0
  10
162.66299
  20
61.673599
  0
VERTEX
  5
206
  8
Layer_0
  10
162.76601
  20
61.6287
  0
VERTEX
  5
207
  8
Layer_0
  10
162.867
  20
61.577301
  0
VERTEX
  5
208
  8
Layer_0
  10
162.964
  20
61.519798
  0
VERTEX
  5
209
  8
Layer_0
  10
163.058
  20
61.4562
  0
VERTEX
  5
20a
  8
Layer_0
  10
163.147
  20
61.386902
  0
VERTEX
  5
20b
  8
Layer_0
  10
163.23199
  20
61.312103
  0
VERTEX
  5
20c
  8
Layer_0
  10
163.312
  20
61.232201
  0
VERTEX
  5
20d
  8
Layer_0
  10
163.38699
  20
61.1474
  0
VERTEX
  5
20e
  8
Layer_0
  10
163.45599
  20
61.057999
  0
VERTEX
  5
20f
  8
Layer_0
  10
163.52
  20
60.9645
  0
VERTEX
  5
210
  8
Layer_0
  10
163.577
  20
60.867203
  0
VERTEX
  5
211
  8
Layer_0
  10
163.629
  20
60.766403
  0
VERTEX
  5
212
  8
Layer_0
  10
163.674
  20
60.662598
  0
VERTEX
  5
213
  8
Layer_0
  10
163.71201
  20
60.556198
  0
VERTEX
  5
214
  8
Layer_0
  10
163.743
  20
60.447601
  0
VERTEX
  5
215
  8
Layer_0
  10
163.76801
  20
60.337303
  0
VERTEX
  5
216
  8
Layer_0
  10
163.786
  20
60.225601
  0
VERTEX
  5
217
  8
Layer_0
  10
163.79601
  20
60.112999
  0
VERTEX
  5
218
  8
Layer_0
  10
163.8
  20
60
  0
VERTEX
  5
219
  8
Layer_0
  10
163.79601
  20
59.887001
  0
VERTEX
  5
21a
  8
Layer_0
  10
163.786
  20
59.774399
  0
VERTEX
  5
21b
  8
Layer_0
  10
163.76801
  20
59.662697
  0
VERTEX
  5
21c
  8
Layer_0
  10
163.743
  20
59.552399
  0
VERTEX
  5
21d
  8
Layer_0
  10
163.71201
  20
59.443802
  0
VERTEX
  5
21e
  8
Layer_0
  10
163.674
  20
59.337402
  0
VERTEX
  5
21f
  8
Layer_0
  10
163.629
  20
59.233597
  0
VERTEX
  5
220
  8
Layer_0
  10
163.577
  20
59.132797
  0
VERTEX
  5
221
  8
Layer_0
  10
163.52
  20
59.0355
  0
VERTEX
  5
222
  8
Layer_0
  10
163.45599
  20
58.942001
  0
VERTEX
  5
223
  8
Layer_0
  10
163.38699
  20
58.8526
  0
VERTEX
  5
224
  8
Layer_0
  10
163.312
  20
58.767799
  0
VERTEX
  5
225
  8
Layer_0
  10
163.23199
  20
58.687897
  0
VERTEX
  5
226
  8
Layer_0
  10
163.147
  20
58.613098
  0
VERTEX
  5
227
  8
Layer_0
  10
163.058
  20
58.5438
  0
VERTEX
  5
228
  8
Layer_0
  10
162.964
  20
58.480202
  0
VERTEX
  5
229
  8
Layer_0
  10
162.867
  20
58.4226
  0
VERTEX
  5
22a
  8
Layer_0
  10
162.76601
  20
58.3713
  0
VERTEX
  5
22b
  8
Layer_0
  10
162.66299
  20
58.326401
  0
VERTEX
  5
22c
  8
Layer_0
  10
162.556
  20
58.288101
  0
VERTEX
  5
22d
  8
Layer_0
  10
162.448
  20
58.2565
  0
VERTEX
  5
22e
  8
Layer_0
  10
162.33701
  20
58.231903
  0
VERTEX
  5
22f
  8
Layer_0
  10
162.226
  20
58.214203
  0
VERTEX
  5
230
  8
Layer_0
  10
162.11301
  20
58.203598
  0
VERTEX
  5
231
  8
Layer_0
  10
162
  20
58.199997
  0
VERTEX
  5
232
  8
Layer_0
  10
161.88699
  20
58.203598
  0
SEQEND
  0
POLYLINE
  5
234
  8
Layer_0
  62
1
  66
1
  10
0
  20
0
  30
0
  0
VERTEX
  5
234
  8
Layer_0
  10
7.88696
  20
8.203537
  0
VERTEX
  5
235
  8
Layer_0
  10
7.7744002
  20
8.2141876
  0
VERTEX
  5
236
  8
Layer_0
  10
7.6627002
  20
8.2318726
  0
VERTEX
  5
237
  8
Layer_0
  10
7.55235
  20
8.256546
  0
VERTEX
  5
238
  8
Layer_0
  10
7.4437599
  20
8.2880936
  0
VERTEX
  5
239
  8
Layer_0
  10
7.3373699
  20
8.3264008
  0
VERTEX
  5
23a
  8
Layer_0
  10
7.2336001
  20
8.3713074
  0
VERTEX
  5
23b
  8
Layer_0
  10
7.1328402
  20
8.4226379
  0
VERTEX
  5
23c
  8
Layer_0
  10
7.0355101
  20
8.4802094
  0
VERTEX
  5
23d
  8
Layer_0
  10
6.9419899
  20
8.5437622
  0
VERTEX
  5
23e
  8
Layer_0
  10
6.8526297
  20
8.6130676
  0
VERTEX
  5
23f
  8
Layer_0
  10
6.7678099
  20
8.687851
  0
VERTEX
  5
240
  8
Layer_0
  10
6.68785
  20
8.767807
  0
VERTEX
  5
241
  8
Layer_0
  10
6.61307
  20
8.8526306
  0
VERTEX
  5
242
  8
Layer_0
  10
6.5437603
  20
8.9419861
  0
VERTEX
  5
243
  8
Layer_0
  10
6.4802103
  20
9.0355072
  0
VERTEX
  5
244
  8
Layer_0
  10
6.4226398
  20
9.132843
  0
VERTEX
  5
245
  8
Layer_0
  10
6.3713102
  20
9.2335968
  0
VERTEX
  5
246
  8
Layer_0
  10
6.3263998
  20
9.3373718
  0
VERTEX
  5
247
  8
Layer_0
  10
6.2880898
  20
9.4437561
  0
VERTEX
  5
248
  8
Layer_0
  10
6.2565498
  20
9.5523529
  0
VERTEX
  5
249
  8
Layer_0
  10
6.2318697
  20
9.6626968
  0
VERTEX
  5
24a
  8
Layer_0
  10
6.21419
  20
9.7743988
  0
VERTEX
  5
24b
  8
Layer_0
  10
6.2035398
  20
9.8869629
  0
VERTEX
  5
24c
  8
Layer_0
  10
6.1999998
  20
10
  0
VERTEX
  5
24d
  8
Layer_0
  10
6.2035398
  20
10.113022
  0
VERTEX
  5
24e
  8
Layer_0
  10
6.21419
  20
10.225586
  0
VERTEX
  5
24f
  8
Layer_0
  10
6.2318697
  20
10.33728
  0
VERTEX
  5
250
  8
Layer_0
  10
6.2565498
  20
10.447632
  0
VERTEX
  5
251
  8
Layer_0
  10
6.2880898
  20
10.556229
  0
VERTEX
  5
252
  8
Layer_0
  10
6.3263998
  20
10.662613
  0
VERTEX
  5
253
  8
Layer_0
  10
6.3713102
  20
10.766388
  0
VERTEX
  5
254
  8
Layer_0
  10
6.4226398
  20
10.867142
  0
VERTEX
  5
255
  8
Layer_0
  10
6.4802103
  20
10.964478
  0
VERTEX
  5
256
  8
Layer_0
  10
6.5437603
  20
11.057999
  0
VERTEX
  5
257
  8
Layer_0
  10
6.61307
  20
11.147354
  0
VERTEX
  5
258
  8
Layer_0
  10
6.68785
  20
11.232178
  0
VERTEX
  5
259
  8
Layer_0
  10
6.7678099
  20
11.312134
  0
VERTEX
  5
25a
  8
Layer_0
  10
6.8526297
  20
11.386917
  0
VERTEX
  5
25b
  8
Layer_0
  10
6.9419899
  20
11.456223
  0
VERTEX
  5
25c
  8
Layer_0
  10
7.0355101
  20
11.519798
  0
VERTEX
  5
25d
  8
Layer_0
  10
7.1328402
  20
11.577301
  0
VERTEX
  5
25e
  8
Layer_0
  10
7.2336001
  20
11.6287
  0
VERTEX
  5
25f
  8
Layer_0
  10
7.3373699
  20
11.673599
  0
VERTEX
  5
260
  8
Layer_0
  10
7.4437599
  20
11.711899
  0
VERTEX
  5
261
  8
Layer_0
  10
7.55235
  20
11.743401
  0
VERTEX
  5
262
  8
Layer_0
  10
7.6627002
  20
11.768097
  0
VERTEX
  5
263
  8
Layer_0
  10
7.7744002
  20
11.785797
  0
VERTEX
  5
264
  8
Layer_0
  10
7.88696
  20
11.796402
  0
VERTEX
  5
265
  8
Layer_0
  10
8
  20
11.800003
  0
VERTEX
  5
266
  8
Layer_0
  10
8.1130199
  20
11.796402
  0
VERTEX
  5
267
  8
Layer_0
  10
8.2255898
  20
11.785797
  0
VERTEX
  5
268
  8
Layer_0
  10
8.3372803
  20
11.768097
  0
VERTEX
  5
269
  8
Layer_0
  10
8.4476299
  20
11.743401
  0
VERTEX
  5
26a
  8
Layer_0
  10
8.5562305
  20
11.711899
  0
VERTEX
  5
26b
  8
Layer_0
  10
8.6626101
  20
11.673599
  0
VERTEX
  5
26c
  8
Layer_0
  10
8.7663898
  20
11.6287
  0
VERTEX
  5
26d
  8
Layer_0
  10
8.8671398
  20
11.577301
  0
VERTEX
  5
26e
  8
Layer_0
  10
8.9644794
  20
11.519798
  0
VERTEX
  5
26f
  8
Layer_0
  10
9.0580006
  20
11.456223
  0
VERTEX
  5
270
  8
Layer_0
  10
9.1473503
  20
11.386917
  0
VERTEX
  5
271
  8
Layer_0
  10
9.2321796
  20
11.312134
  0
VERTEX
  5
272
  8
Layer_0
  10
9.31213
  20
11.232178
  0
VERTEX
  5
273
  8
Layer_0
  10
9.38692
  20
11.147354
  0
VERTEX
  5
274
  8
Layer_0
  10
9.4562206
  20
11.057999
  0
VERTEX
  5
275
  8
Layer_0
  10
9.5197802
  20
10.964478
  0
VERTEX
  5
276
  8
Layer_0
  10
9.5773506
  20
10.867142
  0
VERTEX
  5
277
  8
Layer_0
  10
9.6286802
  20
10.766388
  0
VERTEX
  5
278
  8
Layer_0
  10
9.6735802
  20
10.662613
  0
VERTEX
  5
279
  8
Layer_0
  10
9.7119007
  20
10.556229
  0
VERTEX
  5
27a
  8
Layer_0
  10
9.7434406
  20
10.447632
  0
VERTEX
  5
27b
  8
Layer_0
  10
9.7681103
  20
10.33728
  0
VERTEX
  5
27c
  8
Layer_0
  10
9.7858
  20
10.225586
  0
VERTEX
  5
27d
  8
Layer_0
  10
9.7964497
  20
10.113022
  0
VERTEX
  5
27e
  8
Layer_0
  10
9.7999897
  20
10
  0
VERTEX
  5
27f
  8
Layer_0
  10
9.7964497
  20
9.8869629
  0
VERTEX
  5
280
  8
Layer_0
  10
9.7858
  20
9.7743988
  0
VERTEX
  5
281
  8
Layer_0
  10
9.7681103
  20
9.6626968
  0
VERTEX
  5
282
  8
Layer_0
  10
9.7434406
  20
9.5523529
  0
VERTEX
  5
283
  8
Layer_0
  10
9.7119007
  20
9.4437561
  0
VERTEX
  5
284
  8
Layer_0
  10
9.6735802
  20
9.3373718
  0
VERTEX
  5
285
  8
Layer_0
  10
9.6286802
  20
9.2335968
  0
VERTEX
  5
286
  8
Layer_0
  10
9.5773506
  20
9.132843
  0
VERTEX
  5
287
  8
Layer_0
  10
9.5197802
  20
9.0355072
  0
VERTEX
  5
288
  8
Layer_0
  10
9.4562206
  20
8.9419861
  0
VERTEX
  5
289
  8
Layer_0
  10
9.38692
  20
8.8526306
  0
VERTEX
  5
28a
  8
Layer_0
  10
9.31213
  20
8.767807
  0
VERTEX
  5
28b
  8
Layer_0
  10
9.2321796
  20
8.687851
  0
VERTEX
  5
28c
  8
Layer_0
  10
9.1473503
  20
8.6130676
  0
VERTEX
  5
28d
  8
Layer_0
  10
9.0580006
  20
8.5437622
  0
VERTEX
  5
28e
  8
Layer_0
  10
8.9644794
  20
8.4802094
  0
VERTEX
  5
28f
  8
Layer_0
  10
8.8671398
  20
8.4226379
  0
VERTEX
  5
290
  8
Layer_0
  10
8.7663898
  20
8.3713074
  0
VERTEX
  5
291
  8
Layer_0
  10
8.6626101
  20
8.3264008
  0
VERTEX
  5
292
  8
Layer_0
  10
8.5562305
  20
8.2880936
  0
VERTEX
  5
293
  8
Layer_0
  10
8.4476299
  20
8.256546
  0
VERTEX
  5
294
  8
Layer_0
  10
8.3372803
  20
8.2318726
  0
VERTEX
  5
295
  8
Layer_0
  10
8.2255898
  20
8.2141876
  0
VERTEX
  5
296
  8
Layer_0
  10
8.1130199
  20
8.203537
  0
VERTEX
  5
297
  8
Layer_0
  10
8
  20
8.1999969
  0
VERTEX
  5
298
  8
Layer_0
  10
7.88696
  20
8.203537
  0
SEQEND
  0
POLYLINE
  5
29a
  8
Layer_0
  62
1
  66
1
  10
0
  20
0
  30
0
  0
VERTEX
  5
29a
  8
Layer_0
  10
161.88699
  20
8.203537
  0
VERTEX
  5
29b
  8
Layer_0
  10
161.774
  20
8.2141876
  0
VERTEX
  5
29c
  8
Layer_0
  10
161.66299
  20
8.2318726
  0
VERTEX
  5
29d
  8
Layer_0
  10
161.552
  20
8.256546
  0
VERTEX
  5
29e
  8
Layer_0
  10
161.444
  20
8.2880936
  0
VERTEX
  5
29f
  8
Layer_0
  10
161.33701
  20
8.3264008
  0
VERTEX
  5
2a0
  8
Layer_0
  10
161.23399
  20
8.3713074
  0
VERTEX
  5
2a1
  8
Layer_0
  10
161.133
  20
8.4226379
  0
VERTEX
  5
2a2
  8
Layer_0
  10
161.036
  20
8.4802094
  0
VERTEX
  5
2a3
  8
Layer_0
  10
160.942
  20
8.5437622
  0
VERTEX
  5
2a4
  8
Layer_0
  10
160.853
  20
8.6130676
  0
VERTEX
  5
2a5
  8
Layer_0
  10
160.76801
  20
8.687851
  0
VERTEX
  5
2a6
  8
Layer_0
  10
160.688
  20
8.767807
  0
VERTEX
  5
2a7
  8
Layer_0
  10
160.61301
  20
8.8526306
  0
VERTEX
  5
2a8
  8
Layer_0
  10
160.54401
  20
8.9419861
  0
VERTEX
  5
2a9
  8
Layer_0
  10
160.48
  20
9.0355072
  0
VERTEX
  5
2aa
  8
Layer_0
  10
160.423
  20
9.132843
  0
VERTEX
  5
2ab
  8
Layer_0
  10
160.371
  20
9.2335968
  0
VERTEX
  5
2ac
  8
Layer_0
  10
160.326
  20
9.3373718
  0
VERTEX
  5
2ad
  8
Layer_0
  10
160.28799
  20
9.4437561
  0
VERTEX
  5
2ae
  8
Layer_0
  10
160.257
  20
9.5523529
  0
VERTEX
  5
2af
  8
Layer_0
  10
160.23199
  20
9.6626968
  0
VERTEX
  5
2b0
  8
Layer_0
  10
160.214
  20
9.7743988
  0
VERTEX
  5
2b1
  8
Layer_0
  10
160.20399
  20
9.8869629
  0
VERTEX
  5
2b2
  8
Layer_0
  10
160.2
  20
10
  0
VERTEX
  5
2b3
  8
Layer_0
  10
160.20399
  20
10.113022
  0
VERTEX
  5
2b4
  8
Layer_0
  10
160.214
  20
10.225586
  0
VERTEX
  5
2b5
  8
Layer_0
  10
160.23199
  20
10.33728
  0
VERTEX
  5
2b6
  8
Layer_0
  10
160.257
  20
10.447632
  0
VERTEX
  5
2b7
  8
Layer_0
  10
160.28799
  20
10.556229
  0
VERTEX
  5
2b8
  8
Layer_0
  10
160.326
  20
10.662613
  0
VERTEX
  5
2b9
  8
Layer_0
  10
160.371
  20
10.766388
  0
VERTEX
  5
2ba
  8
Layer_0
  10
160.423
  20
10.867142
  0
VERTEX
  5
2bb
  8
Layer_0
  10
160.48
  20
10.964478
  0
VERTEX
  5
2bc
  8
Layer_0
  10
160.54401
  20
11.057999
  0
VERTEX
  5
2bd
  8
Layer_0
  10
160.61301
  20
11.147354
  0
VERTEX
  5
2be
  8
Layer_0
  10
160.688
  20
11.232178
  0
VERTEX
  5
2bf
  8
Layer_0
  10
160.76801
  20
11.312134
  0
VERTEX
  5
2c0
  8
Layer_0
  10
160.853
  20
11.386917
  0
VERTEX
  5
2c1
  8
Layer_0
  10
160.942
  20
11.456223
  0
VERTEX
  5
2c2
  8
Layer_0
  10
161.036
  20
11.519798
  0
VERTEX
  5
2c3
  8
Layer_0
  10
161.133
  20
11.577301
  0
VERTEX
  5
2c4
  8
Layer_0
  10
161.23399
  20
11.6287
  0
VERTEX
  5
2c5
  8
Layer_0
  10
161.33701
  20
11.673599
  0
VERTEX
  5
2c6
  8
Layer_0
  10
161.444
  20
11.711899
  0
VERTEX
  5
2c7
  8
Layer_0
  10
161.552
  20
11.743401
  0
VERTEX
  5
2c8
  8
Layer_0
  10
161.66299
  20
11.768097
  0
VERTEX
  5
2c9
  8
Layer_0
  10
161.774
  20
11.785797
  0
VERTEX
  5
2ca
  8
Layer_0
  10
161.88699
  20
11.796402
  0
VERTEX
  5
2cb
  8
Layer_0
  10
162
  20
11.800003
  0
VERTEX
  5
2cc
  8
Layer_0
  10
162.11301
  20
11.796402
  0
VERTEX
  5
2cd
  8
Layer_0
  10
162.226
  20
11.785797
  0
VERTEX
  5
2ce
  8
Layer_0
  10
162.33701
  20
11.768097
  0
VERTEX
  5
2cf
  8
Layer_0
  10
162.448
  20
11.743401
  0
VERTEX
  5
2d0
  8
Layer_0
  10
162.556
  20
11.711899
  0
VERTEX
  5
2d1
  8
Layer_0
  10
162.66299
  20
11.673599
  0
VERTEX
  5
2d2
  8
Layer_0
  10
162.76601
  20
11.6287
  0
VERTEX
  5
2d3
  8
Layer_0
  10
162.867
  20
11.577301
  0
VERTEX
  5
2d4
  8
Layer_0
  10
162.964
  20
11.519798
  0
VERTEX
  5
2d5
  8
Layer_0
  10
163.058
  20
11.456223
  0
VERTEX
  5
2d6
  8
Layer_0
  10
163.147
  20
11.386917
  0
VERTEX
  5
2d7
  8
Layer_0
  10
163.23199
  20
11.312134
  0
VERTEX
  5
2d8
  8
Layer_0
  10
163.312
  20
11.232178
  0
VERTEX
  5
2d9
  8
Layer_0
  10
163.38699
  20
11.147354
  0
VERTEX
  5
2da
  8
Layer_0
  10
163.45599
  20
11.057999
  0
VERTEX
  5
2db
  8
Layer_0
  10
163.52
  20
10.964478
  0
VERTEX
  5
2dc
  8
Layer_0
  10
163.577
  20
10.867142
  0
VERTEX
  5
2dd
  8
Layer_0
  10
163.629
  20
10.766388
  0
VERTEX
  5
2de
  8
Layer_0
  10
163.674
  20
10.662613
  0
VERTEX
  5
2df
  8
Layer_0
  10
163.71201
  20
10.556229
  0
VERTEX
  5
2e0
  8
Layer_0
  10
163.743
  20
10.447632
  0
VERTEX
  5
2e1
  8
Layer_0
  10
163.76801
  20
10.33728
  0
VERTEX
  5
2e2
  8
Layer_0
  10
163.786
  20
10.225586
  0
VERTEX
  5
2e3
  8
Layer_0
  10
163.79601
  20
10.113022
  0
VERTEX
  5
2e4
  8
Layer_0
  10
163.8
  20
10
  0
VERTEX
  5
2e5
  8
Layer_0
  10
163.79601
  20
9.8869629
  0
VERTEX
  5
2e6
  8
Layer_0
  10
163.786
  20
9.7743988
  0
VERTEX
  5
2e7
  8
Layer_0
  10
163.76801
  20
9.6626968
  0
VERTEX
  5
2e8
  8
Layer_0
  10
163.743
  20
9.5523529
  0
VERTEX
  5
2e9
  8
Layer_0
  10
163.71201
  20
9.4437561
  0
VERTEX
  5
2ea
  8
Layer_0
  10
163.674
  20
9.3373718
  0
VERTEX
  5
2eb
  8
Layer_0
  10
163.629
  20
9.2335968
  0
VERTEX
  5
2ec
  8
Layer_0
  10
163.577
  20
9.132843
  0
VERTEX
  5
2ed
  8
Layer_0
  10
163.52
  20
9.0355072
  0
VERTEX
  5
2ee
  8
Layer_0
  10
163.45599
  20
8.9419861
  0
VERTEX
  5
2ef
  8
Layer_0
  10
163.38699
  20
8.8526306
  0
VERTEX
  5
2f0
  8
Layer_0
  10
163.312
  20
8.767807
  0
VERTEX
  5
2f1
  8
Layer_0
  10
163.23199
  20
8.687851
  0
VERTEX
  5
2f2
  8
Layer_0
  10
163.147
  20
8.6130676
  0
VERTEX
  5
2f3
  8
Layer_0
  10
163.058
  20
8.5437622
  0
VERTEX
  5
2f4
  8
Layer_0
  10
162.964
  20
8.4802094
  0
VERTEX
  5
2f5
  8
Layer_0
  10
162.867
  20
8.4226379
  0
VERTEX
  5
2f6
  8
Layer_0
  10
162.76601
  20
8.3713074
  0
VERTEX
  5
2f7
  8
Layer_0
  10
162.66299
  20
8.3264008
  0
VERTEX
  5
2f8
  8
Layer_0
  10
162.556
  20
8.2880936
  0
VERTEX
  5
2f9
  8
Layer_0
  10
162.448
  20
8.256546
  0
VERTEX
  5
2fa
  8
Layer_0
  10
162.33701
  20
8.2318726
  0
VERTEX
  5
2fb
  8
Layer_0
  10
162.226
  20
8.2141876
  0
VERTEX
  5
2fc
  8
Layer_0
  10
162.11301
  20
8.203537
  0
VERTEX
  5
2fd
  8
Layer_0
  10
162
  20
8.1999969
  0
VERTEX
  5
2fe
  8
Layer_0
  10
161.88699
  20
8.203537
  0
SEQEND
  0
POLYLINE
  5
300
  8
Layer_0
  62
1
  66
1
  10
0
  20
0
  30
0
  0
VERTEX
  5
300
  8
Layer_0
  10
22.886999
  20
6.203537
  0
VERTEX
  5
301
  8
Layer_0
  10
22.774401
  20
6.2141876
  0
VERTEX
  5
302
  8
Layer_0
  10
22.662701
  20
6.2318726
  0
VERTEX
  5
303
  8
Layer_0
  10
22.552401
  20
6.256546
  0
VERTEX
  5
304
  8
Layer_0
  10
22.4438
  20
6.2880936
  0
VERTEX
  5
305
  8
Layer_0
  10
22.3374
  20
6.3264008
  0
VERTEX
  5
306
  8
Layer_0
  10
22.233601
  20
6.3713074
  0
VERTEX
  5
307
  8
Layer_0
  10
22.132799
  20
6.4226379
  0
VERTEX
  5
308
  8
Layer_0
  10
22.0355
  20
6.4802094
  0
VERTEX
  5
309
  8
Layer_0
  10
21.941999
  20
6.5437622
  0
VERTEX
  5
30a
  8
Layer_0
  10
21.8526
  20
6.6130676
  0
VERTEX
  5
30b
  8
Layer_0
  10
21.767799
  20
6.687851
  0
VERTEX
  5
30c
  8
Layer_0
  10
21.687901
  20
6.767807
  0
VERTEX
  5
30d
  8
Layer_0
  10
21.6131
  20
6.8526306
  0
VERTEX
  5
30e
  8
Layer_0
  10
21.5438
  20
6.9419861
  0
VERTEX
  5
30f
  8
Layer_0
  10
21.4802
  20
7.0355072
  0
VERTEX
  5
310
  8
Layer_0
  10
21.4226
  20
7.132843
  0
VERTEX
  5
311
  8
Layer_0
  10
21.3713
  20
7.2335968
  0
VERTEX
  5
312
  8
Layer_0
  10
21.326401
  20
7.3373718
  0
VERTEX
  5
313
  8
Layer_0
  10
21.288099
  20
7.4437561
  0
VERTEX
  5
314
  8
Layer_0
  10
21.2565
  20
7.5523529
  0
VERTEX
  5
315
  8
Layer_0
  10
21.231899
  20
7.6626968
  0
VERTEX
  5
316
  8
Layer_0
  10
21.214199
  20
7.7743988
  0
VERTEX
  5
317
  8
Layer_0
  10
21.2036
  20
7.8869629
  0
VERTEX
  5
318
  8
Layer_0
  10
21.200001
  20
8
  0
VERTEX
  5
319
  8
Layer_0
  10
21.2036
  20
8.1130219
  0
VERTEX
  5
31a
  8
Layer_0
  10
21.214199
  20
8.2255936
  0
VERTEX
  5
31b
  8
Layer_0
  10
21.231899
  20
8.3372803
  0
VERTEX
  5
31c
  8
Layer_0
  10
21.2565
  20
8.4476318
  0
VERTEX
  5
31d
  8
Layer_0
  10
21.288099
  20
8.5562286
  0
VERTEX
  5
31e
  8
Layer_0
  10
21.326401
  20
8.6626129
  0
VERTEX
  5
31f
  8
Layer_0
  10
21.3713
  20
8.7663879
  0
VERTEX
  5
320
  8
Layer_0
  10
21.4226
  20
8.8671417
  0
VERTEX
  5
321
  8
Layer_0
  10
21.4802
  20
8.9644775
  0
VERTEX
  5
322
  8
Layer_0
  10
21.5438
  20
9.0579987
  0
VERTEX
  5
323
  8
Layer_0
  10
21.6131
  20
9.1473465
  0
VERTEX
  5
324
  8
Layer_0
  10
21.687901
  20
9.2321777
  0
VERTEX
  5
325
  8
Layer_0
  10
21.767799
  20
9.3121338
  0
VERTEX
  5
326
  8
Layer_0
  10
21.8526
  20
9.3869171
  0
VERTEX
  5
327
  8
Layer_0
  10
21.941999
  20
9.4562225
  0
VERTEX
  5
328
  8
Layer_0
  10
22.0355
  20
9.519783
  0
VERTEX
  5
329
  8
Layer_0
  10
22.132799
  20
9.5773468
  0
VERTEX
  5
32a
  8
Layer_0
  10
22.233601
  20
9.6286774
  0
VERTEX
  5
32b
  8
Layer_0
  10
22.3374
  20
9.673584
  0
VERTEX
  5
32c
  8
Layer_0
  10
22.4438
  20
9.7118988
  0
VERTEX
  5
32d
  8
Layer_0
  10
22.552401
  20
9.7434387
  0
VERTEX
  5
32e
  8
Layer_0
  10
22.662701
  20
9.7681122
  0
VERTEX
  5
32f
  8
Layer_0
  10
22.774401
  20
9.7857971
  0
VERTEX
  5
330
  8
Layer_0
  10
22.886999
  20
9.7964478
  0
VERTEX
  5
331
  8
Layer_0
  10
23
  20
9.7999878
  0
VERTEX
  5
332
  8
Layer_0
  10
23.113001
  20
9.7964478
  0
VERTEX
  5
333
  8
Layer_0
  10
23.225599
  20
9.7857971
  0
VERTEX
  5
334
  8
Layer_0
  10
23.337299
  20
9.7681122
  0
VERTEX
  5
335
  8
Layer_0
  10
23.447599
  20
9.7434387
  0
VERTEX
  5
336
  8
Layer_0
  10
23.5562
  20
9.7118988
  0
VERTEX
  5
337
  8
Layer_0
  10
23.6626
  20
9.673584
  0
VERTEX
  5
338
  8
Layer_0
  10
23.766399
  20
9.6286774
  0
VERTEX
  5
339
  8
Layer_0
  10
23.867201
  20
9.5773468
  0
VERTEX
  5
33a
  8
Layer_0
  10
23.9645
  20
9.519783
  0
VERTEX
  5
33b
  8
Layer_0
  10
24.058001
  20
9.4562225
  0
VERTEX
  5
33c
  8
Layer_0
  10
24.1474
  20
9.3869171
  0
VERTEX
  5
33d
  8
Layer_0
  10
24.232201
  20
9.3121338
  0
VERTEX
  5
33e
  8
Layer_0
  10
24.312099
  20
9.2321777
  0
VERTEX
  5
33f
  8
Layer_0
  10
24.3869
  20
9.1473465
  0
VERTEX
  5
340
  8
Layer_0
  10
24.4562
  20
9.0579987
  0
VERTEX
  5
341
  8
Layer_0
  10
24.5198
  20
8.9644775
  0
VERTEX
  5
342
  8
Layer_0
  10
24.577299
  20
8.8671417
  0
VERTEX
  5
343
  8
Layer_0
  10
24.6287
  20
8.7663879
  0
VERTEX
  5
344
  8
Layer_0
  10
24.673599
  20
8.6626129
  0
VERTEX
  5
345
  8
Layer_0
  10
24.711901
  20
8.5562286
  0
VERTEX
  5
346
  8
Layer_0
  10
24.743401
  20
8.4476318
  0
VERTEX
  5
347
  8
Layer_0
  10
24.768101
  20
8.3372803
  0
VERTEX
  5
348
  8
Layer_0
  10
24.785801
  20
8.2255936
  0
VERTEX
  5
349
  8
Layer_0
  10
24.7964
  20
8.1130219
  0
VERTEX
  5
34a
  8
Layer_0
  10
24.799999
  20
8
  0
VERTEX
  5
34b
  8
Layer_0
  10
24.7964
  20
7.8869629
  0
VERTEX
  5
34c
  8
Layer_0
  10
24.785801
  20
7.7743988
  0
VERTEX
  5
34d
  8
Layer_0
  10
24.768101
  20
7.6626968
  0
VERTEX
  5
34e
  8
Layer_0
  10
24.743401
  20
7.5523529
  0
VERTEX
  5
34f
  8
Layer_0
  10
24.711901
  20
7.4437561
  0
VERTEX
  5
350
  8
Layer_0
  10
24.673599
  20
7.3373718
  0
VERTEX
  5
351
  8
Layer_0
  10
24.6287
  20
7.2335968
  0
VERTEX
  5
352
  8
Layer_0
  10
24.577299
  20
7.132843
  0
VERTEX
  5
353
  8
Layer_0
  10
24.5198
  20
7.0355072
  0
VERTEX
  5
354
  8
Layer_0
  10
24.4562
  20
6.9419861
  0
VERTEX
  5
355
  8
Layer_0
  10
24.3869
  20
6.8526306
  0
VERTEX
  5
356
  8
Layer_0
  10
24.312099
  20
6.767807
  0
VERTEX
  5
357
  8
Layer_0
  10
24.232201
  20
6.687851
  0
VERTEX
  5
358
  8
Layer_0
  10
24.1474
  20
6.6130676
  0
VERTEX
  5
359
  8
Layer_0
  10
24.058001
  20
6.5437622
  0
VERTEX
  5
35a
  8
Layer_0
  10
23.9645
  20
6.4802094
  0
VERTEX
  5
35b
  8
Layer_0
  10
23.867201
  20
6.4226379
  0
VERTEX
  5
35c
  8
Layer_0
  10
23.766399
  20
6.3713074
  0
VERTEX
  5
35d
  8
Layer_0
  10
23.6626
  20
6.3264008
  0
VERTEX
  5
35e
  8
Layer_0
  10
23.5562
  20
6.2880936
  0
VERTEX
  5
35f
  8
Layer_0
  10
23.447599
  20
6.256546
  0
VERTEX
  5
360
  8
Layer_0
  10
23.337299
  20
6.2318726
  0
VERTEX
  5
361
  8
Layer_0
  10
23.225599
  20
6.2141876
  0
VERTEX
  5
362
  8
Layer_0
  10
23.113001
  20
6.203537
  0
VERTEX
  5
363
  8
Layer_0
  10
23
  20
6.1999969
  0
VERTEX
  5
364
  8
Layer_0
  10
22.886999
  20
6.203537
  0
SEQEND
  0
POLYLINE
  5
366
  8
Layer_0
  62
1
  66
1
  10
0
  20
0
  30
0
  0
VERTEX
  5
366
  8
Layer_0
  10
146.88699
  20
6.203537
  0
VERTEX
  5
367
  8
Layer_0
  10
146.774
  20
6.2141876
  0
VERTEX
  5
368
  8
Layer_0
  10
146.66299
  20
6.2318726
  0
VERTEX
  5
369
  8
Layer_0
  10
146.552
  20
6.256546
  0
VERTEX
  5
36a
  8
Layer_0
  10
146.444
  20
6.2880936
  0
VERTEX
  5
36b
  8
Layer_0
  10
146.33701
  20
6.3264008
  0
VERTEX
  5
36c
  8
Layer_0
  10
146.23399
  20
6.3713074
  0
VERTEX
  5
36d
  8
Layer_0
  10
146.133
  20
6.4226379
  0
VERTEX
  5
36e
  8
Layer_0
  10
146.036
  20
6.4802094
  0
VERTEX
  5
36f
  8
Layer_0
  10
145.942
  20
6.5437622
  0
VERTEX
  5
370
  8
Layer_0
  10
145.853
  20
6.6130676
  0
VERTEX
  5
371
  8
Layer_0
  10
145.76801
  20
6.687851
  0
VERTEX
  5
372
  8
Layer_0
  10
145.688
  20
6.767807
  0
VERTEX
  5
373
  8
Layer_0
  10
145.61301
  20
6.8526306
  0
VERTEX
  5
374
  8
Layer_0
  10
145.54401
  20
6.9419861
  0
VERTEX
  5
375
  8
Layer_0
  10
145.48
  20
7.0355072
  0
VERTEX
  5
376
  8
Layer_0
  10
145.423
  20
7.132843
  0
VERTEX
  5
377
  8
Layer_0
  10
145.371
  20
7.2335968
  0
VERTEX
  5
378
  8
Layer_0
  10
145.326
  20
7.3373718
  0
VERTEX
  5
379
  8
Layer_0
  10
145.28799
  20
7.4437561
  0
VERTEX
  5
37a
  8
Layer_0
  10
145.257
  20
7.5523529
  0
VERTEX
  5
37b
  8
Layer_0
  10
145.23199
  20
7.6626968
  0
VERTEX
  5
37c
  8
Layer_0
  10
145.214
  20
7.7743988
  0
VERTEX
  5
37d
  8
Layer_0
  10
145.20399
  20
7.8869629
  0
VERTEX
  5
37e
  8
Layer_0
  10
145.2
  20
8
  0
VERTEX
  5
37f
  8
Layer_0
  10
145.20399
  20
8.1130219
  0
VERTEX
  5
380
  8
Layer_0
  10
145.214
  20
8.2255936
  0
VERTEX
  5
381
  8
Layer_0
  10
145.23199
  20
8.3372803
  0
VERTEX
  5
382
  8
Layer_0
  10
145.257
  20
8.4476318
  0
VERTEX
  5
383
  8
Layer_0
  10
145.28799
  20
8.5562286
  0
VERTEX
  5
384
  8
Layer_0
  10
145.326
  20
8.6626129
  0
VERTEX
  5
385
  8
Layer_0
  10
145.371
  20
8.7663879
  0
VERTEX
  5
386
  8
Layer_0
  10
145.423
  20
8.8671417
  0
VERTEX
  5
387
  8
Layer_0
  10
145.48
  20
8.9644775
  0
VERTEX
  5
388
  8
Layer_0
  10
145.54401
  20
9.0579987
  0
VERTEX
  5
389
  8
Layer_0
  10
145.61301
  20
9.1473465
  0
VERTEX
  5
38a
  8
Layer_0
  10
145.688
  20
9.2321777
  0
VERTEX
  5
38b
  8
Layer_0
  10
145.76801
  20
9.3121338
  0
VERTEX
  5
38c
  8
Layer_0
  10
145.853
  20
9.3869171
  0
VERTEX
  5
38d
  8
Layer_0
  10
145.942
  20
9.4562225
  0
VERTEX
  5
38e
  8
Layer_0
  10
146.036
  20
9.519783
  0
VERTEX
  5
38f
  8
Layer_0
  10
146.133
  20
9.5773468
  0
VERTEX
  5
390
  8
Layer_0
  10
146.23399
  20
9.6286774
  0
VERTEX
  5
391
  8
Layer_0
  10
146.33701
  20
9.673584
  0
VERTEX
  5
392
  8
Layer_0
  10
146.444
  20
9.7118988
  0
VERTEX
  5
393
  8
Layer_0
  10
146.552
  20
9.7434387
  0
VERTEX
  5
394
  8
Layer_0
  10
146.66299
  20
9.7681122
  0
VERTEX
  5
395
  8
Layer_0
  10
146.774
  20
9.7857971
  0
VERTEX
  5
396
  8
Layer_0
  10
146.88699
  20
9.7964478
  0
VERTEX
  5
397
  8
Layer_0
  10
147
  20
9.7999878
  0
VERTEX
  5
398
  8
Layer_0
  10
147.11301
  20
9.7964478
  0
VERTEX
  5
399
  8
Layer_0
  10
147.226
  20
9.7857971
  0
VERTEX
  5
39a
  8
Layer_0
  10
147.33701
  20
9.7681122
  0
VERTEX
  5
39b
  8
Layer_0
  10
147.448
  20
9.7434387
  0
VERTEX
  5
39c
  8
Layer_0
  10
147.556
  20
9.7118988
  0
VERTEX
  5
39d
  8
Layer_0
  10
147.66299
  20
9.673584
  0
VERTEX
  5
39e
  8
Layer_0
  10
147.76601
  20
9.6286774
  0
VERTEX
  5
39f
  8
Layer_0
  10
147.867
  20
9.5773468
  0
VERTEX
  5
3a0
  8
Layer_0
  10
147.964
  20
9.519783
  0
VERTEX
  5
3a1
  8
Layer_0
  10
148.058
  20
9.4562225
  0
VERTEX
  5
3a2
  8
Layer_0
  10
148.147
  20
9.3869171
  0
VERTEX
  5
3a3
  8
Layer_0
  10
148.23199
  20
9.3121338
  0
VERTEX
  5
3a4
  8
Layer_0
  10
148.312
  20
9.2321777
  0
VERTEX
  5
3a5
  8
Layer_0
  10
148.38699
  20
9.1473465
  0
VERTEX
  5
3a6
  8
Layer_0
  10
148.45599
  20
9.0579987
  0
VERTEX
  5
3a7
  8
Layer_0
  10
148.52
  20
8.9644775
  0
VERTEX
  5
3a8
  8
Layer_0
  10
148.577
  20
8.8671417
  0
VERTEX
  5
3a9
  8
Layer_0
  10
148.629
  20
8.7663879
  0
VERTEX
  5
3aa
  8
Layer_0
  10
148.674
  20
8.6626129
  0
VERTEX
  5
3ab
  8
Layer_0
  10
148.71201
  20
8.5562286
  0
VERTEX
  5
3ac
  8
Layer_0
  10
148.743
  20
8.4476318
  0
VERTEX
  5
3ad
  8
Layer_0
  10
148.76801
  20
8.3372803
  0
VERTEX
  5
3ae
  8
Layer_0
  10
148.786
  20
8.2255936
  0
VERTEX
  5
3af
  8
Layer_0
  10
148.79601
  20
8.1130219
  0
VERTEX
  5
3b0
  8
Layer_0
  10
148.8
  20
8
  0
VERTEX
  5
3b1
  8
Layer_0
  10
148.79601
  20
7.8869629
  0
VERTEX
  5
3b2
  8
Layer_0
  10
148.786
  20
7.7743988
  0
VERTEX
  5
3b3
  8
Layer_0
  10
148.76801
  20
7.6626968
  0
VERTEX
  5
3b4
  8
Layer_0
  10
148.743
  20
7.5523529
  0
VERTEX
  5
3b5
  8
Layer_0
  10
148.71201
  20
7.4437561
  0
VERTEX
  5
3b6
  8
Layer_0
  10
148.674
  20
7.3373718
  0
VERTEX
  5
3b7
  8
Layer_0
  10
148.629
  20
7.2335968
  0
VERTEX
  5
3b8
  8
Layer_0
  10
148.577
  20
7.132843
  0
VERTEX
  5
3b9
  8
Layer_0
  10
148.52
  20
7.0355072
  0
VERTEX
  5
3ba
  8
Layer_0
  10
148.45599
  20
6.9419861
  0
VERTEX
  5
3bb
  8
Layer_0
  10
148.38699
  20
6.8526306
  0
VERTEX
  5
3bc
  8
Layer_0
  10
148.312
  20
6.767807
  0
VERTEX
  5
3bd
  8
Layer_0
  10
148.23199
  20
6.687851
  0
VERTEX
  5
3be
  8
Layer_0
  10
148.147
  20
6.6130676
  0
VERTEX
  5
3bf
  8
Layer_0
  10
148.058
  20
6.5437622
  0
VERTEX
  5
3c0
  8
Layer_0
  10
147.964
  20
6.4802094
  0
VERTEX
  5
3c1
  8
Layer_0
  10
147.867
  20
6.4226379
  0
VERTEX
  5
3c2
  8
Layer_0
  10
147.76601
  20
6.3713074
  0
VERTEX
  5
3c3
  8
Layer_0
  10
147.66299
  20
6.3264008
  0
VERTEX
  5
3c4
  8
Layer_0
  10
147.556
  20
6.2880936
  0
VERTEX
  5
3c5
  8
Layer_0
  10
147.448
  20
6.256546
  0
VERTEX
  5
3c6
  8
Layer_0
  10
147.33701
  20
6.2318726
  0
VERTEX
  5
3c7
  8
Layer_0
  10
147.226
  20
6.2141876
  0
VERTEX
  5
3c8
  8
Layer_0
  10
147.11301
  20
6.203537
  0
VERTEX
  5
3c9
  8
Layer_0
  10
147
  20
6.1999969
  0
VERTEX
  5
3ca
  8
Layer_0
  10
146.88699
  20
6.203537
  0
SEQEND
  0
ENDSEC
  0
EOF
