  0
SECTION
  2
HEADER
  9
$ACADVER
  1
AC1009
  0
ENDSEC
  0
SECTION
  2
ENTITIES
  0
POLYLINE
  5
90
  8
Layer_1
  62
1
  66
1
  10
0
  20
0
  30
0
  0
VERTEX
  5
90
  8
Layer_1
  10
80
  20
-0.00350189
  0
VERTEX
  5
91
  8
Layer_1
  10
80
  20
57.28706
  0
VERTEX
  5
92
  8
Layer_1
  10
79.975644
  20
58.084736
  0
VERTEX
  5
93
  8
Layer_1
  10
79.902592
  20
58.877613
  0
VERTEX
  5
94
  8
Layer_1
  10
79.781478
  20
59.665102
  0
VERTEX
  5
95
  8
Layer_1
  10
79.612933
  20
60.446616
  0
VERTEX
  5
96
  8
Layer_1
  10
79.397593
  20
61.221566
  0
VERTEX
  5
97
  8
Layer_1
  10
79.136089
  20
61.989366
  0
VERTEX
  5
98
  8
Layer_1
  10
78.829055
  20
62.749427
  0
VERTEX
  5
99
  8
Layer_1
  10
78.477124
  20
63.501161
  0
VERTEX
  5
9a
  8
Layer_1
  10
78.08093
  20
64.243982
  0
VERTEX
  5
9b
  8
Layer_1
  10
77.641105
  20
64.9773
  0
VERTEX
  5
9c
  8
Layer_1
  10
77.158283
  20
65.700528
  0
VERTEX
  5
9d
  8
Layer_1
  10
76.633096
  20
66.413078
  0
VERTEX
  5
9e
  8
Layer_1
  10
76.066179
  20
67.114364
  0
VERTEX
  5
9f
  8
Layer_1
  10
75.458164
  20
67.803795
  0
VERTEX
  5
a0
  8
Layer_1
  10
74.809684
  20
68.480786
  0
VERTEX
  5
a1
  8
Layer_1
  10
74.121373
  20
69.144749
  0
VERTEX
  5
a2
  8
Layer_1
  10
73.393864
  20
69.795094
  0
VERTEX
  5
a3
  8
Layer_1
  10
72.627789
  20
70.431236
  0
VERTEX
  5
a4
  8
Layer_1
  10
71.823783
  20
71.052585
  0
VERTEX
  5
a5
  8
Layer_1
  10
70.982478
  20
71.658555
  0
VERTEX
  5
a6
  8
Layer_1
  10
70.104508
  20
72.248556
  0
VERTEX
  5
a7
  8
Layer_1
  10
69.190505
  20
72.822003
  0
VERTEX
  5
a8
  8
Layer_1
  10
68.241103
  20
73.378306
  0
VERTEX
  5
a9
  8
Layer_1
  10
67.256935
  20
73.916878
  0
VERTEX
  5
aa
  8
Layer_1
  10
66.238635
  20
74.437132
  0
VERTEX
  5
ab
  8
Layer_1
  10
65.186835
  20
74.938478
  0
VERTEX
  5
ac
  8
Layer_1
  10
64.102168
  20
75.420331
  0
VERTEX
  5
ad
  8
Layer_1
  10
62.985268
  20
75.882101
  0
VERTEX
  5
ae
  8
Layer_1
  10
61.836768
  20
76.323202
  0
VERTEX
  5
af
  8
Layer_1
  10
60.657302
  20
76.743045
  0
VERTEX
  5
b0
  8
Layer_1
  10
59.447501
  20
77.141042
  0
VERTEX
  5
b1
  8
Layer_1
  10
58.208
  20
77.516607
  0
VERTEX
  5
b2
  8
Layer_1
  10
56.897716
  20
77.879946
  0
VERTEX
  5
b3
  8
Layer_1
  10
55.572029
  20
78.214342
  0
VERTEX
  5
b4
  8
Layer_1
  10
54.232285
  20
78.519868
  0
VERTEX
  5
b5
  8
Layer_1
  10
52.879826
  20
78.796599
  0
VERTEX
  5
b6
  8
Layer_1
  10
51.515996
  20
79.044607
  0
VERTEX
  5
b7
  8
Layer_1
  10
50.14214
  20
79.263968
  0
VERTEX
  5
b8
  8
Layer_1
  10
48.759599
  20
79.454755
  0
VERTEX
  5
b9
  8
Layer_1
  10
47.369719
  20
79.617041
  0
VERTEX
  5
ba
  8
Layer_1
  10
45.973842
  20
79.750902
  0
VERTEX
  5
bb
  8
Layer_1
  10
44.573313
  20
79.856411
  0
VERTEX
  5
bc
  8
Layer_1
  10
43.169474
  20
79.933642
  0
VERTEX
  5
bd
  8
Layer_1
  10
41.76367
  20
79.98267
  0
VERTEX
  5
be
  8
Layer_1
  10
40.357244
  20
80.003567
  0
VERTEX
  5
bf
  8
Layer_1
  10
38.95154
  20
79.996408
  0
VERTEX
  5
c0
  8
Layer_1
  10
37.547901
  20
79.961267
  0
VERTEX
  5
c1
  8
Layer_1
  10
36.147671
  20
79.898218
  0
VERTEX
  5
c2
  8
Layer_1
  10
34.752194
  20
79.807334
  0
VERTEX
  5
c3
  8
Layer_1
  10
33.362813
  20
79.688691
  0
VERTEX
  5
c4
  8
Layer_1
  10
31.980871
  20
79.542362
  0
VERTEX
  5
c5
  8
Layer_1
  10
30.607713
  20
79.36842
  0
VERTEX
  5
c6
  8
Layer_1
  10
29.244682
  20
79.166941
  0
VERTEX
  5
c7
  8
Layer_1
  10
27.893122
  20
78.937997
  0
VERTEX
  5
c8
  8
Layer_1
  10
26.554376
  20
78.681663
  0
VERTEX
  5
c9
  8
Layer_1
  10
25.229788
  20
78.398012
  0
VERTEX
  5
ca
  8
Layer_1
  10
23.920701
  20
78.08712
  0
VERTEX
  5
cb
  8
Layer_1
  10
22.628459
  20
77.749059
  0
VERTEX
  5
cc
  8
Layer_1
  10
21.354407
  20
77.383904
  0
VERTEX
  5
cd
  8
Layer_1
  10
20.099886
  20
76.991728
  0
VERTEX
  5
ce
  8
Layer_1
  10
18.866242
  20
76.572607
  0
VERTEX
  5
cf
  8
Layer_1
  10
17.654817
  20
76.126612
  0
VERTEX
  5
d0
  8
Layer_1
  10
16.466955
  20
75.65382
  0
VERTEX
  5
d1
  8
Layer_1
  10
15.304
  20
75.154303
  0
VERTEX
  5
d2
  8
Layer_1
  10
14.409174
  20
74.744432
  0
VERTEX
  5
d3
  8
Layer_1
  10
13.538237
  20
74.321495
  0
VERTEX
  5
d4
  8
Layer_1
  10
12.691488
  20
73.88584
  0
VERTEX
  5
d5
  8
Layer_1
  10
11.869225
  20
73.437815
  0
VERTEX
  5
d6
  8
Layer_1
  10
11.071747
  20
72.977771
  0
VERTEX
  5
d7
  8
Layer_1
  10
10.299353
  20
72.506054
  0
VERTEX
  5
d8
  8
Layer_1
  10
9.5523415
  20
72.023015
  0
VERTEX
  5
d9
  8
Layer_1
  10
8.8310108
  20
71.529001
  0
VERTEX
  5
da
  8
Layer_1
  10
8.1356598
  20
71.024362
  0
VERTEX
  5
db
  8
Layer_1
  10
7.4665873
  20
70.509446
  0
VERTEX
  5
dc
  8
Layer_1
  10
6.824092
  20
69.984602
  0
VERTEX
  5
dd
  8
Layer_1
  10
6.2084725
  20
69.450179
  0
VERTEX
  5
de
  8
Layer_1
  10
5.6200276
  20
68.906525
  0
VERTEX
  5
df
  8
Layer_1
  10
5.0590559
  20
68.353989
  0
VERTEX
  5
e0
  8
Layer_1
  10
4.5258562
  20
67.79292
  0
VERTEX
  5
e1
  8
Layer_1
  10
4.020727
  20
67.223666
  0
VERTEX
  5
e2
  8
Layer_1
  10
3.5439672
  20
66.646576
  0
VERTEX
  5
e3
  8
Layer_1
  10
3.0958754
  20
66.061999
  0
VERTEX
  5
e4
  8
Layer_1
  10
2.6767503
  20
65.470284
  0
VERTEX
  5
e5
  8
Layer_1
  10
2.2868906
  20
64.87178
  0
VERTEX
  5
e6
  8
Layer_1
  10
1.9265951
  20
64.266834
  0
VERTEX
  5
e7
  8
Layer_1
  10
1.5961622
  20
63.655796
  0
VERTEX
  5
e8
  8
Layer_1
  10
1.2958909
  20
63.039014
  0
VERTEX
  5
e9
  8
Layer_1
  10
1.0260798
  20
62.416838
  0
VERTEX
  5
ea
  8
Layer_1
  10
0.78702747
  20
61.789615
  0
VERTEX
  5
eb
  8
Layer_1
  10
0.57903274
  20
61.157696
  0
VERTEX
  5
ec
  8
Layer_1
  10
0.40239427
  20
60.521427
  0
VERTEX
  5
ed
  8
Layer_1
  10
0.25741075
  20
59.881159
  0
VERTEX
  5
ee
  8
Layer_1
  10
0.14438086
  20
59.237239
  0
VERTEX
  5
ef
  8
Layer_1
  10
0.063603317
  20
58.590017
  0
VERTEX
  5
f0
  8
Layer_1
  10
0.015376798
  20
57.939841
  0
VERTEX
  5
f1
  8
Layer_1
  10
0
  20
57.287059
  0
VERTEX
  5
f2
  8
Layer_1
  10
0
  20
-0.00350189
  0
VERTEX
  5
f3
  8
Layer_1
  10
80
  20
-0.00350189
  0
SEQEND
  0
CIRCLE
  5
f5
  8
Layer_1
  62
1
  10
5
  20
5
  30
0
  40
1.7
  0
CIRCLE
  5
f5
  8
Layer_1
  62
1
  10
75
  20
5
  30
0
  40
1.7
  0
CIRCLE
  5
f5
  8
Layer_1
  62
1
  10
40
  20
75
  30
0
  40
1.7
  0
POLYLINE
  5
f5
  8
Layer_0
  62
0
  66
1
  10
0
  20
0
  30
0
  0
VERTEX
  5
f5
  8
Layer_0
  10
34.107185
  20
12.243999
  42
0.13041389
  0
VERTEX
  5
f6
  8
Layer_0
  10
35.352058
  20
12.739849
  42
0.17375665
  0
VERTEX
  5
f7
  8
Layer_0
  10
36.248055
  20
14.218121
  42
0.16525803
  0
VERTEX
  5
f8
  8
Layer_0
  10
36.017342
  20
16.43272
  42
0.29207623
  0
VERTEX
  5
f9
  8
Layer_0
  10
33.766853
  20
17.778667
  42
0.39405171
  0
VERTEX
  5
fa
  8
Layer_0
  10
31.240974
  20
15.561626
  42
0.18882387
  0
VERTEX
  5
fb
  8
Layer_0
  10
31.675545
  20
13.289165
  42
0.25322992
  0
VERTEX
  5
fc
  8
Layer_0
  10
33.763191
  20
12.223248
  0
VERTEX
  5
fd
  8
Layer_0
  10
34.107185
  20
12.243999
  0
SEQEND
  0
POLYLINE
  5
ff
  8
Layer_0
  62
0
  66
1
  10
0
  20
0
  30
0
  0
VERTEX
  5
ff
  8
Layer_0
  10
46.182137
  20
12.243999
  42
0.29534552
  0
VERTEX
  5
100
  8
Layer_0
  10
48.219978
  20
13.863628
  42
0.22612349
  0
VERTEX
  5
101
  8
Layer_0
  10
47.917976
  20
16.733013
  42
0.25061651
  0
VERTEX
  5
102
  8
Layer_0
  10
45.842049
  20
17.778667
  42
0.39405797
  0
VERTEX
  5
103
  8
Layer_0
  10
43.315926
  20
15.561626
  42
0.18874573
  0
VERTEX
  5
104
  8
Layer_0
  10
43.75074
  20
13.289165
  42
0.25331553
  0
VERTEX
  5
105
  8
Layer_0
  10
45.838387
  20
12.223248
  0
VERTEX
  5
106
  8
Layer_0
  10
46.182137
  20
12.243999
  0
SEQEND
  0
POLYLINE
  5
108
  8
Layer_0
  62
0
  66
1
  10
0
  20
0
  30
0
  0
VERTEX
  5
108
  8
Layer_0
  10
13.414558
  20
12.236431
  0
VERTEX
  5
109
  8
Layer_0
  10
13.680428
  20
12.275982
  42
0.20232672
  0
VERTEX
  5
10a
  8
Layer_0
  10
14.873787
  20
13.023296
  42
0.39230964
  0
VERTEX
  5
10b
  8
Layer_0
  10
14.611092
  20
14.897076
  42
0.10514881
  0
VERTEX
  5
10c
  8
Layer_0
  10
13.414314
  20
15.389507
  42
0.0045856099
  0
VERTEX
  5
10d
  8
Layer_0
  10
12.80909
  20
15.533306
  0
VERTEX
  5
10e
  8
Layer_0
  10
12.623543
  20
15.581646
  42
-0.099219526
  0
VERTEX
  5
10f
  8
Layer_0
  10
11.944099
  20
15.867046
  42
-0.34219184
  0
VERTEX
  5
110
  8
Layer_0
  10
11.80909
  20
16.652203
  42
-0.2194708
  0
VERTEX
  5
111
  8
Layer_0
  10
12.412361
  20
17.089703
  42
-0.16059537
  0
VERTEX
  5
112
  8
Layer_0
  10
13.728035
  20
17.002544
  42
-0.26410105
  0
VERTEX
  5
113
  8
Layer_0
  10
14.276863
  20
16.119732
  0
VERTEX
  5
114
  8
Layer_0
  10
14.958015
  20
16.171001
  42
0.34282103
  0
VERTEX
  5
115
  8
Layer_0
  10
13.756355
  20
17.666851
  42
0.19108525
  0
VERTEX
  5
116
  8
Layer_0
  10
11.746834
  20
17.489605
  42
0.38056314
  0
VERTEX
  5
117
  8
Layer_0
  10
11.156746
  20
15.780865
  42
0.21754087
  0
VERTEX
  5
118
  8
Layer_0
  10
12.219734
  20
14.964703
  42
0.010109999
  0
VERTEX
  5
119
  8
Layer_0
  10
13.457527
  20
14.638042
  0
VERTEX
  5
11a
  8
Layer_0
  10
13.663826
  20
14.578228
  42
-0.19671244
  0
VERTEX
  5
11b
  8
Layer_0
  10
14.352058
  20
14.115337
  42
-0.37604218
  0
VERTEX
  5
11c
  8
Layer_0
  10
14.090584
  20
13.124615
  42
-0.31904227
  0
VERTEX
  5
11d
  8
Layer_0
  10
11.836189
  20
13.314312
  42
-0.15881024
  0
VERTEX
  5
11e
  8
Layer_0
  10
11.515633
  20
14.098248
  0
VERTEX
  5
11f
  8
Layer_0
  10
10.845467
  20
14.039654
  42
0.29990757
  0
VERTEX
  5
120
  8
Layer_0
  10
11.913094
  20
12.43565
  42
0.11471254
  0
VERTEX
  5
121
  8
Layer_0
  10
13.414558
  20
12.236431
  0
SEQEND
  0
POLYLINE
  5
123
  8
Layer_0
  62
0
  66
1
  10
0
  20
0
  30
0
  0
VERTEX
  5
123
  8
Layer_0
  10
20.133308
  20
12.948345
  0
VERTEX
  5
124
  8
Layer_0
  10
16.83741
  20
12.948345
  0
VERTEX
  5
125
  8
Layer_0
  10
16.83741
  20
14.775738
  0
VERTEX
  5
126
  8
Layer_0
  10
19.807381
  20
14.775738
  0
VERTEX
  5
127
  8
Layer_0
  10
19.807381
  20
15.405621
  0
VERTEX
  5
128
  8
Layer_0
  10
16.83741
  20
15.405621
  0
VERTEX
  5
129
  8
Layer_0
  10
16.83741
  20
17.049908
  0
VERTEX
  5
12a
  8
Layer_0
  10
20.008797
  20
17.049908
  0
VERTEX
  5
12b
  8
Layer_0
  10
20.008797
  20
17.683453
  0
VERTEX
  5
12c
  8
Layer_0
  10
16.126961
  20
17.683453
  0
VERTEX
  5
12d
  8
Layer_0
  10
16.126961
  20
12.3148
  0
VERTEX
  5
12e
  8
Layer_0
  10
20.133308
  20
12.3148
  0
VERTEX
  5
12f
  8
Layer_0
  10
20.133308
  20
12.948345
  0
SEQEND
  0
POLYLINE
  5
131
  8
Layer_0
  62
0
  66
1
  10
0
  20
0
  30
0
  0
VERTEX
  5
131
  8
Layer_0
  10
21.85865
  20
14.698833
  0
VERTEX
  5
132
  8
Layer_0
  10
22.682625
  20
14.698833
  42
-0.28357298
  0
VERTEX
  5
133
  8
Layer_0
  10
23.762947
  20
14.17149
  42
-0.021847286
  0
VERTEX
  5
134
  8
Layer_0
  10
24.275642
  20
13.431744
  0
VERTEX
  5
135
  8
Layer_0
  10
24.986092
  20
12.3148
  0
VERTEX
  5
136
  8
Layer_0
  10
25.879646
  20
12.3148
  0
VERTEX
  5
137
  8
Layer_0
  10
24.945808
  20
13.775982
  42
0.10343576
  0
VERTEX
  5
138
  8
Layer_0
  10
24.175789
  20
14.622906
  42
0.026670326
  0
VERTEX
  5
139
  8
Layer_0
  10
23.927742
  20
14.757427
  0
VERTEX
  5
13a
  8
Layer_0
  10
24.288826
  20
14.828472
  42
0.19745149
  0
VERTEX
  5
13b
  8
Layer_0
  10
25.232185
  20
15.462505
  42
0.3982195
  0
VERTEX
  5
13c
  8
Layer_0
  10
24.797371
  20
17.45274
  42
0.12336926
  0
VERTEX
  5
13d
  8
Layer_0
  10
23.528572
  20
17.683453
  0
VERTEX
  5
13e
  8
Layer_0
  10
21.148201
  20
17.683453
  0
VERTEX
  5
13f
  8
Layer_0
  10
21.148201
  20
12.3148
  0
VERTEX
  5
140
  8
Layer_0
  10
21.85865
  20
12.3148
  0
VERTEX
  5
141
  8
Layer_0
  10
21.85865
  20
14.698833
  0
SEQEND
  0
POLYLINE
  5
143
  8
Layer_0
  62
0
  66
1
  10
0
  20
0
  30
0
  0
VERTEX
  5
143
  8
Layer_0
  10
30.752449
  20
17.683453
  0
VERTEX
  5
144
  8
Layer_0
  10
30.027351
  20
17.683453
  0
VERTEX
  5
145
  8
Layer_0
  10
28.577156
  20
13.783306
  42
0.020802564
  0
VERTEX
  5
146
  8
Layer_0
  10
28.287849
  20
12.9044
  0
VERTEX
  5
147
  8
Layer_0
  10
28.160652
  20
13.329205
  0
VERTEX
  5
148
  8
Layer_0
  10
28.005867
  20
13.783306
  0
VERTEX
  5
149
  8
Layer_0
  10
26.610603
  20
17.683453
  0
VERTEX
  5
14a
  8
Layer_0
  10
25.84156
  20
17.683453
  0
VERTEX
  5
14b
  8
Layer_0
  10
27.921638
  20
12.3148
  0
VERTEX
  5
14c
  8
Layer_0
  10
28.650398
  20
12.3148
  0
VERTEX
  5
14d
  8
Layer_0
  10
30.752449
  20
17.683453
  0
SEQEND
  0
POLYLINE
  5
14f
  8
Layer_0
  62
0
  66
1
  10
0
  20
0
  30
0
  0
VERTEX
  5
14f
  8
Layer_0
  10
37.925056
  20
16.885113
  0
VERTEX
  5
150
  8
Layer_0
  10
39.477791
  20
12.3148
  0
VERTEX
  5
151
  8
Layer_0
  10
40.11866
  20
12.3148
  0
VERTEX
  5
152
  8
Layer_0
  10
41.678719
  20
16.808208
  0
VERTEX
  5
153
  8
Layer_0
  10
41.678719
  20
12.3148
  0
VERTEX
  5
154
  8
Layer_0
  10
42.363533
  20
12.3148
  0
VERTEX
  5
155
  8
Layer_0
  10
42.363533
  20
17.683453
  0
VERTEX
  5
156
  8
Layer_0
  10
41.407722
  20
17.683453
  42
0.0053938178
  0
VERTEX
  5
157
  8
Layer_0
  10
39.888924
  20
13.25108
  0
VERTEX
  5
158
  8
Layer_0
  10
39.836678
  20
13.087505
  0
VERTEX
  5
159
  8
Layer_0
  10
39.732185
  20
13.418072
  42
0.0031983196
  0
VERTEX
  5
15a
  8
Layer_0
  10
38.309578
  20
17.683453
  0
VERTEX
  5
15b
  8
Layer_0
  10
37.240242
  20
17.683453
  0
VERTEX
  5
15c
  8
Layer_0
  10
37.240242
  20
12.3148
  0
VERTEX
  5
15d
  8
Layer_0
  10
37.925056
  20
12.3148
  0
VERTEX
  5
15e
  8
Layer_0
  10
37.925056
  20
16.885113
  0
SEQEND
  0
POLYLINE
  5
160
  8
Layer_0
  62
0
  66
1
  10
0
  20
0
  30
0
  0
VERTEX
  5
160
  8
Layer_0
  10
51.413582
  20
17.049908
  0
VERTEX
  5
161
  8
Layer_0
  10
53.189705
  20
17.049908
  0
VERTEX
  5
162
  8
Layer_0
  10
53.189705
  20
17.683453
  0
VERTEX
  5
163
  8
Layer_0
  10
48.934334
  20
17.683453
  0
VERTEX
  5
164
  8
Layer_0
  10
48.934334
  20
17.049908
  0
VERTEX
  5
165
  8
Layer_0
  10
50.703133
  20
17.049908
  0
VERTEX
  5
166
  8
Layer_0
  10
50.703133
  20
12.3148
  0
VERTEX
  5
167
  8
Layer_0
  10
51.413582
  20
12.3148
  0
VERTEX
  5
168
  8
Layer_0
  10
51.413582
  20
17.049908
  0
SEQEND
  0
POLYLINE
  5
16a
  8
Layer_0
  62
0
  66
1
  10
0
  20
0
  30
0
  0
VERTEX
  5
16a
  8
Layer_0
  10
58.008308
  20
12.948345
  0
VERTEX
  5
16b
  8
Layer_0
  10
54.71241
  20
12.948345
  0
VERTEX
  5
16c
  8
Layer_0
  10
54.71241
  20
14.775738
  0
VERTEX
  5
16d
  8
Layer_0
  10
57.682381
  20
14.775738
  0
VERTEX
  5
16e
  8
Layer_0
  10
57.682381
  20
15.405621
  0
VERTEX
  5
16f
  8
Layer_0
  10
54.71241
  20
15.405621
  0
VERTEX
  5
170
  8
Layer_0
  10
54.71241
  20
17.049908
  0
VERTEX
  5
171
  8
Layer_0
  10
57.883797
  20
17.049908
  0
VERTEX
  5
172
  8
Layer_0
  10
57.883797
  20
17.683453
  0
VERTEX
  5
173
  8
Layer_0
  10
54.001961
  20
17.683453
  0
VERTEX
  5
174
  8
Layer_0
  10
54.001961
  20
12.3148
  0
VERTEX
  5
175
  8
Layer_0
  10
58.008308
  20
12.3148
  0
VERTEX
  5
176
  8
Layer_0
  10
58.008308
  20
12.948345
  0
SEQEND
  0
POLYLINE
  5
178
  8
Layer_0
  62
0
  66
1
  10
0
  20
0
  30
0
  0
VERTEX
  5
178
  8
Layer_0
  10
61.516853
  20
12.241802
  42
0.19961337
  0
VERTEX
  5
179
  8
Layer_0
  10
62.805672
  20
12.864605
  42
0.14831657
  0
VERTEX
  5
17a
  8
Layer_0
  10
63.199959
  20
13.855572
  42
0.034833196
  0
VERTEX
  5
17b
  8
Layer_0
  10
63.245613
  20
14.581646
  0
VERTEX
  5
17c
  8
Layer_0
  10
63.245613
  20
17.683453
  0
VERTEX
  5
17d
  8
Layer_0
  10
62.535164
  20
17.683453
  0
VERTEX
  5
17e
  8
Layer_0
  10
62.535164
  20
14.585308
  42
-0.10710047
  0
VERTEX
  5
17f
  8
Layer_0
  10
62.347664
  20
13.437847
  42
-0.24182264
  0
VERTEX
  5
180
  8
Layer_0
  10
61.609383
  20
12.914165
  42
-0.17392953
  0
VERTEX
  5
181
  8
Layer_0
  10
60.310555
  20
13.04356
  42
-0.26067103
  0
VERTEX
  5
182
  8
Layer_0
  10
59.766121
  20
13.977886
  42
-0.031051778
  0
VERTEX
  5
183
  8
Layer_0
  10
59.73365
  20
14.585308
  0
VERTEX
  5
184
  8
Layer_0
  10
59.73365
  20
17.683453
  0
VERTEX
  5
185
  8
Layer_0
  10
59.023201
  20
17.683453
  0
VERTEX
  5
186
  8
Layer_0
  10
59.023201
  20
14.581646
  42
0.095582446
  0
VERTEX
  5
187
  8
Layer_0
  10
59.228279
  20
13.235699
  42
0.25757162
  0
VERTEX
  5
188
  8
Layer_0
  10
60.461433
  20
12.288189
  42
0.072938839
  0
VERTEX
  5
189
  8
Layer_0
  10
61.516853
  20
12.241802
  0
SEQEND
  0
POLYLINE
  5
18b
  8
Layer_0
  62
0
  66
1
  10
0
  20
0
  30
0
  0
VERTEX
  5
18b
  8
Layer_0
  10
65.133553
  20
14.698833
  0
VERTEX
  5
18c
  8
Layer_0
  10
65.957527
  20
14.698833
  42
-0.28373453
  0
VERTEX
  5
18d
  8
Layer_0
  10
67.037849
  20
14.17149
  42
-0.022196638
  0
VERTEX
  5
18e
  8
Layer_0
  10
67.550545
  20
13.431744
  0
VERTEX
  5
18f
  8
Layer_0
  10
68.260994
  20
12.3148
  0
VERTEX
  5
190
  8
Layer_0
  10
69.154549
  20
12.3148
  0
VERTEX
  5
191
  8
Layer_0
  10
68.220711
  20
13.775982
  42
0.10330047
  0
VERTEX
  5
192
  8
Layer_0
  10
67.450935
  20
14.622906
  42
0.026211807
  0
VERTEX
  5
193
  8
Layer_0
  10
67.202644
  20
14.757427
  0
VERTEX
  5
194
  8
Layer_0
  10
67.563972
  20
14.828472
  42
0.19758765
  0
VERTEX
  5
195
  8
Layer_0
  10
68.507088
  20
15.462505
  42
0.39842099
  0
VERTEX
  5
196
  8
Layer_0
  10
68.072273
  20
17.45274
  42
0.12341795
  0
VERTEX
  5
197
  8
Layer_0
  10
66.803474
  20
17.683453
  0
VERTEX
  5
198
  8
Layer_0
  10
64.423103
  20
17.683453
  0
VERTEX
  5
199
  8
Layer_0
  10
64.423103
  20
12.3148
  0
VERTEX
  5
19a
  8
Layer_0
  10
65.133553
  20
12.3148
  0
VERTEX
  5
19b
  8
Layer_0
  10
65.133553
  20
14.698833
  0
SEQEND
  0
POLYLINE
  5
19d
  8
Layer_0
  62
0
  66
1
  10
0
  20
0
  30
0
  0
VERTEX
  5
19d
  8
Layer_0
  10
33.566902
  20
12.839947
  42
-0.35618708
  0
VERTEX
  5
19e
  8
Layer_0
  10
31.961189
  20
14.459087
  42
-0.15393283
  0
VERTEX
  5
19f
  8
Layer_0
  10
32.234383
  20
16.346539
  42
-0.3676053
  0
VERTEX
  5
1a0
  8
Layer_0
  10
34.508308
  20
17.015728
  42
-0.22254972
  0
VERTEX
  5
1a1
  8
Layer_0
  10
35.473396
  20
15.885113
  42
-0.16490849
  0
VERTEX
  5
1a2
  8
Layer_0
  10
35.395515
  20
13.884624
  42
-0.33506182
  0
VERTEX
  5
1a3
  8
Layer_0
  10
33.566902
  20
12.839947
  0
SEQEND
  0
POLYLINE
  5
1a5
  8
Layer_0
  62
0
  66
1
  10
0
  20
0
  30
0
  0
VERTEX
  5
1a5
  8
Layer_0
  10
45.641853
  20
12.839947
  42
-0.10629897
  0
VERTEX
  5
1a6
  8
Layer_0
  10
44.954109
  20
13.049419
  42
-0.26095805
  0
VERTEX
  5
1a7
  8
Layer_0
  10
44.011726
  20
14.682476
  42
-0.11273568
  0
VERTEX
  5
1a8
  8
Layer_0
  10
44.216072
  20
16.162701
  42
-0.36831103
  0
VERTEX
  5
1a9
  8
Layer_0
  10
46.350594
  20
17.099712
  42
-0.26158803
  0
VERTEX
  5
1aa
  8
Layer_0
  10
47.548347
  20
15.885113
  42
-0.16477404
  0
VERTEX
  5
1ab
  8
Layer_0
  10
47.470711
  20
13.884624
  42
-0.33497603
  0
VERTEX
  5
1ac
  8
Layer_0
  10
45.641853
  20
12.839947
  0
SEQEND
  0
POLYLINE
  5
1ae
  8
Layer_0
  62
0
  66
1
  10
0
  20
0
  30
0
  0
VERTEX
  5
1ae
  8
Layer_0
  10
21.85865
  20
15.314068
  0
VERTEX
  5
1af
  8
Layer_0
  10
21.85865
  20
17.090191
  0
VERTEX
  5
1b0
  8
Layer_0
  10
23.557869
  20
17.090191
  42
-0.18075884
  0
VERTEX
  5
1b1
  8
Layer_0
  10
24.43116
  20
16.84483
  42
-0.36935427
  0
VERTEX
  5
1b2
  8
Layer_0
  10
24.564949
  20
15.737164
  42
-0.23149299
  0
VERTEX
  5
1b3
  8
Layer_0
  10
23.819588
  20
15.339214
  42
-0.032261665
  0
VERTEX
  5
1b4
  8
Layer_0
  10
23.38575
  20
15.314068
  0
VERTEX
  5
1b5
  8
Layer_0
  10
21.85865
  20
15.314068
  0
SEQEND
  0
POLYLINE
  5
1b7
  8
Layer_0
  62
0
  70
1
  66
1
  10
0
  20
0
  30
0
  0
VERTEX
  5
1b7
  8
Layer_0
  10
65.133553
  20
15.314068
  0
VERTEX
  5
1b8
  8
Layer_0
  10
65.133553
  20
17.090191
  0
VERTEX
  5
1b9
  8
Layer_0
  10
66.832771
  20
17.090191
  42
-0.18065144
  0
VERTEX
  5
1ba
  8
Layer_0
  10
67.706306
  20
16.84483
  42
-0.36921633
  0
VERTEX
  5
1bb
  8
Layer_0
  10
67.839851
  20
15.737164
  42
-0.23142968
  0
VERTEX
  5
1bc
  8
Layer_0
  10
67.094734
  20
15.339214
  42
-0.032276642
  0
VERTEX
  5
1bd
  8
Layer_0
  10
66.660652
  20
15.314068
  0
SEQEND
  0
POLYLINE
  5
1bf
  8
Layer_1
  62
1
  66
1
  10
0
  20
0
  30
0
  0
VERTEX
  5
1bf
  8
Layer_1
  10
60.5
  20
39.5
  0
VERTEX
  5
1c0
  8
Layer_1
  10
19.5
  20
39.5
  0
VERTEX
  5
1c1
  8
Layer_1
  10
19.5
  20
60.5
  0
VERTEX
  5
1c2
  8
Layer_1
  10
60.5
  20
60.5
  0
VERTEX
  5
1c3
  8
Layer_1
  10
60.5
  20
39.5
  0
SEQEND
  0
CIRCLE
  5
1c5
  8
Layer_1
  62
1
  10
16
  20
55
  30
0
  40
2.3
  0
CIRCLE
  5
1c5
  8
Layer_1
  62
1
  10
16
  20
45
  30
0
  40
2.3
  0
CIRCLE
  5
1c5
  8
Layer_1
  62
1
  10
64
  20
55
  30
0
  40
2.3
  0
CIRCLE
  5
1c5
  8
Layer_1
  62
1
  10
64
  20
45
  30
0
  40
2.3
  0
POLYLINE
  5
1c5
  8
Layer_1
  62
1
  66
1
  10
0
  20
0
  30
0
  0
VERTEX
  5
1c5
  8
Layer_1
  10
165
  20
-0.0035324099
  0
VERTEX
  5
1c6
  8
Layer_1
  10
165
  20
57.287029
  0
VERTEX
  5
1c7
  8
Layer_1
  10
164.97564
  20
58.084706
  0
VERTEX
  5
1c8
  8
Layer_1
  10
164.90259
  20
58.877582
  0
VERTEX
  5
1c9
  8
Layer_1
  10
164.78148
  20
59.665072
  0
VERTEX
  5
1ca
  8
Layer_1
  10
164.61293
  20
60.446585
  0
VERTEX
  5
1cb
  8
Layer_1
  10
164.39759
  20
61.221536
  0
VERTEX
  5
1cc
  8
Layer_1
  10
164.13609
  20
61.989336
  0
VERTEX
  5
1cd
  8
Layer_1
  10
163.82906
  20
62.749397
  0
VERTEX
  5
1ce
  8
Layer_1
  10
163.47712
  20
63.501131
  0
VERTEX
  5
1cf
  8
Layer_1
  10
163.08093
  20
64.243951
  0
VERTEX
  5
1d0
  8
Layer_1
  10
162.6411
  20
64.977269
  0
VERTEX
  5
1d1
  8
Layer_1
  10
162.15828
  20
65.700497
  0
VERTEX
  5
1d2
  8
Layer_1
  10
161.6331
  20
66.413048
  0
VERTEX
  5
1d3
  8
Layer_1
  10
161.06618
  20
67.114333
  0
VERTEX
  5
1d4
  8
Layer_1
  10
160.45816
  20
67.803765
  0
VERTEX
  5
1d5
  8
Layer_1
  10
159.80968
  20
68.480756
  0
VERTEX
  5
1d6
  8
Layer_1
  10
159.12137
  20
69.144718
  0
VERTEX
  5
1d7
  8
Layer_1
  10
158.39386
  20
69.795064
  0
VERTEX
  5
1d8
  8
Layer_1
  10
157.62779
  20
70.431205
  0
VERTEX
  5
1d9
  8
Layer_1
  10
156.82378
  20
71.052555
  0
VERTEX
  5
1da
  8
Layer_1
  10
155.98248
  20
71.658524
  0
VERTEX
  5
1db
  8
Layer_1
  10
155.10451
  20
72.248526
  0
VERTEX
  5
1dc
  8
Layer_1
  10
154.19051
  20
72.821972
  0
VERTEX
  5
1dd
  8
Layer_1
  10
153.2411
  20
73.378275
  0
VERTEX
  5
1de
  8
Layer_1
  10
152.25694
  20
73.916848
  0
VERTEX
  5
1df
  8
Layer_1
  10
151.23863
  20
74.437101
  0
VERTEX
  5
1e0
  8
Layer_1
  10
150.18683
  20
74.938448
  0
VERTEX
  5
1e1
  8
Layer_1
  10
149.10217
  20
75.4203
  0
VERTEX
  5
1e2
  8
Layer_1
  10
147.98527
  20
75.882071
  0
VERTEX
  5
1e3
  8
Layer_1
  10
146.83677
  20
76.323171
  0
VERTEX
  5
1e4
  8
Layer_1
  10
145.6573
  20
76.743014
  0
VERTEX
  5
1e5
  8
Layer_1
  10
144.4475
  20
77.141012
  0
VERTEX
  5
1e6
  8
Layer_1
  10
143.208
  20
77.516576
  0
VERTEX
  5
1e7
  8
Layer_1
  10
141.89772
  20
77.879916
  0
VERTEX
  5
1e8
  8
Layer_1
  10
140.57203
  20
78.214312
  0
VERTEX
  5
1e9
  8
Layer_1
  10
139.23228
  20
78.519838
  0
VERTEX
  5
1ea
  8
Layer_1
  10
137.87983
  20
78.796568
  0
VERTEX
  5
1eb
  8
Layer_1
  10
136.516
  20
79.044577
  0
VERTEX
  5
1ec
  8
Layer_1
  10
135.14214
  20
79.263937
  0
VERTEX
  5
1ed
  8
Layer_1
  10
133.7596
  20
79.454724
  0
VERTEX
  5
1ee
  8
Layer_1
  10
132.36972
  20
79.617011
  0
VERTEX
  5
1ef
  8
Layer_1
  10
130.97384
  20
79.750872
  0
VERTEX
  5
1f0
  8
Layer_1
  10
129.57331
  20
79.856381
  0
VERTEX
  5
1f1
  8
Layer_1
  10
128.16947
  20
79.933612
  0
VERTEX
  5
1f2
  8
Layer_1
  10
126.76367
  20
79.982639
  0
VERTEX
  5
1f3
  8
Layer_1
  10
125.35724
  20
80.003536
  0
VERTEX
  5
1f4
  8
Layer_1
  10
123.95154
  20
79.996377
  0
VERTEX
  5
1f5
  8
Layer_1
  10
122.5479
  20
79.961236
  0
VERTEX
  5
1f6
  8
Layer_1
  10
121.14767
  20
79.898187
  0
VERTEX
  5
1f7
  8
Layer_1
  10
119.75219
  20
79.807304
  0
VERTEX
  5
1f8
  8
Layer_1
  10
118.36281
  20
79.688661
  0
VERTEX
  5
1f9
  8
Layer_1
  10
116.98087
  20
79.542331
  0
VERTEX
  5
1fa
  8
Layer_1
  10
115.60771
  20
79.36839
  0
VERTEX
  5
1fb
  8
Layer_1
  10
114.24468
  20
79.16691
  0
VERTEX
  5
1fc
  8
Layer_1
  10
112.89312
  20
78.937966
  0
VERTEX
  5
1fd
  8
Layer_1
  10
111.55438
  20
78.681632
  0
VERTEX
  5
1fe
  8
Layer_1
  10
110.22979
  20
78.397982
  0
VERTEX
  5
1ff
  8
Layer_1
  10
108.9207
  20
78.087089
  0
VERTEX
  5
200
  8
Layer_1
  10
107.62846
  20
77.749028
  0
VERTEX
  5
201
  8
Layer_1
  10
106.35441
  20
77.383873
  0
VERTEX
  5
202
  8
Layer_1
  10
105.09989
  20
76.991698
  0
VERTEX
  5
203
  8
Layer_1
  10
103.86624
  20
76.572576
  0
VERTEX
  5
204
  8
Layer_1
  10
102.65482
  20
76.126582
  0
VERTEX
  5
205
  8
Layer_1
  10
101.46695
  20
75.653789
  0
VERTEX
  5
206
  8
Layer_1
  10
100.304
  20
75.154273
  0
VERTEX
  5
207
  8
Layer_1
  10
99.409174
  20
74.744402
  0
VERTEX
  5
208
  8
Layer_1
  10
98.538237
  20
74.321464
  0
VERTEX
  5
209
  8
Layer_1
  10
97.691488
  20
73.885809
  0
VERTEX
  5
20a
  8
Layer_1
  10
96.869225
  20
73.437785
  0
VERTEX
  5
20b
  8
Layer_1
  10
96.071747
  20
72.97774
  0
VERTEX
  5
20c
  8
Layer_1
  10
95.299353
  20
72.506024
  0
VERTEX
  5
20d
  8
Layer_1
  10
94.552341
  20
72.022985
  0
VERTEX
  5
20e
  8
Layer_1
  10
93.831011
  20
71.528971
  0
VERTEX
  5
20f
  8
Layer_1
  10
93.13566
  20
71.024332
  0
VERTEX
  5
210
  8
Layer_1
  10
92.466587
  20
70.509416
  0
VERTEX
  5
211
  8
Layer_1
  10
91.824092
  20
69.984572
  0
VERTEX
  5
212
  8
Layer_1
  10
91.208473
  20
69.450149
  0
VERTEX
  5
213
  8
Layer_1
  10
90.620028
  20
68.906494
  0
VERTEX
  5
214
  8
Layer_1
  10
90.059056
  20
68.353958
  0
VERTEX
  5
215
  8
Layer_1
  10
89.525856
  20
67.792889
  0
VERTEX
  5
216
  8
Layer_1
  10
89.020727
  20
67.223635
  0
VERTEX
  5
217
  8
Layer_1
  10
88.543967
  20
66.646546
  0
VERTEX
  5
218
  8
Layer_1
  10
88.095875
  20
66.061969
  0
VERTEX
  5
219
  8
Layer_1
  10
87.67675
  20
65.470254
  0
VERTEX
  5
21a
  8
Layer_1
  10
87.286891
  20
64.871749
  0
VERTEX
  5
21b
  8
Layer_1
  10
86.926595
  20
64.266803
  0
VERTEX
  5
21c
  8
Layer_1
  10
86.596162
  20
63.655765
  0
VERTEX
  5
21d
  8
Layer_1
  10
86.295891
  20
63.038984
  0
VERTEX
  5
21e
  8
Layer_1
  10
86.02608
  20
62.416807
  0
VERTEX
  5
21f
  8
Layer_1
  10
85.787027
  20
61.789585
  0
VERTEX
  5
220
  8
Layer_1
  10
85.579033
  20
61.157665
  0
VERTEX
  5
221
  8
Layer_1
  10
85.402394
  20
60.521397
  0
VERTEX
  5
222
  8
Layer_1
  10
85.257411
  20
59.881128
  0
VERTEX
  5
223
  8
Layer_1
  10
85.144381
  20
59.237208
  0
VERTEX
  5
224
  8
Layer_1
  10
85.063603
  20
58.589986
  0
VERTEX
  5
225
  8
Layer_1
  10
85.015377
  20
57.93981
  0
VERTEX
  5
226
  8
Layer_1
  10
85
  20
57.287029
  0
VERTEX
  5
227
  8
Layer_1
  10
85
  20
-0.0035324099
  0
VERTEX
  5
228
  8
Layer_1
  10
165
  20
-0.0035324099
  0
SEQEND
  0
CIRCLE
  5
22a
  8
Layer_1
  62
1
  10
90
  20
4.99997
  30
0
  40
1.7
  0
CIRCLE
  5
22a
  8
Layer_1
  62
1
  10
160
  20
4.99997
  30
0
  40
1.7
  0
CIRCLE
  5
22a
  8
Layer_1
  62
1
  10
125
  20
75
  30
0
  40
1.7
  0
POLYLINE
  5
22a
  8
Layer_0
  62
0
  66
1
  10
0
  20
0
  30
0
  0
VERTEX
  5
22a
  8
Layer_0
  10
119.10709
  20
12.243999
  42
0.13041389
  0
VERTEX
  5
22b
  8
Layer_0
  10
120.35196
  20
12.739849
  42
0.17375665
  0
VERTEX
  5
22c
  8
Layer_0
  10
121.24796
  20
14.218121
  42
0.16525803
  0
VERTEX
  5
22d
  8
Layer_0
  10
121.01724
  20
16.43272
  42
0.29207623
  0
VERTEX
  5
22e
  8
Layer_0
  10
118.76675
  20
17.778667
  42
0.39405171
  0
VERTEX
  5
22f
  8
Layer_0
  10
116.24088
  20
15.561626
  42
0.18882387
  0
VERTEX
  5
230
  8
Layer_0
  10
116.67545
  20
13.289165
  42
0.25322992
  0
VERTEX
  5
231
  8
Layer_0
  10
118.76309
  20
12.223248
  0
VERTEX
  5
232
  8
Layer_0
  10
119.10709
  20
12.243999
  0
SEQEND
  0
POLYLINE
  5
234
  8
Layer_0
  62
0
  66
1
  10
0
  20
0
  30
0
  0
VERTEX
  5
234
  8
Layer_0
  10
131.18204
  20
12.243999
  42
0.29534552
  0
VERTEX
  5
235
  8
Layer_0
  10
133.21988
  20
13.863628
  42
0.22612349
  0
VERTEX
  5
236
  8
Layer_0
  10
132.91788
  20
16.733013
  42
0.25061651
  0
VERTEX
  5
237
  8
Layer_0
  10
130.84195
  20
17.778667
  42
0.39405797
  0
VERTEX
  5
238
  8
Layer_0
  10
128.31583
  20
15.561626
  42
0.18874573
  0
VERTEX
  5
239
  8
Layer_0
  10
128.75064
  20
13.289165
  42
0.25331553
  0
VERTEX
  5
23a
  8
Layer_0
  10
130.83829
  20
12.223248
  0
VERTEX
  5
23b
  8
Layer_0
  10
131.18204
  20
12.243999
  0
SEQEND
  0
POLYLINE
  5
23d
  8
Layer_0
  62
0
  66
1
  10
0
  20
0
  30
0
  0
VERTEX
  5
23d
  8
Layer_0
  10
98.414459
  20
12.236431
  0
VERTEX
  5
23e
  8
Layer_0
  10
98.680328
  20
12.275982
  42
0.20232672
  0
VERTEX
  5
23f
  8
Layer_0
  10
99.873688
  20
13.023296
  42
0.39230964
  0
VERTEX
  5
240
  8
Layer_0
  10
99.610992
  20
14.897076
  42
0.10514881
  0
VERTEX
  5
241
  8
Layer_0
  10
98.414215
  20
15.389507
  42
0.0045856099
  0
VERTEX
  5
242
  8
Layer_0
  10
97.80899
  20
15.533306
  0
VERTEX
  5
243
  8
Layer_0
  10
97.623444
  20
15.581646
  42
-0.099219526
  0
VERTEX
  5
244
  8
Layer_0
  10
96.944
  20
15.867046
  42
-0.34219184
  0
VERTEX
  5
245
  8
Layer_0
  10
96.80899
  20
16.652203
  42
-0.2194708
  0
VERTEX
  5
246
  8
Layer_0
  10
97.412262
  20
17.089703
  42
-0.16059537
  0
VERTEX
  5
247
  8
Layer_0
  10
98.727936
  20
17.002544
  42
-0.26410105
  0
VERTEX
  5
248
  8
Layer_0
  10
99.276764
  20
16.119732
  0
VERTEX
  5
249
  8
Layer_0
  10
99.957916
  20
16.171001
  42
0.34282103
  0
VERTEX
  5
24a
  8
Layer_0
  10
98.756256
  20
17.666851
  42
0.19108525
  0
VERTEX
  5
24b
  8
Layer_0
  10
96.746735
  20
17.489605
  42
0.38056314
  0
VERTEX
  5
24c
  8
Layer_0
  10
96.156647
  20
15.780865
  42
0.21754087
  0
VERTEX
  5
24d
  8
Layer_0
  10
97.219635
  20
14.964703
  42
0.010109999
  0
VERTEX
  5
24e
  8
Layer_0
  10
98.457428
  20
14.638042
  0
VERTEX
  5
24f
  8
Layer_0
  10
98.663727
  20
14.578228
  42
-0.19671244
  0
VERTEX
  5
250
  8
Layer_0
  10
99.351959
  20
14.115337
  42
-0.37604218
  0
VERTEX
  5
251
  8
Layer_0
  10
99.090485
  20
13.124615
  42
-0.31904227
  0
VERTEX
  5
252
  8
Layer_0
  10
96.83609
  20
13.314312
  42
-0.15881024
  0
VERTEX
  5
253
  8
Layer_0
  10
96.515533
  20
14.098248
  0
VERTEX
  5
254
  8
Layer_0
  10
95.845367
  20
14.039654
  42
0.29990757
  0
VERTEX
  5
255
  8
Layer_0
  10
96.912994
  20
12.43565
  42
0.11471254
  0
VERTEX
  5
256
  8
Layer_0
  10
98.414459
  20
12.236431
  0
SEQEND
  0
POLYLINE
  5
258
  8
Layer_0
  62
0
  66
1
  10
0
  20
0
  30
0
  0
VERTEX
  5
258
  8
Layer_0
  10
105.13321
  20
12.948345
  0
VERTEX
  5
259
  8
Layer_0
  10
101.83731
  20
12.948345
  0
VERTEX
  5
25a
  8
Layer_0
  10
101.83731
  20
14.775738
  0
VERTEX
  5
25b
  8
Layer_0
  10
104.80728
  20
14.775738
  0
VERTEX
  5
25c
  8
Layer_0
  10
104.80728
  20
15.405621
  0
VERTEX
  5
25d
  8
Layer_0
  10
101.83731
  20
15.405621
  0
VERTEX
  5
25e
  8
Layer_0
  10
101.83731
  20
17.049908
  0
VERTEX
  5
25f
  8
Layer_0
  10
105.0087
  20
17.049908
  0
VERTEX
  5
260
  8
Layer_0
  10
105.0087
  20
17.683453
  0
VERTEX
  5
261
  8
Layer_0
  10
101.12686
  20
17.683453
  0
VERTEX
  5
262
  8
Layer_0
  10
101.12686
  20
12.3148
  0
VERTEX
  5
263
  8
Layer_0
  10
105.13321
  20
12.3148
  0
VERTEX
  5
264
  8
Layer_0
  10
105.13321
  20
12.948345
  0
SEQEND
  0
POLYLINE
  5
266
  8
Layer_0
  62
0
  66
1
  10
0
  20
0
  30
0
  0
VERTEX
  5
266
  8
Layer_0
  10
106.85855
  20
14.698833
  0
VERTEX
  5
267
  8
Layer_0
  10
107.68253
  20
14.698833
  42
-0.28357298
  0
VERTEX
  5
268
  8
Layer_0
  10
108.76285
  20
14.17149
  42
-0.021847286
  0
VERTEX
  5
269
  8
Layer_0
  10
109.27554
  20
13.431744
  0
VERTEX
  5
26a
  8
Layer_0
  10
109.98599
  20
12.3148
  0
VERTEX
  5
26b
  8
Layer_0
  10
110.87955
  20
12.3148
  0
VERTEX
  5
26c
  8
Layer_0
  10
109.94571
  20
13.775982
  42
0.10343576
  0
VERTEX
  5
26d
  8
Layer_0
  10
109.17569
  20
14.622906
  42
0.026670326
  0
VERTEX
  5
26e
  8
Layer_0
  10
108.92764
  20
14.757427
  0
VERTEX
  5
26f
  8
Layer_0
  10
109.28873
  20
14.828472
  42
0.19745149
  0
VERTEX
  5
270
  8
Layer_0
  10
110.23209
  20
15.462505
  42
0.3982195
  0
VERTEX
  5
271
  8
Layer_0
  10
109.79727
  20
17.45274
  42
0.12336926
  0
VERTEX
  5
272
  8
Layer_0
  10
108.52847
  20
17.683453
  0
VERTEX
  5
273
  8
Layer_0
  10
106.1481
  20
17.683453
  0
VERTEX
  5
274
  8
Layer_0
  10
106.1481
  20
12.3148
  0
VERTEX
  5
275
  8
Layer_0
  10
106.85855
  20
12.3148
  0
VERTEX
  5
276
  8
Layer_0
  10
106.85855
  20
14.698833
  0
SEQEND
  0
POLYLINE
  5
278
  8
Layer_0
  62
0
  66
1
  10
0
  20
0
  30
0
  0
VERTEX
  5
278
  8
Layer_0
  10
115.75235
  20
17.683453
  0
VERTEX
  5
279
  8
Layer_0
  10
115.02725
  20
17.683453
  0
VERTEX
  5
27a
  8
Layer_0
  10
113.57706
  20
13.783306
  42
0.020802564
  0
VERTEX
  5
27b
  8
Layer_0
  10
113.28775
  20
12.9044
  0
VERTEX
  5
27c
  8
Layer_0
  10
113.16055
  20
13.329205
  0
VERTEX
  5
27d
  8
Layer_0
  10
113.00577
  20
13.783306
  0
VERTEX
  5
27e
  8
Layer_0
  10
111.6105
  20
17.683453
  0
VERTEX
  5
27f
  8
Layer_0
  10
110.84146
  20
17.683453
  0
VERTEX
  5
280
  8
Layer_0
  10
112.92154
  20
12.3148
  0
VERTEX
  5
281
  8
Layer_0
  10
113.6503
  20
12.3148
  0
VERTEX
  5
282
  8
Layer_0
  10
115.75235
  20
17.683453
  0
SEQEND
  0
POLYLINE
  5
284
  8
Layer_0
  62
0
  66
1
  10
0
  20
0
  30
0
  0
VERTEX
  5
284
  8
Layer_0
  10
122.92496
  20
16.885113
  0
VERTEX
  5
285
  8
Layer_0
  10
124.47769
  20
12.3148
  0
VERTEX
  5
286
  8
Layer_0
  10
125.11856
  20
12.3148
  0
VERTEX
  5
287
  8
Layer_0
  10
126.67862
  20
16.808208
  0
VERTEX
  5
288
  8
Layer_0
  10
126.67862
  20
12.3148
  0
VERTEX
  5
289
  8
Layer_0
  10
127.36343
  20
12.3148
  0
VERTEX
  5
28a
  8
Layer_0
  10
127.36343
  20
17.683453
  0
VERTEX
  5
28b
  8
Layer_0
  10
126.40762
  20
17.683453
  42
0.0053938178
  0
VERTEX
  5
28c
  8
Layer_0
  10
124.88882
  20
13.25108
  0
VERTEX
  5
28d
  8
Layer_0
  10
124.83658
  20
13.087505
  0
VERTEX
  5
28e
  8
Layer_0
  10
124.73209
  20
13.418072
  42
0.0031983196
  0
VERTEX
  5
28f
  8
Layer_0
  10
123.30948
  20
17.683453
  0
VERTEX
  5
290
  8
Layer_0
  10
122.24014
  20
17.683453
  0
VERTEX
  5
291
  8
Layer_0
  10
122.24014
  20
12.3148
  0
VERTEX
  5
292
  8
Layer_0
  10
122.92496
  20
12.3148
  0
VERTEX
  5
293
  8
Layer_0
  10
122.92496
  20
16.885113
  0
SEQEND
  0
POLYLINE
  5
295
  8
Layer_0
  62
0
  66
1
  10
0
  20
0
  30
0
  0
VERTEX
  5
295
  8
Layer_0
  10
136.41348
  20
17.049908
  0
VERTEX
  5
296
  8
Layer_0
  10
138.18961
  20
17.049908
  0
VERTEX
  5
297
  8
Layer_0
  10
138.18961
  20
17.683453
  0
VERTEX
  5
298
  8
Layer_0
  10
133.93423
  20
17.683453
  0
VERTEX
  5
299
  8
Layer_0
  10
133.93423
  20
17.049908
  0
VERTEX
  5
29a
  8
Layer_0
  10
135.70303
  20
17.049908
  0
VERTEX
  5
29b
  8
Layer_0
  10
135.70303
  20
12.3148
  0
VERTEX
  5
29c
  8
Layer_0
  10
136.41348
  20
12.3148
  0
VERTEX
  5
29d
  8
Layer_0
  10
136.41348
  20
17.049908
  0
SEQEND
  0
POLYLINE
  5
29f
  8
Layer_0
  62
0
  66
1
  10
0
  20
0
  30
0
  0
VERTEX
  5
29f
  8
Layer_0
  10
143.00821
  20
12.948345
  0
VERTEX
  5
2a0
  8
Layer_0
  10
139.71231
  20
12.948345
  0
VERTEX
  5
2a1
  8
Layer_0
  10
139.71231
  20
14.775738
  0
VERTEX
  5
2a2
  8
Layer_0
  10
142.68228
  20
14.775738
  0
VERTEX
  5
2a3
  8
Layer_0
  10
142.68228
  20
15.405621
  0
VERTEX
  5
2a4
  8
Layer_0
  10
139.71231
  20
15.405621
  0
VERTEX
  5
2a5
  8
Layer_0
  10
139.71231
  20
17.049908
  0
VERTEX
  5
2a6
  8
Layer_0
  10
142.8837
  20
17.049908
  0
VERTEX
  5
2a7
  8
Layer_0
  10
142.8837
  20
17.683453
  0
VERTEX
  5
2a8
  8
Layer_0
  10
139.00186
  20
17.683453
  0
VERTEX
  5
2a9
  8
Layer_0
  10
139.00186
  20
12.3148
  0
VERTEX
  5
2aa
  8
Layer_0
  10
143.00821
  20
12.3148
  0
VERTEX
  5
2ab
  8
Layer_0
  10
143.00821
  20
12.948345
  0
SEQEND
  0
POLYLINE
  5
2ad
  8
Layer_0
  62
0
  66
1
  10
0
  20
0
  30
0
  0
VERTEX
  5
2ad
  8
Layer_0
  10
146.51675
  20
12.241802
  42
0.19961337
  0
VERTEX
  5
2ae
  8
Layer_0
  10
147.80557
  20
12.864605
  42
0.14831657
  0
VERTEX
  5
2af
  8
Layer_0
  10
148.19986
  20
13.855572
  42
0.034833196
  0
VERTEX
  5
2b0
  8
Layer_0
  10
148.24551
  20
14.581646
  0
VERTEX
  5
2b1
  8
Layer_0
  10
148.24551
  20
17.683453
  0
VERTEX
  5
2b2
  8
Layer_0
  10
147.53506
  20
17.683453
  0
VERTEX
  5
2b3
  8
Layer_0
  10
147.53506
  20
14.585308
  42
-0.10710047
  0
VERTEX
  5
2b4
  8
Layer_0
  10
147.34756
  20
13.437847
  42
-0.24182264
  0
VERTEX
  5
2b5
  8
Layer_0
  10
146.60928
  20
12.914165
  42
-0.17392953
  0
VERTEX
  5
2b6
  8
Layer_0
  10
145.31046
  20
13.04356
  42
-0.26067103
  0
VERTEX
  5
2b7
  8
Layer_0
  10
144.76602
  20
13.977886
  42
-0.031051778
  0
VERTEX
  5
2b8
  8
Layer_0
  10
144.73355
  20
14.585308
  0
VERTEX
  5
2b9
  8
Layer_0
  10
144.73355
  20
17.683453
  0
VERTEX
  5
2ba
  8
Layer_0
  10
144.0231
  20
17.683453
  0
VERTEX
  5
2bb
  8
Layer_0
  10
144.0231
  20
14.581646
  42
0.095582446
  0
VERTEX
  5
2bc
  8
Layer_0
  10
144.22818
  20
13.235699
  42
0.25757162
  0
VERTEX
  5
2bd
  8
Layer_0
  10
145.46133
  20
12.288189
  42
0.072938839
  0
VERTEX
  5
2be
  8
Layer_0
  10
146.51675
  20
12.241802
  0
SEQEND
  0
POLYLINE
  5
2c0
  8
Layer_0
  62
0
  66
1
  10
0
  20
0
  30
0
  0
VERTEX
  5
2c0
  8
Layer_0
  10
150.13345
  20
14.698833
  0
VERTEX
  5
2c1
  8
Layer_0
  10
150.95743
  20
14.698833
  42
-0.28373453
  0
VERTEX
  5
2c2
  8
Layer_0
  10
152.03775
  20
14.17149
  42
-0.022196638
  0
VERTEX
  5
2c3
  8
Layer_0
  10
152.55045
  20
13.431744
  0
VERTEX
  5
2c4
  8
Layer_0
  10
153.26089
  20
12.3148
  0
VERTEX
  5
2c5
  8
Layer_0
  10
154.15445
  20
12.3148
  0
VERTEX
  5
2c6
  8
Layer_0
  10
153.22061
  20
13.775982
  42
0.10330047
  0
VERTEX
  5
2c7
  8
Layer_0
  10
152.45084
  20
14.622906
  42
0.026211807
  0
VERTEX
  5
2c8
  8
Layer_0
  10
152.20255
  20
14.757427
  0
VERTEX
  5
2c9
  8
Layer_0
  10
152.56387
  20
14.828472
  42
0.19758765
  0
VERTEX
  5
2ca
  8
Layer_0
  10
153.50699
  20
15.462505
  42
0.39842099
  0
VERTEX
  5
2cb
  8
Layer_0
  10
153.07217
  20
17.45274
  42
0.12341795
  0
VERTEX
  5
2cc
  8
Layer_0
  10
151.80338
  20
17.683453
  0
VERTEX
  5
2cd
  8
Layer_0
  10
149.423
  20
17.683453
  0
VERTEX
  5
2ce
  8
Layer_0
  10
149.423
  20
12.3148
  0
VERTEX
  5
2cf
  8
Layer_0
  10
150.13345
  20
12.3148
  0
VERTEX
  5
2d0
  8
Layer_0
  10
150.13345
  20
14.698833
  0
SEQEND
  0
POLYLINE
  5
2d2
  8
Layer_0
  62
0
  66
1
  10
0
  20
0
  30
0
  0
VERTEX
  5
2d2
  8
Layer_0
  10
118.5668
  20
12.839947
  42
-0.35618708
  0
VERTEX
  5
2d3
  8
Layer_0
  10
116.96109
  20
14.459087
  42
-0.15393283
  0
VERTEX
  5
2d4
  8
Layer_0
  10
117.23428
  20
16.346539
  42
-0.3676053
  0
VERTEX
  5
2d5
  8
Layer_0
  10
119.50821
  20
17.015728
  42
-0.22254972
  0
VERTEX
  5
2d6
  8
Layer_0
  10
120.4733
  20
15.885113
  42
-0.16490849
  0
VERTEX
  5
2d7
  8
Layer_0
  10
120.39542
  20
13.884624
  42
-0.33506182
  0
VERTEX
  5
2d8
  8
Layer_0
  10
118.5668
  20
12.839947
  0
SEQEND
  0
POLYLINE
  5
2da
  8
Layer_0
  62
0
  66
1
  10
0
  20
0
  30
0
  0
VERTEX
  5
2da
  8
Layer_0
  10
130.64175
  20
12.839947
  42
-0.10629897
  0
VERTEX
  5
2db
  8
Layer_0
  10
129.95401
  20
13.049419
  42
-0.26095805
  0
VERTEX
  5
2dc
  8
Layer_0
  10
129.01163
  20
14.682476
  42
-0.11273568
  0
VERTEX
  5
2dd
  8
Layer_0
  10
129.21597
  20
16.162701
  42
-0.36831103
  0
VERTEX
  5
2de
  8
Layer_0
  10
131.35049
  20
17.099712
  42
-0.26158803
  0
VERTEX
  5
2df
  8
Layer_0
  10
132.54825
  20
15.885113
  42
-0.16477404
  0
VERTEX
  5
2e0
  8
Layer_0
  10
132.47061
  20
13.884624
  42
-0.33497603
  0
VERTEX
  5
2e1
  8
Layer_0
  10
130.64175
  20
12.839947
  0
SEQEND
  0
POLYLINE
  5
2e3
  8
Layer_0
  62
0
  66
1
  10
0
  20
0
  30
0
  0
VERTEX
  5
2e3
  8
Layer_0
  10
106.85855
  20
15.314068
  0
VERTEX
  5
2e4
  8
Layer_0
  10
106.85855
  20
17.090191
  0
VERTEX
  5
2e5
  8
Layer_0
  10
108.55777
  20
17.090191
  42
-0.18075884
  0
VERTEX
  5
2e6
  8
Layer_0
  10
109.43106
  20
16.84483
  42
-0.36935427
  0
VERTEX
  5
2e7
  8
Layer_0
  10
109.56485
  20
15.737164
  42
-0.23149299
  0
VERTEX
  5
2e8
  8
Layer_0
  10
108.81949
  20
15.339214
  42
-0.032261665
  0
VERTEX
  5
2e9
  8
Layer_0
  10
108.38565
  20
15.314068
  0
VERTEX
  5
2ea
  8
Layer_0
  10
106.85855
  20
15.314068
  0
SEQEND
  0
POLYLINE
  5
2ec
  8
Layer_0
  62
0
  70
1
  66
1
  10
0
  20
0
  30
0
  0
VERTEX
  5
2ec
  8
Layer_0
  10
150.13345
  20
15.314068
  0
VERTEX
  5
2ed
  8
Layer_0
  10
150.13345
  20
17.090191
  0
VERTEX
  5
2ee
  8
Layer_0
  10
151.83267
  20
17.090191
  42
-0.18065144
  0
VERTEX
  5
2ef
  8
Layer_0
  10
152.70621
  20
16.84483
  42
-0.36921633
  0
VERTEX
  5
2f0
  8
Layer_0
  10
152.83975
  20
15.737164
  42
-0.23142968
  0
VERTEX
  5
2f1
  8
Layer_0
  10
152.09464
  20
15.339214
  42
-0.032276642
  0
VERTEX
  5
2f2
  8
Layer_0
  10
151.66055
  20
15.314068
  0
SEQEND
  0
ENDSEC
  0
EOF
