  0
SECTION
  2
HEADER
  9
$ACADVER
  1
AC1009
  0
ENDSEC
  0
SECTION
  2
ENTITIES
  0
POLYLINE
  5
90
  8
Layer_0
  62
1
  70
1
  66
1
  10
0
  20
0
  30
0
  0
VERTEX
  5
90
  8
Layer_0
  10
228.56149
  20
354
  0
VERTEX
  5
91
  8
Layer_0
  10
228.56149
  20
351
  0
VERTEX
  5
92
  8
Layer_0
  10
220.6692
  20
351
  0
VERTEX
  5
93
  8
Layer_0
  10
220.6692
  20
354
  0
VERTEX
  5
94
  8
Layer_0
  10
213.1769
  20
354
  0
VERTEX
  5
95
  8
Layer_0
  10
213.1769
  20
351
  0
VERTEX
  5
96
  8
Layer_0
  10
205.28461
  20
351
  0
VERTEX
  5
97
  8
Layer_0
  10
205.28461
  20
354
  0
VERTEX
  5
98
  8
Layer_0
  10
197.7923
  20
354
  0
VERTEX
  5
99
  8
Layer_0
  10
197.7923
  20
351
  0
VERTEX
  5
9a
  8
Layer_0
  10
190
  20
351
  0
VERTEX
  5
9b
  8
Layer_0
  10
190
  20
339.51501
  0
VERTEX
  5
9c
  8
Layer_0
  10
187
  20
339.51501
  0
VERTEX
  5
9d
  8
Layer_0
  10
187
  20
332.02301
  0
VERTEX
  5
9e
  8
Layer_0
  10
190
  20
332.02301
  0
VERTEX
  5
9f
  8
Layer_0
  10
190
  20
324.13098
  0
VERTEX
  5
a0
  8
Layer_0
  10
187
  20
324.13098
  0
VERTEX
  5
a1
  8
Layer_0
  10
187
  20
316.638
  0
VERTEX
  5
a2
  8
Layer_0
  10
190
  20
316.638
  0
VERTEX
  5
a3
  8
Layer_0
  10
190
  20
308.746
  0
VERTEX
  5
a4
  8
Layer_0
  10
187
  20
308.746
  0
VERTEX
  5
a5
  8
Layer_0
  10
187
  20
301.254
  0
VERTEX
  5
a6
  8
Layer_0
  10
190
  20
301.254
  0
VERTEX
  5
a7
  8
Layer_0
  10
190
  20
293.362
  0
VERTEX
  5
a8
  8
Layer_0
  10
187
  20
293.362
  0
VERTEX
  5
a9
  8
Layer_0
  10
187
  20
285.86902
  0
VERTEX
  5
aa
  8
Layer_0
  10
190
  20
285.86902
  0
VERTEX
  5
ab
  8
Layer_0
  10
190
  20
277.97699
  0
VERTEX
  5
ac
  8
Layer_0
  10
187
  20
277.97699
  0
VERTEX
  5
ad
  8
Layer_0
  10
187
  20
270.48499
  0
VERTEX
  5
ae
  8
Layer_0
  10
190
  20
270.48499
  0
VERTEX
  5
af
  8
Layer_0
  10
190
  20
259
  0
VERTEX
  5
b0
  8
Layer_0
  10
197.7923
  20
259
  0
VERTEX
  5
b1
  8
Layer_0
  10
197.7923
  20
256
  0
VERTEX
  5
b2
  8
Layer_0
  10
205.28461
  20
256
  0
VERTEX
  5
b3
  8
Layer_0
  10
205.28461
  20
259
  0
VERTEX
  5
b4
  8
Layer_0
  10
213.1769
  20
259
  0
VERTEX
  5
b5
  8
Layer_0
  10
213.1769
  20
256
  0
VERTEX
  5
b6
  8
Layer_0
  10
220.6692
  20
256
  0
VERTEX
  5
b7
  8
Layer_0
  10
220.6692
  20
259
  0
VERTEX
  5
b8
  8
Layer_0
  10
228.56149
  20
259
  0
VERTEX
  5
b9
  8
Layer_0
  10
228.56149
  20
256
  0
VERTEX
  5
ba
  8
Layer_0
  10
236.0538
  20
256
  0
VERTEX
  5
bb
  8
Layer_0
  10
236.0538
  20
259
  0
VERTEX
  5
bc
  8
Layer_0
  10
243.9462
  20
259
  0
VERTEX
  5
bd
  8
Layer_0
  10
243.9462
  20
256
  0
VERTEX
  5
be
  8
Layer_0
  10
251.43851
  20
256
  0
VERTEX
  5
bf
  8
Layer_0
  10
251.43851
  20
259
  0
VERTEX
  5
c0
  8
Layer_0
  10
259.33081
  20
259
  0
VERTEX
  5
c1
  8
Layer_0
  10
259.33081
  20
256
  0
VERTEX
  5
c2
  8
Layer_0
  10
266.82309
  20
256
  0
VERTEX
  5
c3
  8
Layer_0
  10
266.82309
  20
259
  0
VERTEX
  5
c4
  8
Layer_0
  10
274.71539
  20
259
  0
VERTEX
  5
c5
  8
Layer_0
  10
274.71539
  20
256
  0
VERTEX
  5
c6
  8
Layer_0
  10
282.2077
  20
256
  0
VERTEX
  5
c7
  8
Layer_0
  10
282.2077
  20
259
  0
VERTEX
  5
c8
  8
Layer_0
  10
290
  20
259
  0
VERTEX
  5
c9
  8
Layer_0
  10
290
  20
270.48499
  0
VERTEX
  5
ca
  8
Layer_0
  10
293
  20
270.48499
  0
VERTEX
  5
cb
  8
Layer_0
  10
293
  20
277.97699
  0
VERTEX
  5
cc
  8
Layer_0
  10
290
  20
277.97699
  0
VERTEX
  5
cd
  8
Layer_0
  10
290
  20
285.86902
  0
VERTEX
  5
ce
  8
Layer_0
  10
293
  20
285.86902
  0
VERTEX
  5
cf
  8
Layer_0
  10
293
  20
293.362
  0
VERTEX
  5
d0
  8
Layer_0
  10
290
  20
293.362
  0
VERTEX
  5
d1
  8
Layer_0
  10
290
  20
301.254
  0
VERTEX
  5
d2
  8
Layer_0
  10
293
  20
301.254
  0
VERTEX
  5
d3
  8
Layer_0
  10
293
  20
308.746
  0
VERTEX
  5
d4
  8
Layer_0
  10
290
  20
308.746
  0
VERTEX
  5
d5
  8
Layer_0
  10
290
  20
316.638
  0
VERTEX
  5
d6
  8
Layer_0
  10
293
  20
316.638
  0
VERTEX
  5
d7
  8
Layer_0
  10
293
  20
324.13098
  0
VERTEX
  5
d8
  8
Layer_0
  10
290
  20
324.13098
  0
VERTEX
  5
d9
  8
Layer_0
  10
290
  20
332.02301
  0
VERTEX
  5
da
  8
Layer_0
  10
293
  20
332.02301
  0
VERTEX
  5
db
  8
Layer_0
  10
293
  20
339.51501
  0
VERTEX
  5
dc
  8
Layer_0
  10
290
  20
339.51501
  0
VERTEX
  5
dd
  8
Layer_0
  10
290
  20
351
  0
VERTEX
  5
de
  8
Layer_0
  10
282.2077
  20
351
  0
VERTEX
  5
df
  8
Layer_0
  10
282.2077
  20
354
  0
VERTEX
  5
e0
  8
Layer_0
  10
274.71539
  20
354
  0
VERTEX
  5
e1
  8
Layer_0
  10
274.71539
  20
351
  0
VERTEX
  5
e2
  8
Layer_0
  10
266.82309
  20
351
  0
VERTEX
  5
e3
  8
Layer_0
  10
266.82309
  20
354
  0
VERTEX
  5
e4
  8
Layer_0
  10
259.33081
  20
354
  0
VERTEX
  5
e5
  8
Layer_0
  10
259.33081
  20
351
  0
VERTEX
  5
e6
  8
Layer_0
  10
251.43851
  20
351
  0
VERTEX
  5
e7
  8
Layer_0
  10
251.43851
  20
354
  0
VERTEX
  5
e8
  8
Layer_0
  10
243.9462
  20
354
  0
VERTEX
  5
e9
  8
Layer_0
  10
243.9462
  20
351
  0
VERTEX
  5
ea
  8
Layer_0
  10
236.0538
  20
351
  0
VERTEX
  5
eb
  8
Layer_0
  10
236.0538
  20
354
  0
VERTEX
  5
ec
  8
Layer_0
  10
228.56149
  20
354
  0
SEQEND
  0
POLYLINE
  5
ee
  8
Layer_0
  62
1
  70
1
  66
1
  10
0
  20
0
  30
0
  0
VERTEX
  5
ee
  8
Layer_0
  10
205.28461
  20
154
  0
VERTEX
  5
ef
  8
Layer_0
  10
213.1769
  20
154
  0
VERTEX
  5
f0
  8
Layer_0
  10
213.1769
  20
151
  0
VERTEX
  5
f1
  8
Layer_0
  10
220.6692
  20
151
  0
VERTEX
  5
f2
  8
Layer_0
  10
220.6692
  20
154
  0
VERTEX
  5
f3
  8
Layer_0
  10
228.56149
  20
154
  0
VERTEX
  5
f4
  8
Layer_0
  10
228.56149
  20
151
  0
VERTEX
  5
f5
  8
Layer_0
  10
236.0538
  20
151
  0
VERTEX
  5
f6
  8
Layer_0
  10
236.0538
  20
154
  0
VERTEX
  5
f7
  8
Layer_0
  10
243.9462
  20
154
  0
VERTEX
  5
f8
  8
Layer_0
  10
243.9462
  20
151
  0
VERTEX
  5
f9
  8
Layer_0
  10
251.43851
  20
151
  0
VERTEX
  5
fa
  8
Layer_0
  10
251.43851
  20
154
  0
VERTEX
  5
fb
  8
Layer_0
  10
259.33081
  20
154
  0
VERTEX
  5
fc
  8
Layer_0
  10
259.33081
  20
151
  0
VERTEX
  5
fd
  8
Layer_0
  10
266.82309
  20
151
  0
VERTEX
  5
fe
  8
Layer_0
  10
266.82309
  20
154
  0
VERTEX
  5
ff
  8
Layer_0
  10
274.71539
  20
154
  0
VERTEX
  5
100
  8
Layer_0
  10
274.71539
  20
151
  0
VERTEX
  5
101
  8
Layer_0
  10
282.2077
  20
151
  0
VERTEX
  5
102
  8
Layer_0
  10
282.2077
  20
154
  0
VERTEX
  5
103
  8
Layer_0
  10
290
  20
154
  0
VERTEX
  5
104
  8
Layer_0
  10
290
  20
165.4846
  0
VERTEX
  5
105
  8
Layer_0
  10
293
  20
165.4846
  0
VERTEX
  5
106
  8
Layer_0
  10
293
  20
172.9769
  0
VERTEX
  5
107
  8
Layer_0
  10
290
  20
172.9769
  0
VERTEX
  5
108
  8
Layer_0
  10
290
  20
180.8692
  0
VERTEX
  5
109
  8
Layer_0
  10
293
  20
180.8692
  0
VERTEX
  5
10a
  8
Layer_0
  10
293
  20
188.3615
  0
VERTEX
  5
10b
  8
Layer_0
  10
290
  20
188.3615
  0
VERTEX
  5
10c
  8
Layer_0
  10
290
  20
196.2538
  0
VERTEX
  5
10d
  8
Layer_0
  10
293
  20
196.2538
  0
VERTEX
  5
10e
  8
Layer_0
  10
293
  20
203.7462
  0
VERTEX
  5
10f
  8
Layer_0
  10
290
  20
203.7462
  0
VERTEX
  5
110
  8
Layer_0
  10
290
  20
211.6385
  0
VERTEX
  5
111
  8
Layer_0
  10
293
  20
211.6385
  0
VERTEX
  5
112
  8
Layer_0
  10
293
  20
219.1308
  0
VERTEX
  5
113
  8
Layer_0
  10
290
  20
219.1308
  0
VERTEX
  5
114
  8
Layer_0
  10
290
  20
227.0231
  0
VERTEX
  5
115
  8
Layer_0
  10
293
  20
227.0231
  0
VERTEX
  5
116
  8
Layer_0
  10
293
  20
234.51541
  0
VERTEX
  5
117
  8
Layer_0
  10
290
  20
234.51541
  0
VERTEX
  5
118
  8
Layer_0
  10
290
  20
246
  0
VERTEX
  5
119
  8
Layer_0
  10
282.2077
  20
246
  0
VERTEX
  5
11a
  8
Layer_0
  10
282.2077
  20
249
  0
VERTEX
  5
11b
  8
Layer_0
  10
274.71539
  20
249
  0
VERTEX
  5
11c
  8
Layer_0
  10
274.71539
  20
246
  0
VERTEX
  5
11d
  8
Layer_0
  10
266.82309
  20
246
  0
VERTEX
  5
11e
  8
Layer_0
  10
266.82309
  20
249
  0
VERTEX
  5
11f
  8
Layer_0
  10
259.33081
  20
249
  0
VERTEX
  5
120
  8
Layer_0
  10
259.33081
  20
246
  0
VERTEX
  5
121
  8
Layer_0
  10
251.43851
  20
246
  0
VERTEX
  5
122
  8
Layer_0
  10
251.43851
  20
249
  0
VERTEX
  5
123
  8
Layer_0
  10
243.9462
  20
249
  0
VERTEX
  5
124
  8
Layer_0
  10
243.9462
  20
246
  0
VERTEX
  5
125
  8
Layer_0
  10
236.0538
  20
246
  0
VERTEX
  5
126
  8
Layer_0
  10
236.0538
  20
249
  0
VERTEX
  5
127
  8
Layer_0
  10
228.56149
  20
249
  0
VERTEX
  5
128
  8
Layer_0
  10
228.56149
  20
246
  0
VERTEX
  5
129
  8
Layer_0
  10
220.6692
  20
246
  0
VERTEX
  5
12a
  8
Layer_0
  10
220.6692
  20
249
  0
VERTEX
  5
12b
  8
Layer_0
  10
213.1769
  20
249
  0
VERTEX
  5
12c
  8
Layer_0
  10
213.1769
  20
246
  0
VERTEX
  5
12d
  8
Layer_0
  10
205.28461
  20
246
  0
VERTEX
  5
12e
  8
Layer_0
  10
205.28461
  20
249
  0
VERTEX
  5
12f
  8
Layer_0
  10
197.7923
  20
249
  0
VERTEX
  5
130
  8
Layer_0
  10
197.7923
  20
246
  0
VERTEX
  5
131
  8
Layer_0
  10
190
  20
246
  0
VERTEX
  5
132
  8
Layer_0
  10
190
  20
234.51541
  0
VERTEX
  5
133
  8
Layer_0
  10
187
  20
234.51541
  0
VERTEX
  5
134
  8
Layer_0
  10
187
  20
227.0231
  0
VERTEX
  5
135
  8
Layer_0
  10
190
  20
227.0231
  0
VERTEX
  5
136
  8
Layer_0
  10
190
  20
219.1308
  0
VERTEX
  5
137
  8
Layer_0
  10
187
  20
219.1308
  0
VERTEX
  5
138
  8
Layer_0
  10
187
  20
211.6385
  0
VERTEX
  5
139
  8
Layer_0
  10
190
  20
211.6385
  0
VERTEX
  5
13a
  8
Layer_0
  10
190
  20
203.7462
  0
VERTEX
  5
13b
  8
Layer_0
  10
187
  20
203.7462
  0
VERTEX
  5
13c
  8
Layer_0
  10
187
  20
196.2538
  0
VERTEX
  5
13d
  8
Layer_0
  10
190
  20
196.2538
  0
VERTEX
  5
13e
  8
Layer_0
  10
190
  20
188.3615
  0
VERTEX
  5
13f
  8
Layer_0
  10
187
  20
188.3615
  0
VERTEX
  5
140
  8
Layer_0
  10
187
  20
180.8692
  0
VERTEX
  5
141
  8
Layer_0
  10
190
  20
180.8692
  0
VERTEX
  5
142
  8
Layer_0
  10
190
  20
172.9769
  0
VERTEX
  5
143
  8
Layer_0
  10
187
  20
172.9769
  0
VERTEX
  5
144
  8
Layer_0
  10
187
  20
165.4846
  0
VERTEX
  5
145
  8
Layer_0
  10
190
  20
165.4846
  0
VERTEX
  5
146
  8
Layer_0
  10
190
  20
154
  0
VERTEX
  5
147
  8
Layer_0
  10
197.7923
  20
154
  0
VERTEX
  5
148
  8
Layer_0
  10
197.7923
  20
151
  0
VERTEX
  5
149
  8
Layer_0
  10
205.28461
  20
151
  0
VERTEX
  5
14a
  8
Layer_0
  10
205.28461
  20
154
  0
SEQEND
  0
POLYLINE
  5
14c
  8
Layer_0
  62
1
  70
1
  66
1
  10
0
  20
0
  30
0
  0
VERTEX
  5
14c
  8
Layer_0
  10
88.442001
  20
154
  0
VERTEX
  5
14d
  8
Layer_0
  10
96.134598
  20
154
  0
VERTEX
  5
14e
  8
Layer_0
  10
96.134598
  20
151
  0
VERTEX
  5
14f
  8
Layer_0
  10
103.8269
  20
151
  0
VERTEX
  5
150
  8
Layer_0
  10
103.8269
  20
154
  0
VERTEX
  5
151
  8
Layer_0
  10
111.5192
  20
154
  0
VERTEX
  5
152
  8
Layer_0
  10
111.5192
  20
151
  0
VERTEX
  5
153
  8
Layer_0
  10
119.2115
  20
151
  0
VERTEX
  5
154
  8
Layer_0
  10
119.2115
  20
154
  0
VERTEX
  5
155
  8
Layer_0
  10
126.9039
  20
154
  0
VERTEX
  5
156
  8
Layer_0
  10
126.9039
  20
151
  0
VERTEX
  5
157
  8
Layer_0
  10
134.59619
  20
151
  0
VERTEX
  5
158
  8
Layer_0
  10
134.59619
  20
154
  0
VERTEX
  5
159
  8
Layer_0
  10
142.2885
  20
154
  0
VERTEX
  5
15a
  8
Layer_0
  10
142.2885
  20
151
  0
VERTEX
  5
15b
  8
Layer_0
  10
149.9808
  20
151
  0
VERTEX
  5
15c
  8
Layer_0
  10
149.9808
  20
154
  0
VERTEX
  5
15d
  8
Layer_0
  10
157.6731
  20
154
  0
VERTEX
  5
15e
  8
Layer_0
  10
157.6731
  20
151
  0
VERTEX
  5
15f
  8
Layer_0
  10
165.3654
  20
151
  0
VERTEX
  5
160
  8
Layer_0
  10
165.3654
  20
154
  0
VERTEX
  5
161
  8
Layer_0
  10
173.05771
  20
154
  0
VERTEX
  5
162
  8
Layer_0
  10
173.05771
  20
151
  0
VERTEX
  5
163
  8
Layer_0
  10
183.75
  20
151
  0
VERTEX
  5
164
  8
Layer_0
  10
183.75
  20
164.7692
  0
VERTEX
  5
165
  8
Layer_0
  10
180.75
  20
164.7692
  0
VERTEX
  5
166
  8
Layer_0
  10
180.75
  20
172.4615
  0
VERTEX
  5
167
  8
Layer_0
  10
183.75
  20
172.4615
  0
VERTEX
  5
168
  8
Layer_0
  10
183.75
  20
180.15379
  0
VERTEX
  5
169
  8
Layer_0
  10
180.75
  20
180.15379
  0
VERTEX
  5
16a
  8
Layer_0
  10
180.75
  20
187.8461
  0
VERTEX
  5
16b
  8
Layer_0
  10
183.75
  20
187.8461
  0
VERTEX
  5
16c
  8
Layer_0
  10
183.75
  20
195.5385
  0
VERTEX
  5
16d
  8
Layer_0
  10
180.75
  20
195.5385
  0
VERTEX
  5
16e
  8
Layer_0
  10
180.75
  20
203.2308
  0
VERTEX
  5
16f
  8
Layer_0
  10
183.75
  20
203.2308
  0
VERTEX
  5
170
  8
Layer_0
  10
183.75
  20
217
  0
VERTEX
  5
171
  8
Layer_0
  10
173.05771
  20
217
  0
VERTEX
  5
172
  8
Layer_0
  10
173.05771
  20
214
  0
VERTEX
  5
173
  8
Layer_0
  10
165.3654
  20
214
  0
VERTEX
  5
174
  8
Layer_0
  10
165.3654
  20
217
  0
VERTEX
  5
175
  8
Layer_0
  10
157.6731
  20
217
  0
VERTEX
  5
176
  8
Layer_0
  10
157.6731
  20
214
  0
VERTEX
  5
177
  8
Layer_0
  10
149.9808
  20
214
  0
VERTEX
  5
178
  8
Layer_0
  10
149.9808
  20
217
  0
VERTEX
  5
179
  8
Layer_0
  10
142.2885
  20
217
  0
VERTEX
  5
17a
  8
Layer_0
  10
142.2885
  20
214
  0
VERTEX
  5
17b
  8
Layer_0
  10
134.59619
  20
214
  0
VERTEX
  5
17c
  8
Layer_0
  10
134.59619
  20
217
  0
VERTEX
  5
17d
  8
Layer_0
  10
126.9039
  20
217
  0
VERTEX
  5
17e
  8
Layer_0
  10
126.9039
  20
214
  0
VERTEX
  5
17f
  8
Layer_0
  10
119.2115
  20
214
  0
VERTEX
  5
180
  8
Layer_0
  10
119.2115
  20
217
  0
VERTEX
  5
181
  8
Layer_0
  10
111.5192
  20
217
  0
VERTEX
  5
182
  8
Layer_0
  10
111.5192
  20
214
  0
VERTEX
  5
183
  8
Layer_0
  10
103.8269
  20
214
  0
VERTEX
  5
184
  8
Layer_0
  10
103.8269
  20
217
  0
VERTEX
  5
185
  8
Layer_0
  10
96.134598
  20
217
  0
VERTEX
  5
186
  8
Layer_0
  10
96.134598
  20
214
  0
VERTEX
  5
187
  8
Layer_0
  10
88.442001
  20
214
  0
VERTEX
  5
188
  8
Layer_0
  10
88.442001
  20
217
  0
VERTEX
  5
189
  8
Layer_0
  10
77.75
  20
217
  0
VERTEX
  5
18a
  8
Layer_0
  10
77.75
  20
203.2308
  0
VERTEX
  5
18b
  8
Layer_0
  10
80.75
  20
203.2308
  0
VERTEX
  5
18c
  8
Layer_0
  10
80.75
  20
195.5385
  0
VERTEX
  5
18d
  8
Layer_0
  10
77.75
  20
195.5385
  0
VERTEX
  5
18e
  8
Layer_0
  10
77.75
  20
187.8461
  0
VERTEX
  5
18f
  8
Layer_0
  10
80.75
  20
187.8461
  0
VERTEX
  5
190
  8
Layer_0
  10
80.75
  20
180.15379
  0
VERTEX
  5
191
  8
Layer_0
  10
77.75
  20
180.15379
  0
VERTEX
  5
192
  8
Layer_0
  10
77.75
  20
172.4615
  0
VERTEX
  5
193
  8
Layer_0
  10
80.75
  20
172.4615
  0
VERTEX
  5
194
  8
Layer_0
  10
80.75
  20
164.7692
  0
VERTEX
  5
195
  8
Layer_0
  10
77.75
  20
164.7692
  0
VERTEX
  5
196
  8
Layer_0
  10
77.75
  20
151
  0
VERTEX
  5
197
  8
Layer_0
  10
88.442001
  20
151
  0
VERTEX
  5
198
  8
Layer_0
  10
88.442001
  20
154
  0
SEQEND
  0
POLYLINE
  5
19a
  8
Layer_0
  62
1
  70
1
  66
1
  10
0
  20
0
  30
0
  0
VERTEX
  5
19a
  8
Layer_0
  10
208.3615
  20
51
  0
VERTEX
  5
19b
  8
Layer_0
  10
216.2538
  20
51
  0
VERTEX
  5
19c
  8
Layer_0
  10
216.2538
  20
48
  0
VERTEX
  5
19d
  8
Layer_0
  10
223.7462
  20
48
  0
VERTEX
  5
19e
  8
Layer_0
  10
223.7462
  20
51
  0
VERTEX
  5
19f
  8
Layer_0
  10
231.6385
  20
51
  0
VERTEX
  5
1a0
  8
Layer_0
  10
231.6385
  20
48
  0
VERTEX
  5
1a1
  8
Layer_0
  10
239.1308
  20
48
  0
VERTEX
  5
1a2
  8
Layer_0
  10
239.1308
  20
51
  0
VERTEX
  5
1a3
  8
Layer_0
  10
253
  20
51
  0
VERTEX
  5
1a4
  8
Layer_0
  10
253
  20
62.384598
  0
VERTEX
  5
1a5
  8
Layer_0
  10
250
  20
62.384598
  0
VERTEX
  5
1a6
  8
Layer_0
  10
250
  20
70.076897
  0
VERTEX
  5
1a7
  8
Layer_0
  10
253
  20
70.076897
  0
VERTEX
  5
1a8
  8
Layer_0
  10
253
  20
77.769203
  0
VERTEX
  5
1a9
  8
Layer_0
  10
250
  20
77.769203
  0
VERTEX
  5
1aa
  8
Layer_0
  10
250
  20
85.461502
  0
VERTEX
  5
1ab
  8
Layer_0
  10
253
  20
85.461502
  0
VERTEX
  5
1ac
  8
Layer_0
  10
253
  20
93.1539
  0
VERTEX
  5
1ad
  8
Layer_0
  10
250
  20
93.1539
  0
VERTEX
  5
1ae
  8
Layer_0
  10
250
  20
100.84619
  0
VERTEX
  5
1af
  8
Layer_0
  10
253
  20
100.84619
  0
VERTEX
  5
1b0
  8
Layer_0
  10
253
  20
108.5385
  0
VERTEX
  5
1b1
  8
Layer_0
  10
250
  20
108.5385
  0
VERTEX
  5
1b2
  8
Layer_0
  10
250
  20
116.2308
  0
VERTEX
  5
1b3
  8
Layer_0
  10
253
  20
116.2308
  0
VERTEX
  5
1b4
  8
Layer_0
  10
253
  20
123.9231
  0
VERTEX
  5
1b5
  8
Layer_0
  10
250
  20
123.9231
  0
VERTEX
  5
1b6
  8
Layer_0
  10
250
  20
131.6154
  0
VERTEX
  5
1b7
  8
Layer_0
  10
253
  20
131.6154
  0
VERTEX
  5
1b8
  8
Layer_0
  10
253
  20
143
  0
VERTEX
  5
1b9
  8
Layer_0
  10
239.1308
  20
143
  0
VERTEX
  5
1ba
  8
Layer_0
  10
239.1308
  20
146
  0
VERTEX
  5
1bb
  8
Layer_0
  10
231.6385
  20
146
  0
VERTEX
  5
1bc
  8
Layer_0
  10
231.6385
  20
143
  0
VERTEX
  5
1bd
  8
Layer_0
  10
223.7462
  20
143
  0
VERTEX
  5
1be
  8
Layer_0
  10
223.7462
  20
146
  0
VERTEX
  5
1bf
  8
Layer_0
  10
216.2538
  20
146
  0
VERTEX
  5
1c0
  8
Layer_0
  10
216.2538
  20
143
  0
VERTEX
  5
1c1
  8
Layer_0
  10
208.3615
  20
143
  0
VERTEX
  5
1c2
  8
Layer_0
  10
208.3615
  20
146
  0
VERTEX
  5
1c3
  8
Layer_0
  10
200.8692
  20
146
  0
VERTEX
  5
1c4
  8
Layer_0
  10
200.8692
  20
143
  0
VERTEX
  5
1c5
  8
Layer_0
  10
187
  20
143
  0
VERTEX
  5
1c6
  8
Layer_0
  10
187
  20
131.6154
  0
VERTEX
  5
1c7
  8
Layer_0
  10
190
  20
131.6154
  0
VERTEX
  5
1c8
  8
Layer_0
  10
190
  20
123.9231
  0
VERTEX
  5
1c9
  8
Layer_0
  10
187
  20
123.9231
  0
VERTEX
  5
1ca
  8
Layer_0
  10
187
  20
116.2308
  0
VERTEX
  5
1cb
  8
Layer_0
  10
190
  20
116.2308
  0
VERTEX
  5
1cc
  8
Layer_0
  10
190
  20
108.5385
  0
VERTEX
  5
1cd
  8
Layer_0
  10
187
  20
108.5385
  0
VERTEX
  5
1ce
  8
Layer_0
  10
187
  20
100.84619
  0
VERTEX
  5
1cf
  8
Layer_0
  10
190
  20
100.84619
  0
VERTEX
  5
1d0
  8
Layer_0
  10
190
  20
93.1539
  0
VERTEX
  5
1d1
  8
Layer_0
  10
187
  20
93.1539
  0
VERTEX
  5
1d2
  8
Layer_0
  10
187
  20
85.461502
  0
VERTEX
  5
1d3
  8
Layer_0
  10
190
  20
85.461502
  0
VERTEX
  5
1d4
  8
Layer_0
  10
190
  20
77.769203
  0
VERTEX
  5
1d5
  8
Layer_0
  10
187
  20
77.769203
  0
VERTEX
  5
1d6
  8
Layer_0
  10
187
  20
70.076897
  0
VERTEX
  5
1d7
  8
Layer_0
  10
190
  20
70.076897
  0
VERTEX
  5
1d8
  8
Layer_0
  10
190
  20
62.384598
  0
VERTEX
  5
1d9
  8
Layer_0
  10
187
  20
62.384598
  0
VERTEX
  5
1da
  8
Layer_0
  10
187
  20
51
  0
VERTEX
  5
1db
  8
Layer_0
  10
200.8692
  20
51
  0
VERTEX
  5
1dc
  8
Layer_0
  10
200.8692
  20
48
  0
VERTEX
  5
1dd
  8
Layer_0
  10
208.3615
  20
48
  0
VERTEX
  5
1de
  8
Layer_0
  10
208.3615
  20
51
  0
SEQEND
  0
POLYLINE
  5
1e0
  8
Layer_0
  62
1
  70
1
  66
1
  10
0
  20
0
  30
0
  0
VERTEX
  5
1e0
  8
Layer_0
  10
278.36151
  20
51
  0
VERTEX
  5
1e1
  8
Layer_0
  10
286.25378
  20
51
  0
VERTEX
  5
1e2
  8
Layer_0
  10
286.25378
  20
48
  0
VERTEX
  5
1e3
  8
Layer_0
  10
293.746
  20
48
  0
VERTEX
  5
1e4
  8
Layer_0
  10
293.746
  20
51
  0
VERTEX
  5
1e5
  8
Layer_0
  10
301.638
  20
51
  0
VERTEX
  5
1e6
  8
Layer_0
  10
301.638
  20
48
  0
VERTEX
  5
1e7
  8
Layer_0
  10
309.13098
  20
48
  0
VERTEX
  5
1e8
  8
Layer_0
  10
309.13098
  20
51
  0
VERTEX
  5
1e9
  8
Layer_0
  10
323
  20
51
  0
VERTEX
  5
1ea
  8
Layer_0
  10
323
  20
62.384598
  0
VERTEX
  5
1eb
  8
Layer_0
  10
320
  20
62.384598
  0
VERTEX
  5
1ec
  8
Layer_0
  10
320
  20
70.076897
  0
VERTEX
  5
1ed
  8
Layer_0
  10
323
  20
70.076897
  0
VERTEX
  5
1ee
  8
Layer_0
  10
323
  20
77.769203
  0
VERTEX
  5
1ef
  8
Layer_0
  10
320
  20
77.769203
  0
VERTEX
  5
1f0
  8
Layer_0
  10
320
  20
85.461502
  0
VERTEX
  5
1f1
  8
Layer_0
  10
323
  20
85.461502
  0
VERTEX
  5
1f2
  8
Layer_0
  10
323
  20
93.1539
  0
VERTEX
  5
1f3
  8
Layer_0
  10
320
  20
93.1539
  0
VERTEX
  5
1f4
  8
Layer_0
  10
320
  20
100.84619
  0
VERTEX
  5
1f5
  8
Layer_0
  10
323
  20
100.84619
  0
VERTEX
  5
1f6
  8
Layer_0
  10
323
  20
108.5385
  0
VERTEX
  5
1f7
  8
Layer_0
  10
320
  20
108.5385
  0
VERTEX
  5
1f8
  8
Layer_0
  10
320
  20
116.2308
  0
VERTEX
  5
1f9
  8
Layer_0
  10
323
  20
116.2308
  0
VERTEX
  5
1fa
  8
Layer_0
  10
323
  20
123.9231
  0
VERTEX
  5
1fb
  8
Layer_0
  10
320
  20
123.9231
  0
VERTEX
  5
1fc
  8
Layer_0
  10
320
  20
131.6154
  0
VERTEX
  5
1fd
  8
Layer_0
  10
323
  20
131.6154
  0
VERTEX
  5
1fe
  8
Layer_0
  10
323
  20
143
  0
VERTEX
  5
1ff
  8
Layer_0
  10
309.13098
  20
143
  0
VERTEX
  5
200
  8
Layer_0
  10
309.13098
  20
146
  0
VERTEX
  5
201
  8
Layer_0
  10
301.638
  20
146
  0
VERTEX
  5
202
  8
Layer_0
  10
301.638
  20
143
  0
VERTEX
  5
203
  8
Layer_0
  10
293.746
  20
143
  0
VERTEX
  5
204
  8
Layer_0
  10
293.746
  20
146
  0
VERTEX
  5
205
  8
Layer_0
  10
286.25378
  20
146
  0
VERTEX
  5
206
  8
Layer_0
  10
286.25378
  20
143
  0
VERTEX
  5
207
  8
Layer_0
  10
278.36151
  20
143
  0
VERTEX
  5
208
  8
Layer_0
  10
278.36151
  20
146
  0
VERTEX
  5
209
  8
Layer_0
  10
270.8692
  20
146
  0
VERTEX
  5
20a
  8
Layer_0
  10
270.8692
  20
143
  0
VERTEX
  5
20b
  8
Layer_0
  10
257
  20
143
  0
VERTEX
  5
20c
  8
Layer_0
  10
257
  20
131.6154
  0
VERTEX
  5
20d
  8
Layer_0
  10
260
  20
131.6154
  0
VERTEX
  5
20e
  8
Layer_0
  10
260
  20
123.9231
  0
VERTEX
  5
20f
  8
Layer_0
  10
257
  20
123.9231
  0
VERTEX
  5
210
  8
Layer_0
  10
257
  20
116.2308
  0
VERTEX
  5
211
  8
Layer_0
  10
260
  20
116.2308
  0
VERTEX
  5
212
  8
Layer_0
  10
260
  20
108.5385
  0
VERTEX
  5
213
  8
Layer_0
  10
257
  20
108.5385
  0
VERTEX
  5
214
  8
Layer_0
  10
257
  20
100.84619
  0
VERTEX
  5
215
  8
Layer_0
  10
260
  20
100.84619
  0
VERTEX
  5
216
  8
Layer_0
  10
260
  20
93.1539
  0
VERTEX
  5
217
  8
Layer_0
  10
257
  20
93.1539
  0
VERTEX
  5
218
  8
Layer_0
  10
257
  20
85.461502
  0
VERTEX
  5
219
  8
Layer_0
  10
260
  20
85.461502
  0
VERTEX
  5
21a
  8
Layer_0
  10
260
  20
77.769203
  0
VERTEX
  5
21b
  8
Layer_0
  10
257
  20
77.769203
  0
VERTEX
  5
21c
  8
Layer_0
  10
257
  20
70.076897
  0
VERTEX
  5
21d
  8
Layer_0
  10
260
  20
70.076897
  0
VERTEX
  5
21e
  8
Layer_0
  10
260
  20
62.384598
  0
VERTEX
  5
21f
  8
Layer_0
  10
257
  20
62.384598
  0
VERTEX
  5
220
  8
Layer_0
  10
257
  20
51
  0
VERTEX
  5
221
  8
Layer_0
  10
270.8692
  20
51
  0
VERTEX
  5
222
  8
Layer_0
  10
270.8692
  20
48
  0
VERTEX
  5
223
  8
Layer_0
  10
278.36151
  20
48
  0
VERTEX
  5
224
  8
Layer_0
  10
278.36151
  20
51
  0
SEQEND
  0
POLYLINE
  5
226
  8
Layer_0
  62
1
  70
1
  66
1
  10
0
  20
0
  30
0
  0
VERTEX
  5
226
  8
Layer_0
  10
84.692001
  20
56
  0
VERTEX
  5
227
  8
Layer_0
  10
92.384598
  20
56
  0
VERTEX
  5
228
  8
Layer_0
  10
92.384598
  20
53
  0
VERTEX
  5
229
  8
Layer_0
  10
100.0769
  20
53
  0
VERTEX
  5
22a
  8
Layer_0
  10
100.0769
  20
56
  0
VERTEX
  5
22b
  8
Layer_0
  10
107.7692
  20
56
  0
VERTEX
  5
22c
  8
Layer_0
  10
107.7692
  20
53
  0
VERTEX
  5
22d
  8
Layer_0
  10
115.4615
  20
53
  0
VERTEX
  5
22e
  8
Layer_0
  10
115.4615
  20
56
  0
VERTEX
  5
22f
  8
Layer_0
  10
123.1539
  20
56
  0
VERTEX
  5
230
  8
Layer_0
  10
123.1539
  20
53
  0
VERTEX
  5
231
  8
Layer_0
  10
130.84619
  20
53
  0
VERTEX
  5
232
  8
Layer_0
  10
130.84619
  20
56
  0
VERTEX
  5
233
  8
Layer_0
  10
138.5385
  20
56
  0
VERTEX
  5
234
  8
Layer_0
  10
138.5385
  20
53
  0
VERTEX
  5
235
  8
Layer_0
  10
146.2308
  20
53
  0
VERTEX
  5
236
  8
Layer_0
  10
146.2308
  20
56
  0
VERTEX
  5
237
  8
Layer_0
  10
153.9231
  20
56
  0
VERTEX
  5
238
  8
Layer_0
  10
153.9231
  20
53
  0
VERTEX
  5
239
  8
Layer_0
  10
161.6154
  20
53
  0
VERTEX
  5
23a
  8
Layer_0
  10
161.6154
  20
56
  0
VERTEX
  5
23b
  8
Layer_0
  10
169.30771
  20
56
  0
VERTEX
  5
23c
  8
Layer_0
  10
169.30771
  20
53
  0
VERTEX
  5
23d
  8
Layer_0
  10
180
  20
53
  0
VERTEX
  5
23e
  8
Layer_0
  10
180
  20
66.769203
  0
VERTEX
  5
23f
  8
Layer_0
  10
177
  20
66.769203
  0
VERTEX
  5
240
  8
Layer_0
  10
177
  20
74.461502
  0
VERTEX
  5
241
  8
Layer_0
  10
180
  20
74.461502
  0
VERTEX
  5
242
  8
Layer_0
  10
180
  20
82.1539
  0
VERTEX
  5
243
  8
Layer_0
  10
177
  20
82.1539
  0
VERTEX
  5
244
  8
Layer_0
  10
177
  20
89.846191
  0
VERTEX
  5
245
  8
Layer_0
  10
180
  20
89.846191
  0
VERTEX
  5
246
  8
Layer_0
  10
180
  20
97.538498
  0
VERTEX
  5
247
  8
Layer_0
  10
177
  20
97.538498
  0
VERTEX
  5
248
  8
Layer_0
  10
177
  20
105.2308
  0
VERTEX
  5
249
  8
Layer_0
  10
180
  20
105.2308
  0
VERTEX
  5
24a
  8
Layer_0
  10
180
  20
119
  0
VERTEX
  5
24b
  8
Layer_0
  10
169.30771
  20
119
  0
VERTEX
  5
24c
  8
Layer_0
  10
169.30771
  20
116
  0
VERTEX
  5
24d
  8
Layer_0
  10
161.6154
  20
116
  0
VERTEX
  5
24e
  8
Layer_0
  10
161.6154
  20
119
  0
VERTEX
  5
24f
  8
Layer_0
  10
153.9231
  20
119
  0
VERTEX
  5
250
  8
Layer_0
  10
153.9231
  20
116
  0
VERTEX
  5
251
  8
Layer_0
  10
146.2308
  20
116
  0
VERTEX
  5
252
  8
Layer_0
  10
146.2308
  20
119
  0
VERTEX
  5
253
  8
Layer_0
  10
138.5385
  20
119
  0
VERTEX
  5
254
  8
Layer_0
  10
138.5385
  20
116
  0
VERTEX
  5
255
  8
Layer_0
  10
130.84619
  20
116
  0
VERTEX
  5
256
  8
Layer_0
  10
130.84619
  20
119
  0
VERTEX
  5
257
  8
Layer_0
  10
123.1539
  20
119
  0
VERTEX
  5
258
  8
Layer_0
  10
123.1539
  20
116
  0
VERTEX
  5
259
  8
Layer_0
  10
115.4615
  20
116
  0
VERTEX
  5
25a
  8
Layer_0
  10
115.4615
  20
119
  0
VERTEX
  5
25b
  8
Layer_0
  10
107.7692
  20
119
  0
VERTEX
  5
25c
  8
Layer_0
  10
107.7692
  20
116
  0
VERTEX
  5
25d
  8
Layer_0
  10
100.0769
  20
116
  0
VERTEX
  5
25e
  8
Layer_0
  10
100.0769
  20
119
  0
VERTEX
  5
25f
  8
Layer_0
  10
92.384598
  20
119
  0
VERTEX
  5
260
  8
Layer_0
  10
92.384598
  20
116
  0
VERTEX
  5
261
  8
Layer_0
  10
84.692001
  20
116
  0
VERTEX
  5
262
  8
Layer_0
  10
84.692001
  20
119
  0
VERTEX
  5
263
  8
Layer_0
  10
74
  20
119
  0
VERTEX
  5
264
  8
Layer_0
  10
74
  20
105.2308
  0
VERTEX
  5
265
  8
Layer_0
  10
77
  20
105.2308
  0
VERTEX
  5
266
  8
Layer_0
  10
77
  20
97.538498
  0
VERTEX
  5
267
  8
Layer_0
  10
74
  20
97.538498
  0
VERTEX
  5
268
  8
Layer_0
  10
74
  20
89.846191
  0
VERTEX
  5
269
  8
Layer_0
  10
77
  20
89.846191
  0
VERTEX
  5
26a
  8
Layer_0
  10
77
  20
82.1539
  0
VERTEX
  5
26b
  8
Layer_0
  10
74
  20
82.1539
  0
VERTEX
  5
26c
  8
Layer_0
  10
74
  20
74.461502
  0
VERTEX
  5
26d
  8
Layer_0
  10
77
  20
74.461502
  0
VERTEX
  5
26e
  8
Layer_0
  10
77
  20
66.769203
  0
VERTEX
  5
26f
  8
Layer_0
  10
74
  20
66.769203
  0
VERTEX
  5
270
  8
Layer_0
  10
74
  20
53
  0
VERTEX
  5
271
  8
Layer_0
  10
84.692001
  20
53
  0
VERTEX
  5
272
  8
Layer_0
  10
84.692001
  20
56
  0
SEQEND
  0
CIRCLE
  5
274
  8
Layer_0
  62
1
  10
214.5
  20
305
  30
0
  40
12
  0
CIRCLE
  5
274
  8
Layer_0
  62
1
  10
262
  20
305
  30
0
  40
12
  0
CIRCLE
  5
274
  8
Layer_0
  62
1
  10
96
  20
86
  30
0
  40
3.5
  0
CIRCLE
  5
274
  8
Layer_0
  62
1
  10
158
  20
86
  30
0
  40
3.5
  0
CIRCLE
  5
274
  8
Layer_0
  62
1
  10
128
  20
86
  30
0
  40
3.5
  0
CIRCLE
  5
274
  8
Layer_0
  62
1
  10
160
  20
200
  30
0
  40
4
  0
POLYLINE
  5
274
  8
Layer_0
  62
1
  70
1
  66
1
  10
0
  20
0
  30
0
  0
VERTEX
  5
274
  8
Layer_0
  10
110.5
  20
195.5
  0
VERTEX
  5
275
  8
Layer_0
  10
97.5
  20
195.5
  0
VERTEX
  5
276
  8
Layer_0
  10
97.5
  20
204.5
  0
VERTEX
  5
277
  8
Layer_0
  10
110.5
  20
204.5
  0
VERTEX
  5
278
  8
Layer_0
  10
110.5
  20
195.5
  0
SEQEND
  0
POLYLINE
  5
27a
  8
Layer_0
  62
1
  70
1
  66
1
  10
0
  20
0
  30
0
  0
VERTEX
  5
27a
  8
Layer_0
  10
223.5
  20
57
  0
VERTEX
  5
27b
  8
Layer_0
  10
193.5
  20
57
  0
VERTEX
  5
27c
  8
Layer_0
  10
193.5
  20
137
  0
VERTEX
  5
27d
  8
Layer_0
  10
223.5
  20
137
  0
VERTEX
  5
27e
  8
Layer_0
  10
223.5
  20
57
  0
SEQEND
  0
POLYLINE
  5
280
  8
Layer_0
  62
1
  70
1
  66
1
  10
0
  20
0
  30
0
  0
VERTEX
  5
280
  8
Layer_0
  10
295
  20
57
  0
VERTEX
  5
281
  8
Layer_0
  10
265
  20
57
  0
VERTEX
  5
282
  8
Layer_0
  10
265
  20
137
  0
VERTEX
  5
283
  8
Layer_0
  10
295
  20
137
  0
VERTEX
  5
284
  8
Layer_0
  10
295
  20
57
  0
SEQEND
  0
POLYLINE
  5
286
  8
Layer_1
  62
0
  70
1
  66
1
  10
0
  20
0
  30
0
  0
VERTEX
  5
286
  8
Layer_1
  10
93.813805
  20
104.30103
  0
VERTEX
  5
287
  8
Layer_1
  10
96.108727
  20
104.30103
  0
VERTEX
  5
288
  8
Layer_1
  10
96.597321
  20
104.30549
  0
VERTEX
  5
289
  8
Layer_1
  10
97.081825
  20
104.35885
  0
VERTEX
  5
28a
  8
Layer_1
  10
97.55854
  20
104.46051
  0
VERTEX
  5
28b
  8
Layer_1
  10
98.023766
  20
104.60986
  0
VERTEX
  5
28c
  8
Layer_1
  10
98.26593
  20
104.73621
  0
VERTEX
  5
28d
  8
Layer_1
  10
98.489868
  20
104.88786
  0
VERTEX
  5
28e
  8
Layer_1
  10
98.693916
  20
105.06279
  0
VERTEX
  5
28f
  8
Layer_1
  10
98.876404
  20
105.259
  0
VERTEX
  5
290
  8
Layer_1
  10
99.035675
  20
105.47449
  0
VERTEX
  5
291
  8
Layer_1
  10
99.170059
  20
105.70724
  0
VERTEX
  5
292
  8
Layer_1
  10
99.277893
  20
105.95528
  0
VERTEX
  5
293
  8
Layer_1
  10
99.357506
  20
106.21655
  0
VERTEX
  5
294
  8
Layer_1
  10
99.431534
  20
106.54517
  0
VERTEX
  5
295
  8
Layer_1
  10
99.46579
  20
106.87676
  0
VERTEX
  5
296
  8
Layer_1
  10
99.460938
  20
107.2079
  0
VERTEX
  5
297
  8
Layer_1
  10
99.417618
  20
107.53519
  0
VERTEX
  5
298
  8
Layer_1
  10
99.336502
  20
107.8552
  0
VERTEX
  5
299
  8
Layer_1
  10
99.218239
  20
108.16454
  0
VERTEX
  5
29a
  8
Layer_1
  10
99.063484
  20
108.45979
  0
VERTEX
  5
29b
  8
Layer_1
  10
98.872887
  20
108.73755
  0
VERTEX
  5
29c
  8
Layer_1
  10
98.555855
  20
109.03682
  0
VERTEX
  5
29d
  8
Layer_1
  10
98.192551
  20
109.27132
  0
VERTEX
  5
29e
  8
Layer_1
  10
97.792709
  20
109.43596
  0
VERTEX
  5
29f
  8
Layer_1
  10
97.366051
  20
109.52563
  0
VERTEX
  5
2a0
  8
Layer_1
  10
96.687286
  20
109.59674
  0
VERTEX
  5
2a1
  8
Layer_1
  10
96.004967
  20
109.61108
  0
VERTEX
  5
2a2
  8
Layer_1
  10
92.629723
  20
109.61108
  0
VERTEX
  5
2a3
  8
Layer_1
  10
92.629723
  20
100.66333
  0
VERTEX
  5
2a4
  8
Layer_1
  10
93.813805
  20
100.66333
  0
VERTEX
  5
2a5
  8
Layer_1
  10
93.813805
  20
104.30103
  0
SEQEND
  0
POLYLINE
  5
2a7
  8
Layer_1
  62
0
  70
1
  66
1
  10
0
  20
0
  30
0
  0
VERTEX
  5
2a7
  8
Layer_1
  10
93.813805
  20
105.35693
  0
VERTEX
  5
2a8
  8
Layer_1
  10
93.813805
  20
108.55518
  0
VERTEX
  5
2a9
  8
Layer_1
  10
95.143799
  20
108.56572
  0
VERTEX
  5
2aa
  8
Layer_1
  10
96.717331
  20
108.54829
  0
VERTEX
  5
2ab
  8
Layer_1
  10
96.95887
  20
108.5215
  0
VERTEX
  5
2ac
  8
Layer_1
  10
97.196411
  20
108.47023
  0
VERTEX
  5
2ad
  8
Layer_1
  10
97.428062
  20
108.39478
  0
VERTEX
  5
2ae
  8
Layer_1
  10
97.61438
  20
108.28099
  0
VERTEX
  5
2af
  8
Layer_1
  10
97.779694
  20
108.14371
  0
VERTEX
  5
2b0
  8
Layer_1
  10
97.922394
  20
107.98578
  0
VERTEX
  5
2b1
  8
Layer_1
  10
98.040817
  20
107.81007
  0
VERTEX
  5
2b2
  8
Layer_1
  10
98.133324
  20
107.61944
  0
VERTEX
  5
2b3
  8
Layer_1
  10
98.198257
  20
107.41674
  0
VERTEX
  5
2b4
  8
Layer_1
  10
98.233986
  20
107.20483
  0
VERTEX
  5
2b5
  8
Layer_1
  10
98.238853
  20
106.98657
  0
VERTEX
  5
2b6
  8
Layer_1
  10
98.239258
  20
106.77323
  0
VERTEX
  5
2b7
  8
Layer_1
  10
98.209045
  20
106.56543
  0
VERTEX
  5
2b8
  8
Layer_1
  10
98.149811
  20
106.36607
  0
VERTEX
  5
2b9
  8
Layer_1
  10
98.063141
  20
106.17805
  0
VERTEX
  5
2ba
  8
Layer_1
  10
97.950623
  20
106.00426
  0
VERTEX
  5
2bb
  8
Layer_1
  10
97.813858
  20
105.84759
  0
VERTEX
  5
2bc
  8
Layer_1
  10
97.654449
  20
105.71092
  0
VERTEX
  5
2bd
  8
Layer_1
  10
97.473961
  20
105.59717
  0
VERTEX
  5
2be
  8
Layer_1
  10
97.148888
  20
105.4809
  0
VERTEX
  5
2bf
  8
Layer_1
  10
96.813934
  20
105.40173
  0
VERTEX
  5
2c0
  8
Layer_1
  10
96.47226
  20
105.36022
  0
VERTEX
  5
2c1
  8
Layer_1
  10
96.127037
  20
105.35693
  0
VERTEX
  5
2c2
  8
Layer_1
  10
93.813805
  20
105.35693
  0
SEQEND
  0
POLYLINE
  5
2c4
  8
Layer_1
  62
0
  70
1
  66
1
  10
0
  20
0
  30
0
  0
VERTEX
  5
2c4
  8
Layer_1
  10
129.07048
  20
109.61108
  0
VERTEX
  5
2c5
  8
Layer_1
  10
127.8864
  20
109.61108
  0
VERTEX
  5
2c6
  8
Layer_1
  10
127.8864
  20
100.66333
  0
VERTEX
  5
2c7
  8
Layer_1
  10
129.07048
  20
100.66333
  0
VERTEX
  5
2c8
  8
Layer_1
  10
129.07048
  20
109.61108
  0
SEQEND
  0
POLYLINE
  5
2ca
  8
Layer_1
  62
0
  70
1
  66
1
  10
0
  20
0
  30
0
  0
VERTEX
  5
2ca
  8
Layer_1
  10
157.72122
  20
100.67013
  0
VERTEX
  5
2cb
  8
Layer_1
  10
158.20732
  20
100.70557
  0
VERTEX
  5
2cc
  8
Layer_1
  10
158.68524
  20
100.7935
  0
VERTEX
  5
2cd
  8
Layer_1
  10
159.15076
  20
100.93291
  0
VERTEX
  5
2ce
  8
Layer_1
  10
159.59964
  20
101.12276
  0
VERTEX
  5
2cf
  8
Layer_1
  10
159.86154
  20
101.29137
  0
VERTEX
  5
2d0
  8
Layer_1
  10
160.10565
  20
101.48177
  0
VERTEX
  5
2d1
  8
Layer_1
  10
160.33081
  20
101.69247
  0
VERTEX
  5
2d2
  8
Layer_1
  10
160.53577
  20
101.92206
  0
VERTEX
  5
2d3
  8
Layer_1
  10
160.71936
  20
102.16906
  0
VERTEX
  5
2d4
  8
Layer_1
  10
160.88042
  20
102.43201
  0
VERTEX
  5
2d5
  8
Layer_1
  10
161.01773
  20
102.70947
  0
VERTEX
  5
2d6
  8
Layer_1
  10
161.13016
  20
102.99996
  0
VERTEX
  5
2d7
  8
Layer_1
  10
161.33037
  20
103.67375
  0
VERTEX
  5
2d8
  8
Layer_1
  10
161.45488
  20
104.3634
  0
VERTEX
  5
2d9
  8
Layer_1
  10
161.5029
  20
105.06256
  0
VERTEX
  5
2da
  8
Layer_1
  10
161.47366
  20
105.76485
  0
VERTEX
  5
2db
  8
Layer_1
  10
161.4169
  20
106.28027
  0
VERTEX
  5
2dc
  8
Layer_1
  10
161.30952
  20
106.78625
  0
VERTEX
  5
2dd
  8
Layer_1
  10
161.1525
  20
107.2791
  0
VERTEX
  5
2de
  8
Layer_1
  10
160.94681
  20
107.75509
  0
VERTEX
  5
2df
  8
Layer_1
  10
160.67429
  20
108.20872
  0
VERTEX
  5
2e0
  8
Layer_1
  10
160.33524
  20
108.61077
  0
VERTEX
  5
2e1
  8
Layer_1
  10
159.93681
  20
108.95407
  0
VERTEX
  5
2e2
  8
Layer_1
  10
159.48611
  20
109.23141
  0
VERTEX
  5
2e3
  8
Layer_1
  10
158.99039
  20
109.40778
  0
VERTEX
  5
2e4
  8
Layer_1
  10
158.4801
  20
109.5296
  0
VERTEX
  5
2e5
  8
Layer_1
  10
157.9597
  20
109.59608
  0
VERTEX
  5
2e6
  8
Layer_1
  10
157.43362
  20
109.60641
  0
VERTEX
  5
2e7
  8
Layer_1
  10
155.76591
  20
109.61382
  0
VERTEX
  5
2e8
  8
Layer_1
  10
154.09818
  20
109.60836
  0
VERTEX
  5
2e9
  8
Layer_1
  10
154.09818
  20
100.66061
  0
VERTEX
  5
2ea
  8
Layer_1
  10
157.32693
  20
100.66061
  0
VERTEX
  5
2eb
  8
Layer_1
  10
157.72122
  20
100.67013
  0
SEQEND
  0
POLYLINE
  5
2ed
  8
Layer_1
  62
0
  70
1
  66
1
  10
0
  20
0
  30
0
  0
VERTEX
  5
2ed
  8
Layer_1
  10
155.28226
  20
101.71651
  0
VERTEX
  5
2ee
  8
Layer_1
  10
155.28226
  20
108.55245
  0
VERTEX
  5
2ef
  8
Layer_1
  10
156.34964
  20
108.55712
  0
VERTEX
  5
2f0
  8
Layer_1
  10
157.41702
  20
108.54952
  0
VERTEX
  5
2f1
  8
Layer_1
  10
157.78531
  20
108.54493
  0
VERTEX
  5
2f2
  8
Layer_1
  10
158.14996
  20
108.50105
  0
VERTEX
  5
2f3
  8
Layer_1
  10
158.50781
  20
108.4184
  0
VERTEX
  5
2f4
  8
Layer_1
  10
158.85574
  20
108.29757
  0
VERTEX
  5
2f5
  8
Layer_1
  10
159.10414
  20
108.13708
  0
VERTEX
  5
2f6
  8
Layer_1
  10
159.33118
  20
107.9519
  0
VERTEX
  5
2f7
  8
Layer_1
  10
159.53534
  20
107.74415
  0
VERTEX
  5
2f8
  8
Layer_1
  10
159.7151
  20
107.51601
  0
VERTEX
  5
2f9
  8
Layer_1
  10
159.86894
  20
107.26964
  0
VERTEX
  5
2fa
  8
Layer_1
  10
159.99533
  20
107.00722
  0
VERTEX
  5
2fb
  8
Layer_1
  10
160.09276
  20
106.7309
  0
VERTEX
  5
2fc
  8
Layer_1
  10
160.1597
  20
106.44283
  0
VERTEX
  5
2fd
  8
Layer_1
  10
160.2594
  20
105.69995
  0
VERTEX
  5
2fe
  8
Layer_1
  10
160.27249
  20
104.95309
  0
VERTEX
  5
2ff
  8
Layer_1
  10
160.19928
  20
104.2097
  0
VERTEX
  5
300
  8
Layer_1
  10
160.04007
  20
103.47726
  0
VERTEX
  5
301
  8
Layer_1
  10
159.90961
  20
103.11517
  0
VERTEX
  5
302
  8
Layer_1
  10
159.72731
  20
102.77859
  0
VERTEX
  5
303
  8
Layer_1
  10
159.49673
  20
102.47304
  0
VERTEX
  5
304
  8
Layer_1
  10
159.22147
  20
102.20406
  0
VERTEX
  5
305
  8
Layer_1
  10
158.93604
  20
102.03124
  0
VERTEX
  5
306
  8
Layer_1
  10
158.63159
  20
101.89827
  0
VERTEX
  5
307
  8
Layer_1
  10
158.31229
  20
101.80662
  0
VERTEX
  5
308
  8
Layer_1
  10
157.98221
  20
101.75777
  0
VERTEX
  5
309
  8
Layer_1
  10
157.58804
  20
101.72551
  0
VERTEX
  5
30a
  8
Layer_1
  10
157.19266
  20
101.71651
  0
VERTEX
  5
30b
  8
Layer_1
  10
155.28226
  20
101.71651
  0
SEQEND
  0
ENDSEC
  0
EOF
