  0
SECTION
  2
HEADER
  9
$ACADVER
  1
AC1009
  0
ENDSEC
  0
SECTION
  2
ENTITIES
  0
POLYLINE
  5
90
  8
Layer_0
  62
1
  66
1
  10
0
  20
0
  30
0
  0
VERTEX
  5
90
  8
Layer_0
  10
60
  20
20
  0
VERTEX
  5
91
  8
Layer_0
  10
55
  20
50
  0
VERTEX
  5
92
  8
Layer_0
  10
20
  20
200
  0
VERTEX
  5
93
  8
Layer_0
  10
0
  20
200
  0
VERTEX
  5
94
  8
Layer_0
  10
0
  20
0
  0
VERTEX
  5
95
  8
Layer_0
  10
60
  20
0
  0
VERTEX
  5
96
  8
Layer_0
  10
60
  20
20
  0
SEQEND
  0
CIRCLE
  5
98
  8
Layer_0
  62
1
  10
5
  20
194
  30
0
  40
2.75
  0
CIRCLE
  5
98
  8
Layer_0
  62
1
  10
5
  20
5
  30
0
  40
1.75
  0
CIRCLE
  5
98
  8
Layer_0
  62
1
  10
55
  20
5
  30
0
  40
1.75
  0
CIRCLE
  5
98
  8
Layer_0
  62
1
  10
5
  20
100
  30
0
  40
1.75
  0
POLYLINE
  5
98
  8
Layer_0
  62
1
  66
1
  10
0
  20
0
  30
0
  0
VERTEX
  5
98
  8
Layer_0
  10
38.75
  20
100
  0
VERTEX
  5
99
  8
Layer_0
  10
38.714446
  20
100.39529
  0
VERTEX
  5
9a
  8
Layer_0
  10
38.612476
  20
100.76347
  0
VERTEX
  5
9b
  8
Layer_0
  10
38.451127
  20
101.09664
  0
VERTEX
  5
9c
  8
Layer_0
  10
38.237437
  20
101.38692
  0
VERTEX
  5
9d
  8
Layer_0
  10
37.978442
  20
101.62643
  0
VERTEX
  5
9e
  8
Layer_0
  10
37.681179
  20
101.80727
  0
VERTEX
  5
9f
  8
Layer_0
  10
37.352686
  20
101.92155
  0
VERTEX
  5
a0
  8
Layer_0
  10
37
  20
101.9614
  0
VERTEX
  5
a1
  8
Layer_0
  10
36.647314
  20
101.92155
  0
VERTEX
  5
a2
  8
Layer_0
  10
36.318821
  20
101.80727
  0
VERTEX
  5
a3
  8
Layer_0
  10
36.021558
  20
101.62643
  0
VERTEX
  5
a4
  8
Layer_0
  10
35.762563
  20
101.38692
  0
VERTEX
  5
a5
  8
Layer_0
  10
35.548873
  20
101.09664
  0
VERTEX
  5
a6
  8
Layer_0
  10
35.387524
  20
100.76347
  0
VERTEX
  5
a7
  8
Layer_0
  10
35.285554
  20
100.39529
  0
VERTEX
  5
a8
  8
Layer_0
  10
35.25
  20
100
  0
VERTEX
  5
a9
  8
Layer_0
  10
35.285554
  20
99.604709
  0
VERTEX
  5
aa
  8
Layer_0
  10
35.387524
  20
99.236533
  0
VERTEX
  5
ab
  8
Layer_0
  10
35.548873
  20
98.903361
  0
VERTEX
  5
ac
  8
Layer_0
  10
35.762563
  20
98.613079
  0
VERTEX
  5
ad
  8
Layer_0
  10
36.021558
  20
98.373574
  0
VERTEX
  5
ae
  8
Layer_0
  10
36.318821
  20
98.192734
  0
VERTEX
  5
af
  8
Layer_0
  10
36.647314
  20
98.078446
  0
VERTEX
  5
b0
  8
Layer_0
  10
37
  20
98.038597
  0
VERTEX
  5
b1
  8
Layer_0
  10
37.352686
  20
98.078446
  0
VERTEX
  5
b2
  8
Layer_0
  10
37.681179
  20
98.192734
  0
VERTEX
  5
b3
  8
Layer_0
  10
37.978442
  20
98.373574
  0
VERTEX
  5
b4
  8
Layer_0
  10
38.237437
  20
98.613079
  0
VERTEX
  5
b5
  8
Layer_0
  10
38.451127
  20
98.903361
  0
VERTEX
  5
b6
  8
Layer_0
  10
38.612476
  20
99.236533
  0
VERTEX
  5
b7
  8
Layer_0
  10
38.714446
  20
99.604709
  0
VERTEX
  5
b8
  8
Layer_0
  10
38.75
  20
100
  0
SEQEND
  0
POLYLINE
  5
ba
  8
Layer_1
  62
0
  66
1
  10
0
  20
0
  30
0
  0
VERTEX
  5
ba
  8
Layer_1
  10
13.477317
  20
64.983582
  0
VERTEX
  5
bb
  8
Layer_1
  10
13.854758
  20
65.011658
  42
0.13518095
  0
VERTEX
  5
bc
  8
Layer_1
  10
15.489768
  20
65.566345
  42
0.34249318
  0
VERTEX
  5
bd
  8
Layer_1
  10
16.166039
  20
68.623474
  42
0.2079512
  0
VERTEX
  5
be
  8
Layer_1
  10
14.726829
  20
69.735046
  0
VERTEX
  5
bf
  8
Layer_1
  10
15.021262
  20
69.903015
  42
0.37880348
  0
VERTEX
  5
c0
  8
Layer_1
  10
15.78054
  20
72.528748
  42
0.23069317
  0
VERTEX
  5
c1
  8
Layer_1
  10
14.321555
  20
73.769226
  42
0.065510177
  0
VERTEX
  5
c2
  8
Layer_1
  10
13.011741
  20
73.922058
  0
VERTEX
  5
c3
  8
Layer_1
  10
9.6548071
  20
73.922058
  0
VERTEX
  5
c4
  8
Layer_1
  10
9.6548071
  20
64.974304
  0
VERTEX
  5
c5
  8
Layer_1
  10
13.066672
  20
64.974304
  0
VERTEX
  5
c6
  8
Layer_1
  10
13.477317
  20
64.983582
  0
SEQEND
  0
POLYLINE
  5
c8
  8
Layer_1
  62
0
  66
1
  10
0
  20
0
  30
0
  0
VERTEX
  5
c8
  8
Layer_1
  10
26.012474
  20
73.922058
  0
VERTEX
  5
c9
  8
Layer_1
  10
24.913841
  20
73.922058
  0
VERTEX
  5
ca
  8
Layer_1
  10
24.913841
  20
64.974304
  0
VERTEX
  5
cb
  8
Layer_1
  10
26.012474
  20
64.974304
  0
VERTEX
  5
cc
  8
Layer_1
  10
26.012474
  20
73.922058
  0
SEQEND
  0
POLYLINE
  5
ce
  8
Layer_1
  62
0
  66
1
  10
0
  20
0
  30
0
  0
VERTEX
  5
ce
  8
Layer_1
  10
28.762474
  20
73.922058
  0
VERTEX
  5
cf
  8
Layer_1
  10
27.663841
  20
73.922058
  0
VERTEX
  5
d0
  8
Layer_1
  10
27.663841
  20
64.974304
  0
VERTEX
  5
d1
  8
Layer_1
  10
28.762474
  20
64.974304
  0
VERTEX
  5
d2
  8
Layer_1
  10
28.762474
  20
73.922058
  0
SEQEND
  0
POLYLINE
  5
d4
  8
Layer_1
  62
0
  66
1
  10
0
  20
0
  30
0
  0
VERTEX
  5
d4
  8
Layer_1
  10
10.838889
  20
70.162292
  0
VERTEX
  5
d5
  8
Layer_1
  10
10.838889
  20
72.86615
  42
-0.012635005
  0
VERTEX
  5
d6
  8
Layer_1
  10
13.073997
  20
72.858337
  42
-0.10290391
  0
VERTEX
  5
d7
  8
Layer_1
  10
14.175315
  20
72.665222
  42
-0.28225808
  0
VERTEX
  5
d8
  8
Layer_1
  10
14.812278
  20
71.492859
  42
-0.36538621
  0
VERTEX
  5
d9
  8
Layer_1
  10
13.902854
  20
70.266052
  42
-0.065866211
  0
VERTEX
  5
da
  8
Layer_1
  10
12.773704
  20
70.162292
  0
VERTEX
  5
db
  8
Layer_1
  10
10.838889
  20
70.162292
  0
SEQEND
  0
POLYLINE
  5
dd
  8
Layer_1
  62
0
  66
1
  10
0
  20
0
  30
0
  0
VERTEX
  5
dd
  8
Layer_1
  10
20.099876
  20
64.841248
  0
VERTEX
  5
de
  8
Layer_1
  10
20.407982
  20
64.881287
  42
0.14026884
  0
VERTEX
  5
df
  8
Layer_1
  10
22.167992
  20
65.773865
  0
VERTEX
  5
e0
  8
Layer_1
  10
22.199974
  20
65.552185
  42
0.071401728
  0
VERTEX
  5
e1
  8
Layer_1
  10
22.387718
  20
64.974304
  0
VERTEX
  5
e2
  8
Layer_1
  10
23.535179
  20
64.974304
  42
-0.13239527
  0
VERTEX
  5
e3
  8
Layer_1
  10
23.204857
  20
66.43988
  42
-0.0050532867
  0
VERTEX
  5
e4
  8
Layer_1
  10
23.173607
  20
69.774841
  0
VERTEX
  5
e5
  8
Layer_1
  10
23.156273
  20
69.999695
  42
0.31570217
  0
VERTEX
  5
e6
  8
Layer_1
  10
22.027611
  20
71.40741
  42
0.17782605
  0
VERTEX
  5
e7
  8
Layer_1
  10
18.909203
  20
71.247253
  42
0.22098062
  0
VERTEX
  5
e8
  8
Layer_1
  10
17.840111
  20
69.935242
  0
VERTEX
  5
e9
  8
Layer_1
  10
17.75515
  20
69.606873
  0
VERTEX
  5
ea
  8
Layer_1
  10
18.829369
  20
69.460388
  0
VERTEX
  5
eb
  8
Layer_1
  10
18.929955
  20
69.778992
  42
-0.21317433
  0
VERTEX
  5
ec
  8
Layer_1
  10
19.585716
  20
70.540466
  42
-0.16976301
  0
VERTEX
  5
ed
  8
Layer_1
  10
21.397972
  20
70.547791
  42
-0.33237755
  0
VERTEX
  5
ee
  8
Layer_1
  10
22.07766
  20
69.53656
  42
-0.025743996
  0
VERTEX
  5
ef
  8
Layer_1
  10
22.076439
  20
69.088074
  42
-0.050905271
  0
VERTEX
  5
f0
  8
Layer_1
  10
19.811302
  20
68.669617
  0
VERTEX
  5
f1
  8
Layer_1
  10
19.546654
  20
68.628845
  42
0.16964462
  0
VERTEX
  5
f2
  8
Layer_1
  10
18.032982
  20
67.907898
  42
0.37655964
  0
VERTEX
  5
f3
  8
Layer_1
  10
18.00515
  20
65.484558
  42
0.20268657
  0
VERTEX
  5
f4
  8
Layer_1
  10
19.52224
  20
64.835876
  42
0.036623659
  0
VERTEX
  5
f5
  8
Layer_1
  10
20.099876
  20
64.841248
  0
SEQEND
  0
POLYLINE
  5
f7
  8
Layer_1
  62
0
  66
1
  10
0
  20
0
  30
0
  0
VERTEX
  5
f7
  8
Layer_1
  10
10.838889
  20
66.030212
  0
VERTEX
  5
f8
  8
Layer_1
  10
10.838889
  20
69.106384
  42
-0.011528193
  0
VERTEX
  5
f9
  8
Layer_1
  10
13.310325
  20
69.097107
  42
-0.10216799
  0
VERTEX
  5
fa
  8
Layer_1
  10
14.432151
  20
68.868347
  42
-0.28968902
  0
VERTEX
  5
fb
  8
Layer_1
  10
15.184592
  20
67.568298
  42
-0.4012665
  0
VERTEX
  5
fc
  8
Layer_1
  10
13.872336
  20
66.072937
  42
-0.039208646
  0
VERTEX
  5
fd
  8
Layer_1
  10
13.066672
  20
66.030212
  0
VERTEX
  5
fe
  8
Layer_1
  10
10.838889
  20
66.030212
  0
SEQEND
  0
POLYLINE
  5
100
  8
Layer_1
  62
0
  66
1
  10
0
  20
0
  30
0
  0
VERTEX
  5
100
  8
Layer_1
  10
19.742699
  20
65.706726
  0
VERTEX
  5
101
  8
Layer_1
  10
19.480247
  20
65.761658
  42
-0.20325146
  0
VERTEX
  5
102
  8
Layer_1
  10
18.867172
  20
66.224808
  42
-0.20325202
  0
VERTEX
  5
103
  8
Layer_1
  10
18.775902
  20
66.987732
  42
-0.26547395
  0
VERTEX
  5
104
  8
Layer_1
  10
19.489037
  20
67.652283
  42
-0.015840722
  0
VERTEX
  5
105
  8
Layer_1
  10
21.094994
  20
67.950867
  0
VERTEX
  5
106
  8
Layer_1
  10
21.32888
  20
68.001648
  42
0.039026833
  0
VERTEX
  5
107
  8
Layer_1
  10
22.076439
  20
68.227478
  42
-0.071903122
  0
VERTEX
  5
108
  8
Layer_1
  10
21.97683
  20
66.934265
  42
-0.23314878
  0
VERTEX
  5
109
  8
Layer_1
  10
20.917259
  20
65.844666
  42
-0.12216478
  0
VERTEX
  5
10a
  8
Layer_1
  10
19.742699
  20
65.706726
  0
SEQEND
  0
POLYLINE
  5
10c
  8
Layer_1
  62
0
  66
1
  10
0
  20
0
  30
0
  0
VERTEX
  5
10c
  8
Layer_1
  10
16.789818
  20
51.264584
  0
VERTEX
  5
10d
  8
Layer_1
  10
16.409447
  20
51.558773
  42
-0.056458737
  0
VERTEX
  5
10e
  8
Layer_1
  10
15.392112
  20
52.637875
  0
VERTEX
  5
10f
  8
Layer_1
  10
15.629416
  20
53.042171
  42
0.057246427
  0
VERTEX
  5
110
  8
Layer_1
  10
16.18557
  20
54.566586
  0
VERTEX
  5
111
  8
Layer_1
  10
15.044211
  20
54.810726
  0
VERTEX
  5
112
  8
Layer_1
  10
14.960227
  20
54.467464
  42
-0.051706215
  0
VERTEX
  5
113
  8
Layer_1
  10
14.616965
  20
53.565609
  0
VERTEX
  5
114
  8
Layer_1
  10
13.011741
  20
55.610287
  0
VERTEX
  5
115
  8
Layer_1
  10
13.407981
  20
55.841976
  42
0.12313872
  0
VERTEX
  5
116
  8
Layer_1
  10
14.464622
  20
56.884945
  42
0.37636578
  0
VERTEX
  5
117
  8
Layer_1
  10
13.968528
  20
59.269711
  42
0.37771077
  0
VERTEX
  5
118
  8
Layer_1
  10
10.883079
  20
58.952572
  42
0.3463011
  0
VERTEX
  5
119
  8
Layer_1
  10
10.726829
  20
56.634457
  42
0.038942891
  0
VERTEX
  5
11a
  8
Layer_1
  10
11.406516
  20
55.738461
  0
VERTEX
  5
11b
  8
Layer_1
  10
11.149192
  20
55.60931
  42
0.14436262
  0
VERTEX
  5
11c
  8
Layer_1
  10
9.5766821
  20
54.219173
  42
0.32101434
  0
VERTEX
  5
11d
  8
Layer_1
  10
9.9294653
  20
51.374447
  42
0.22652604
  0
VERTEX
  5
11e
  8
Layer_1
  10
12.10842
  20
50.446712
  42
0.19606765
  0
VERTEX
  5
11f
  8
Layer_1
  10
14.400413
  20
51.372005
  0
VERTEX
  5
120
  8
Layer_1
  10
14.678
  20
51.655209
  0
VERTEX
  5
121
  8
Layer_1
  10
15.029319
  20
51.26263
  42
0.061086745
  0
VERTEX
  5
122
  8
Layer_1
  10
16.051292
  20
50.391781
  0
VERTEX
  5
123
  8
Layer_1
  10
16.789818
  20
51.264584
  0
SEQEND
  0
POLYLINE
  5
125
  8
Layer_1
  62
0
  66
1
  10
0
  20
0
  30
0
  0
VERTEX
  5
125
  8
Layer_1
  10
11.955832
  20
56.885921
  0
VERTEX
  5
126
  8
Layer_1
  10
11.768821
  20
57.135433
  42
-0.2669166
  0
VERTEX
  5
127
  8
Layer_1
  10
11.602561
  20
58.190609
  42
-0.35264375
  0
VERTEX
  5
128
  8
Layer_1
  10
12.773948
  20
58.778255
  42
-0.3732443
  0
VERTEX
  5
129
  8
Layer_1
  10
13.579368
  20
57.758724
  42
-0.25965829
  0
VERTEX
  5
12a
  8
Layer_1
  10
12.908957
  20
56.619564
  42
-0.022865098
  0
VERTEX
  5
12b
  8
Layer_1
  10
12.444114
  20
56.318295
  0
VERTEX
  5
12c
  8
Layer_1
  10
11.955832
  20
56.885921
  0
SEQEND
  0
POLYLINE
  5
12e
  8
Layer_1
  62
0
  66
1
  10
0
  20
0
  30
0
  0
VERTEX
  5
12e
  8
Layer_1
  10
11.928
  20
51.426205
  42
-0.22155503
  0
VERTEX
  5
12f
  8
Layer_1
  10
10.893821
  20
52.003109
  42
-0.16163203
  0
VERTEX
  5
130
  8
Layer_1
  10
10.460471
  20
53.132259
  42
-0.22159776
  0
VERTEX
  5
131
  8
Layer_1
  10
11.228049
  20
54.506283
  42
-0.036989383
  0
VERTEX
  5
132
  8
Layer_1
  10
11.974143
  20
55.018246
  0
VERTEX
  5
133
  8
Layer_1
  10
13.988303
  20
52.521908
  42
-0.23771072
  0
VERTEX
  5
134
  8
Layer_1
  10
12.120627
  20
51.417171
  0
VERTEX
  5
135
  8
Layer_1
  10
11.928
  20
51.426205
  0
SEQEND
  0
POLYLINE
  5
137
  8
Layer_1
  62
0
  66
1
  10
0
  20
0
  30
0
  0
VERTEX
  5
137
  8
Layer_1
  10
13.477317
  20
36.233578
  42
0.12094248
  0
VERTEX
  5
138
  8
Layer_1
  10
15.282004
  20
36.67889
  42
0.25982044
  0
VERTEX
  5
139
  8
Layer_1
  10
16.4114
  20
38.818295
  42
0.35142146
  0
VERTEX
  5
13a
  8
Layer_1
  10
14.726829
  20
40.985043
  0
VERTEX
  5
13b
  8
Layer_1
  10
15.021262
  20
41.152767
  42
0.37874268
  0
VERTEX
  5
13c
  8
Layer_1
  10
15.78054
  20
43.778744
  42
0.23065334
  0
VERTEX
  5
13d
  8
Layer_1
  10
14.321555
  20
45.019222
  42
0.065510516
  0
VERTEX
  5
13e
  8
Layer_1
  10
13.011741
  20
45.172054
  0
VERTEX
  5
13f
  8
Layer_1
  10
9.6548071
  20
45.172054
  0
VERTEX
  5
140
  8
Layer_1
  10
9.6548071
  20
36.2243
  0
VERTEX
  5
141
  8
Layer_1
  10
13.066672
  20
36.2243
  0
VERTEX
  5
142
  8
Layer_1
  10
13.477317
  20
36.233578
  0
SEQEND
  0
POLYLINE
  5
144
  8
Layer_1
  62
0
  66
1
  10
0
  20
0
  30
0
  0
VERTEX
  5
144
  8
Layer_1
  10
10.838889
  20
41.412289
  0
VERTEX
  5
145
  8
Layer_1
  10
10.838889
  20
44.116146
  42
-0.012635005
  0
VERTEX
  5
146
  8
Layer_1
  10
13.073997
  20
44.108334
  42
-0.10286331
  0
VERTEX
  5
147
  8
Layer_1
  10
14.175315
  20
43.915218
  42
-0.28223873
  0
VERTEX
  5
148
  8
Layer_1
  10
14.812278
  20
42.742855
  42
-0.36539431
  0
VERTEX
  5
149
  8
Layer_1
  10
13.902854
  20
41.516048
  42
-0.065864871
  0
VERTEX
  5
14a
  8
Layer_1
  10
12.773704
  20
41.412289
  0
VERTEX
  5
14b
  8
Layer_1
  10
10.838889
  20
41.412289
  0
SEQEND
  0
POLYLINE
  5
14d
  8
Layer_1
  62
0
  66
1
  10
0
  20
0
  30
0
  0
VERTEX
  5
14d
  8
Layer_1
  10
20.936302
  20
36.086361
  42
0.34495187
  0
VERTEX
  5
14e
  8
Layer_1
  10
23.510765
  20
38.171322
  0
VERTEX
  5
14f
  8
Layer_1
  10
22.375511
  20
38.311703
  0
VERTEX
  5
150
  8
Layer_1
  10
22.239281
  20
37.987484
  42
-0.33845252
  0
VERTEX
  5
151
  8
Layer_1
  10
20.467796
  20
36.989925
  42
-0.32417123
  0
VERTEX
  5
152
  8
Layer_1
  10
18.820824
  20
38.453793
  42
-0.051969724
  0
VERTEX
  5
153
  8
Layer_1
  10
18.707298
  20
39.184505
  0
VERTEX
  5
154
  8
Layer_1
  10
23.541283
  20
39.184505
  42
0.1146586
  0
VERTEX
  5
155
  8
Layer_1
  10
23.225609
  20
41.202572
  42
0.30661229
  0
VERTEX
  5
156
  8
Layer_1
  10
20.599388
  20
42.852718
  42
0.36818231
  0
VERTEX
  5
157
  8
Layer_1
  10
17.690453
  20
40.534115
  42
0.15355405
  0
VERTEX
  5
158
  8
Layer_1
  10
17.897484
  20
37.709652
  42
0.28219283
  0
VERTEX
  5
159
  8
Layer_1
  10
20.313988
  20
36.091488
  42
0.035230168
  0
VERTEX
  5
15a
  8
Layer_1
  10
20.936302
  20
36.086361
  0
SEQEND
  0
POLYLINE
  5
15c
  8
Layer_1
  62
0
  66
1
  10
0
  20
0
  30
0
  0
VERTEX
  5
15c
  8
Layer_1
  10
27.099876
  20
36.091244
  42
0.14674021
  0
VERTEX
  5
15d
  8
Layer_1
  10
28.865746
  20
36.783627
  0
VERTEX
  5
15e
  8
Layer_1
  10
29.167992
  20
37.023861
  0
VERTEX
  5
15f
  8
Layer_1
  10
29.199974
  20
36.802181
  42
0.071406839
  0
VERTEX
  5
160
  8
Layer_1
  10
29.387718
  20
36.2243
  0
VERTEX
  5
161
  8
Layer_1
  10
30.535179
  20
36.2243
  42
-0.13243066
  0
VERTEX
  5
162
  8
Layer_1
  10
30.204857
  20
37.689877
  42
-0.0048874501
  0
VERTEX
  5
163
  8
Layer_1
  10
30.173607
  20
41.024593
  0
VERTEX
  5
164
  8
Layer_1
  10
30.156273
  20
41.249691
  42
0.31559327
  0
VERTEX
  5
165
  8
Layer_1
  10
29.027611
  20
42.657406
  42
0.17781415
  0
VERTEX
  5
166
  8
Layer_1
  10
25.909203
  20
42.49725
  42
0.2208549
  0
VERTEX
  5
167
  8
Layer_1
  10
24.840111
  20
41.185238
  0
VERTEX
  5
168
  8
Layer_1
  10
24.75515
  20
40.856869
  0
VERTEX
  5
169
  8
Layer_1
  10
25.829369
  20
40.710384
  0
VERTEX
  5
16a
  8
Layer_1
  10
25.929955
  20
41.028988
  42
-0.21310277
  0
VERTEX
  5
16b
  8
Layer_1
  10
26.585716
  20
41.790462
  42
-0.16976699
  0
VERTEX
  5
16c
  8
Layer_1
  10
28.397972
  20
41.797787
  42
-0.33238391
  0
VERTEX
  5
16d
  8
Layer_1
  10
29.07766
  20
40.786556
  42
-0.025753406
  0
VERTEX
  5
16e
  8
Layer_1
  10
29.076439
  20
40.33807
  42
-0.051049903
  0
VERTEX
  5
16f
  8
Layer_1
  10
26.811302
  20
39.919613
  0
VERTEX
  5
170
  8
Layer_1
  10
26.546654
  20
39.878841
  42
0.16964689
  0
VERTEX
  5
171
  8
Layer_1
  10
25.032982
  20
39.157894
  42
0.3765502
  0
VERTEX
  5
172
  8
Layer_1
  10
25.00515
  20
36.734554
  42
0.20270312
  0
VERTEX
  5
173
  8
Layer_1
  10
26.52224
  20
36.085873
  42
0.036620059
  0
VERTEX
  5
174
  8
Layer_1
  10
27.099876
  20
36.091244
  0
SEQEND
  0
POLYLINE
  5
176
  8
Layer_1
  62
0
  66
1
  10
0
  20
0
  30
0
  0
VERTEX
  5
176
  8
Layer_1
  10
33.036888
  20
39.587337
  0
VERTEX
  5
177
  8
Layer_1
  10
33.047874
  20
40.003841
  42
-0.1132872
  0
VERTEX
  5
178
  8
Layer_1
  10
33.315941
  20
41.163265
  42
-0.38486557
  0
VERTEX
  5
179
  8
Layer_1
  10
35.271507
  20
41.757504
  42
-0.16833944
  0
VERTEX
  5
17a
  8
Layer_1
  10
35.638451
  20
41.328304
  42
-0.097749615
  0
VERTEX
  5
17b
  8
Layer_1
  10
35.789574
  20
40.435726
  0
VERTEX
  5
17c
  8
Layer_1
  10
35.789574
  20
36.2243
  0
VERTEX
  5
17d
  8
Layer_1
  10
36.888206
  20
36.2243
  0
VERTEX
  5
17e
  8
Layer_1
  10
36.888206
  20
39.99017
  42
-0.12909479
  0
VERTEX
  5
17f
  8
Layer_1
  10
37.142357
  20
41.184261
  42
-0.36034593
  0
VERTEX
  5
180
  8
Layer_1
  10
38.987816
  20
41.800961
  42
-0.29964141
  0
VERTEX
  5
181
  8
Layer_1
  10
39.602074
  20
40.874447
  42
-0.027606643
  0
VERTEX
  5
182
  8
Layer_1
  10
39.628685
  20
40.307552
  0
VERTEX
  5
183
  8
Layer_1
  10
39.628685
  20
36.2243
  0
VERTEX
  5
184
  8
Layer_1
  10
40.721214
  20
36.2243
  0
VERTEX
  5
185
  8
Layer_1
  10
40.721214
  20
40.673763
  42
0.12968976
  0
VERTEX
  5
186
  8
Layer_1
  10
40.429466
  20
42.01556
  42
0.23417573
  0
VERTEX
  5
187
  8
Layer_1
  10
39.173607
  20
42.819271
  42
0.31264184
  0
VERTEX
  5
188
  8
Layer_1
  10
36.717308
  20
41.717464
  0
VERTEX
  5
189
  8
Layer_1
  10
36.605736
  20
41.971127
  42
0.25538726
  0
VERTEX
  5
18a
  8
Layer_1
  10
35.230247
  20
42.83392
  42
0.29572097
  0
VERTEX
  5
18b
  8
Layer_1
  10
32.920921
  20
41.79681
  0
VERTEX
  5
18c
  8
Layer_1
  10
32.920921
  20
42.706234
  0
VERTEX
  5
18d
  8
Layer_1
  10
31.938255
  20
42.706234
  0
VERTEX
  5
18e
  8
Layer_1
  10
31.938255
  20
36.2243
  0
VERTEX
  5
18f
  8
Layer_1
  10
33.036888
  20
36.2243
  0
VERTEX
  5
190
  8
Layer_1
  10
33.036888
  20
39.587337
  0
SEQEND
  0
POLYLINE
  5
192
  8
Layer_1
  62
0
  66
1
  10
0
  20
0
  30
0
  0
VERTEX
  5
192
  8
Layer_1
  10
18.768333
  20
40.087826
  0
VERTEX
  5
193
  8
Layer_1
  10
18.78933
  20
40.294613
  42
-0.20205665
  0
VERTEX
  5
194
  8
Layer_1
  10
19.455135
  20
41.544968
  42
-0.20205477
  0
VERTEX
  5
195
  8
Layer_1
  10
20.815697
  20
41.939388
  42
-0.34883912
  0
VERTEX
  5
196
  8
Layer_1
  10
22.334251
  20
40.471127
  0
VERTEX
  5
197
  8
Layer_1
  10
22.387718
  20
40.087826
  0
VERTEX
  5
198
  8
Layer_1
  10
18.768333
  20
40.087826
  0
SEQEND
  0
POLYLINE
  5
19a
  8
Layer_1
  62
0
  66
1
  10
0
  20
0
  30
0
  0
VERTEX
  5
19a
  8
Layer_1
  10
10.838889
  20
37.280209
  0
VERTEX
  5
19b
  8
Layer_1
  10
10.838889
  20
40.35638
  42
-0.011528692
  0
VERTEX
  5
19c
  8
Layer_1
  10
13.310325
  20
40.347103
  42
-0.10210789
  0
VERTEX
  5
19d
  8
Layer_1
  10
14.432151
  20
40.118343
  42
-0.28965216
  0
VERTEX
  5
19e
  8
Layer_1
  10
15.184592
  20
38.818295
  42
-0.401274
  0
VERTEX
  5
19f
  8
Layer_1
  10
13.872336
  20
37.322933
  42
-0.039209477
  0
VERTEX
  5
1a0
  8
Layer_1
  10
13.066672
  20
37.280209
  0
VERTEX
  5
1a1
  8
Layer_1
  10
10.838889
  20
37.280209
  0
SEQEND
  0
POLYLINE
  5
1a3
  8
Layer_1
  62
0
  70
1
  66
1
  10
0
  20
0
  30
0
  0
VERTEX
  5
1a3
  8
Layer_1
  10
26.742699
  20
36.956722
  42
-0.15503727
  0
VERTEX
  5
1a4
  8
Layer_1
  10
26.07058
  20
37.23138
  42
-0.3727245
  0
VERTEX
  5
1a5
  8
Layer_1
  10
25.890404
  20
38.485531
  42
-0.2110444
  0
VERTEX
  5
1a6
  8
Layer_1
  10
26.703636
  20
38.958675
  42
-0.0093049838
  0
VERTEX
  5
1a7
  8
Layer_1
  10
27.842796
  20
39.152523
  0
VERTEX
  5
1a8
  8
Layer_1
  10
28.094994
  20
39.200863
  42
0.046169197
  0
VERTEX
  5
1a9
  8
Layer_1
  10
29.076439
  20
39.477474
  42
-0.071912596
  0
VERTEX
  5
1aa
  8
Layer_1
  10
28.97683
  20
38.184261
  42
-0.23316877
  0
VERTEX
  5
1ab
  8
Layer_1
  10
27.917259
  20
37.094662
  42
-0.12216833
  0
SEQEND
  0
POLYLINE
  5
1ad
  8
Layer_0
  62
1
  66
1
  10
0
  20
0
  30
0
  0
VERTEX
  5
1ad
  8
Layer_0
  10
32.977242
  20
179.99709
  0
VERTEX
  5
1ae
  8
Layer_0
  10
37.932205
  20
149.98961
  0
VERTEX
  5
1af
  8
Layer_0
  10
72.707016
  20
-0.062774658
  0
VERTEX
  5
1b0
  8
Layer_0
  10
92.706993
  20
-0.092788696
  0
VERTEX
  5
1b1
  8
Layer_0
  10
93.007202
  20
199.907
  0
VERTEX
  5
1b2
  8
Layer_0
  10
33.007263
  20
199.99707
  0
VERTEX
  5
1b3
  8
Layer_0
  10
32.977242
  20
179.99709
  0
SEQEND
  0
CIRCLE
  5
1b5
  8
Layer_0
  62
1
  10
87.716003
  20
5.9147034
  30
0
  40
2.7500002
  0
CIRCLE
  5
1b5
  8
Layer_0
  62
1
  10
87.999702
  20
194.91451
  30
0
  40
1.7500002
  0
CIRCLE
  5
1b5
  8
Layer_0
  62
1
  10
37.999756
  20
194.98956
  30
0
  40
1.7500002
  0
CIRCLE
  5
1b5
  8
Layer_0
  62
1
  10
87.857101
  20
99.914604
  30
0
  40
1.7500002
  0
POLYLINE
  5
1b5
  8
Layer_0
  62
1
  66
1
  10
0
  20
0
  30
0
  0
VERTEX
  5
1b5
  8
Layer_0
  10
54.107138
  20
99.965266
  0
VERTEX
  5
1b6
  8
Layer_0
  10
54.142098
  20
99.569922
  0
VERTEX
  5
1b7
  8
Layer_0
  10
54.243515
  20
99.201594
  0
VERTEX
  5
1b8
  8
Layer_0
  10
54.404364
  20
98.868179
  0
VERTEX
  5
1b9
  8
Layer_0
  10
54.617618
  20
98.577576
  0
VERTEX
  5
1ba
  8
Layer_0
  10
54.876254
  20
98.337683
  0
VERTEX
  5
1bb
  8
Layer_0
  10
55.173245
  20
98.156397
  0
VERTEX
  5
1bc
  8
Layer_0
  10
55.501566
  20
98.041616
  0
VERTEX
  5
1bd
  8
Layer_0
  10
55.854192
  20
98.001238
  0
VERTEX
  5
1be
  8
Layer_0
  10
56.206937
  20
98.040557
  0
VERTEX
  5
1bf
  8
Layer_0
  10
56.535601
  20
98.154352
  0
VERTEX
  5
1c0
  8
Layer_0
  10
56.833135
  20
98.334746
  0
VERTEX
  5
1c1
  8
Layer_0
  10
57.09249
  20
98.573862
  0
VERTEX
  5
1c2
  8
Layer_0
  10
57.306616
  20
98.863823
  0
VERTEX
  5
1c3
  8
Layer_0
  10
57.468464
  20
99.196753
  0
VERTEX
  5
1c4
  8
Layer_0
  10
57.570987
  20
99.564775
  0
VERTEX
  5
1c5
  8
Layer_0
  10
57.607134
  20
99.960012
  0
VERTEX
  5
1c6
  8
Layer_0
  10
57.572174
  20
100.35536
  0
VERTEX
  5
1c7
  8
Layer_0
  10
57.470756
  20
100.72368
  0
VERTEX
  5
1c8
  8
Layer_0
  10
57.309908
  20
101.0571
  0
VERTEX
  5
1c9
  8
Layer_0
  10
57.096653
  20
101.3477
  0
VERTEX
  5
1ca
  8
Layer_0
  10
56.838018
  20
101.58759
  0
VERTEX
  5
1cb
  8
Layer_0
  10
56.541027
  20
101.76888
  0
VERTEX
  5
1cc
  8
Layer_0
  10
56.212706
  20
101.88366
  0
VERTEX
  5
1cd
  8
Layer_0
  10
55.86008
  20
101.92404
  0
VERTEX
  5
1ce
  8
Layer_0
  10
55.507334
  20
101.88472
  0
VERTEX
  5
1cf
  8
Layer_0
  10
55.17867
  20
101.77093
  0
VERTEX
  5
1d0
  8
Layer_0
  10
54.881136
  20
101.59053
  0
VERTEX
  5
1d1
  8
Layer_0
  10
54.621782
  20
101.35142
  0
VERTEX
  5
1d2
  8
Layer_0
  10
54.407656
  20
101.06145
  0
VERTEX
  5
1d3
  8
Layer_0
  10
54.245807
  20
100.72853
  0
VERTEX
  5
1d4
  8
Layer_0
  10
54.143285
  20
100.3605
  0
VERTEX
  5
1d5
  8
Layer_0
  10
54.107138
  20
99.965266
  0
SEQEND
  0
POLYLINE
  5
1d7
  8
Layer_1
  62
0
  66
1
  10
0
  20
0
  30
0
  0
VERTEX
  5
1d7
  8
Layer_1
  10
79.432358
  20
134.94373
  0
VERTEX
  5
1d8
  8
Layer_1
  10
79.054871
  20
134.91621
  42
0.13518095
  0
VERTEX
  5
1d9
  8
Layer_1
  10
77.419029
  20
134.36398
  42
0.34249318
  0
VERTEX
  5
1da
  8
Layer_1
  10
76.738174
  20
131.30786
  42
0.2079512
  0
VERTEX
  5
1db
  8
Layer_1
  10
78.175713
  20
130.19414
  0
VERTEX
  5
1dc
  8
Layer_1
  10
77.881027
  20
130.02661
  42
0.37880348
  0
VERTEX
  5
1dd
  8
Layer_1
  10
77.117813
  20
127.40202
  42
0.23069317
  0
VERTEX
  5
1de
  8
Layer_1
  10
78.574928
  20
126.15935
  42
0.065510177
  0
VERTEX
  5
1df
  8
Layer_1
  10
79.884514
  20
126.00455
  0
VERTEX
  5
1e0
  8
Layer_1
  10
83.241447
  20
125.99951
  0
VERTEX
  5
1e1
  8
Layer_1
  10
83.254875
  20
134.94727
  0
VERTEX
  5
1e2
  8
Layer_1
  10
79.84301
  20
134.95238
  0
VERTEX
  5
1e3
  8
Layer_1
  10
79.432358
  20
134.94373
  0
SEQEND
  0
POLYLINE
  5
1e5
  8
Layer_1
  62
0
  66
1
  10
0
  20
0
  30
0
  0
VERTEX
  5
1e5
  8
Layer_1
  10
66.883797
  20
126.02407
  0
VERTEX
  5
1e6
  8
Layer_1
  10
67.98243
  20
126.02242
  0
VERTEX
  5
1e7
  8
Layer_1
  10
67.995857
  20
134.97017
  0
VERTEX
  5
1e8
  8
Layer_1
  10
66.897224
  20
134.97182
  0
VERTEX
  5
1e9
  8
Layer_1
  10
66.883797
  20
126.02407
  0
SEQEND
  0
POLYLINE
  5
1eb
  8
Layer_1
  62
0
  66
1
  10
0
  20
0
  30
0
  0
VERTEX
  5
1eb
  8
Layer_1
  10
64.133797
  20
126.0282
  0
VERTEX
  5
1ec
  8
Layer_1
  10
65.23243
  20
126.02655
  0
VERTEX
  5
1ed
  8
Layer_1
  10
65.245865
  20
134.97429
  0
VERTEX
  5
1ee
  8
Layer_1
  10
64.147232
  20
134.97594
  0
VERTEX
  5
1ef
  8
Layer_1
  10
64.133797
  20
126.0282
  0
SEQEND
  0
POLYLINE
  5
1f1
  8
Layer_1
  62
0
  66
1
  10
0
  20
0
  30
0
  0
VERTEX
  5
1f1
  8
Layer_1
  10
82.063004
  20
129.76105
  0
VERTEX
  5
1f2
  8
Layer_1
  10
82.058945
  20
127.0572
  42
-0.012635005
  0
VERTEX
  5
1f3
  8
Layer_1
  10
79.823853
  20
127.06837
  42
-0.10290391
  0
VERTEX
  5
1f4
  8
Layer_1
  10
78.722824
  20
127.26314
  42
-0.28225808
  0
VERTEX
  5
1f5
  8
Layer_1
  10
78.087624
  20
128.43645
  42
-0.36538621
  0
VERTEX
  5
1f6
  8
Layer_1
  10
78.998886
  20
129.6619
  42
-0.065866211
  0
VERTEX
  5
1f7
  8
Layer_1
  10
80.128197
  20
129.76396
  0
VERTEX
  5
1f8
  8
Layer_1
  10
82.063004
  20
129.76105
  0
SEQEND
  0
POLYLINE
  5
1fa
  8
Layer_1
  62
0
  66
1
  10
0
  20
0
  30
0
  0
VERTEX
  5
1fa
  8
Layer_1
  10
72.81002
  20
135.09599
  0
VERTEX
  5
1fb
  8
Layer_1
  10
72.501854
  20
135.05641
  42
0.14026884
  0
VERTEX
  5
1fc
  8
Layer_1
  10
70.740501
  20
134.16649
  0
VERTEX
  5
1fd
  8
Layer_1
  10
70.708855
  20
134.38821
  42
0.071401728
  0
VERTEX
  5
1fe
  8
Layer_1
  10
70.52198
  20
134.96637
  0
VERTEX
  5
1ff
  8
Layer_1
  10
69.374519
  20
134.96809
  42
-0.13239527
  0
VERTEX
  5
200
  8
Layer_1
  10
69.702637
  20
133.50203
  42
-0.0050532867
  0
VERTEX
  5
201
  8
Layer_1
  10
69.728882
  20
130.16702
  0
VERTEX
  5
202
  8
Layer_1
  10
69.74588
  20
129.94214
  42
0.31570217
  0
VERTEX
  5
203
  8
Layer_1
  10
70.872429
  20
128.53273
  42
0.17782605
  0
VERTEX
  5
204
  8
Layer_1
  10
73.991074
  20
128.6882
  42
0.22098062
  0
VERTEX
  5
205
  8
Layer_1
  10
75.062134
  20
129.99861
  0
VERTEX
  5
206
  8
Layer_1
  10
75.147591
  20
130.32686
  0
VERTEX
  5
207
  8
Layer_1
  10
74.073593
  20
130.47495
  0
VERTEX
  5
208
  8
Layer_1
  10
73.972527
  20
130.15649
  42
-0.21317433
  0
VERTEX
  5
209
  8
Layer_1
  10
73.31562
  20
129.39601
  42
-0.16976301
  0
VERTEX
  5
20a
  8
Layer_1
  10
71.503357
  20
129.3914
  42
-0.33237755
  0
VERTEX
  5
20b
  8
Layer_1
  10
70.825188
  20
130.40366
  42
-0.025743996
  0
VERTEX
  5
20c
  8
Layer_1
  10
70.82708
  20
130.85214
  42
-0.050905271
  0
VERTEX
  5
20d
  8
Layer_1
  10
73.092842
  20
131.2672
  0
VERTEX
  5
20e
  8
Layer_1
  10
73.357552
  20
131.30757
  42
0.16964462
  0
VERTEX
  5
20f
  8
Layer_1
  10
74.872307
  20
132.02625
  42
0.37655964
  0
VERTEX
  5
210
  8
Layer_1
  10
74.903778
  20
134.44954
  42
0.20268657
  0
VERTEX
  5
211
  8
Layer_1
  10
73.387665
  20
135.10049
  42
0.036623659
  0
VERTEX
  5
212
  8
Layer_1
  10
72.81002
  20
135.09599
  0
SEQEND
  0
POLYLINE
  5
214
  8
Layer_1
  62
0
  66
1
  10
0
  20
0
  30
0
  0
VERTEX
  5
214
  8
Layer_1
  10
82.069206
  20
133.89313
  0
VERTEX
  5
215
  8
Layer_1
  10
82.06459
  20
130.81696
  42
-0.011528193
  0
VERTEX
  5
216
  8
Layer_1
  10
79.59317
  20
130.82994
  42
-0.10216799
  0
VERTEX
  5
217
  8
Layer_1
  10
78.471695
  20
131.06039
  42
-0.28968902
  0
VERTEX
  5
218
  8
Layer_1
  10
77.721199
  20
132.36157
  42
-0.4012665
  0
VERTEX
  5
219
  8
Layer_1
  10
79.035698
  20
133.85495
  42
-0.039208646
  0
VERTEX
  5
21a
  8
Layer_1
  10
79.841431
  20
133.89647
  0
VERTEX
  5
21b
  8
Layer_1
  10
82.069206
  20
133.89313
  0
SEQEND
  0
POLYLINE
  5
21d
  8
Layer_1
  62
0
  66
1
  10
0
  20
0
  30
0
  0
VERTEX
  5
21d
  8
Layer_1
  10
73.165894
  20
134.22998
  0
VERTEX
  5
21e
  8
Layer_1
  10
73.428261
  20
134.17465
  42
-0.20325146
  0
VERTEX
  5
21f
  8
Layer_1
  10
74.040642
  20
133.71057
  42
-0.20325202
  0
VERTEX
  5
220
  8
Layer_1
  10
74.130768
  20
132.94753
  42
-0.26547395
  0
VERTEX
  5
221
  8
Layer_1
  10
73.416634
  20
132.28404
  42
-0.015840722
  0
VERTEX
  5
222
  8
Layer_1
  10
71.810234
  20
131.98787
  0
VERTEX
  5
223
  8
Layer_1
  10
71.576271
  20
131.93744
  42
0.039026833
  0
VERTEX
  5
224
  8
Layer_1
  10
70.828377
  20
131.71274
  42
-0.071903122
  0
VERTEX
  5
225
  8
Layer_1
  10
70.929924
  20
133.0058
  42
-0.23314878
  0
VERTEX
  5
226
  8
Layer_1
  10
71.991127
  20
134.09381
  42
-0.12216478
  0
VERTEX
  5
227
  8
Layer_1
  10
73.165894
  20
134.22998
  0
SEQEND
  0
POLYLINE
  5
229
  8
Layer_1
  62
0
  66
1
  10
0
  20
0
  30
0
  0
VERTEX
  5
229
  8
Layer_1
  10
76.14045
  20
148.66768
  0
VERTEX
  5
22a
  8
Layer_1
  10
76.520378
  20
148.37291
  42
-0.056458737
  0
VERTEX
  5
22b
  8
Layer_1
  10
77.536095
  20
147.29228
  0
VERTEX
  5
22c
  8
Layer_1
  10
77.29818
  20
146.88834
  42
0.057246427
  0
VERTEX
  5
22d
  8
Layer_1
  10
76.739746
  20
145.36476
  0
VERTEX
  5
22e
  8
Layer_1
  10
77.88073
  20
145.11891
  0
VERTEX
  5
22f
  8
Layer_1
  10
77.965233
  20
145.46205
  42
-0.051706215
  0
VERTEX
  5
230
  8
Layer_1
  10
78.309845
  20
146.36339
  0
VERTEX
  5
231
  8
Layer_1
  10
79.912003
  20
144.3163
  0
VERTEX
  5
232
  8
Layer_1
  10
79.515411
  20
144.08521
  42
0.12313872
  0
VERTEX
  5
233
  8
Layer_1
  10
78.457207
  20
143.04382
  42
0.37636578
  0
VERTEX
  5
234
  8
Layer_1
  10
78.949722
  20
140.65833
  42
0.37771077
  0
VERTEX
  5
235
  8
Layer_1
  10
82.035645
  20
140.97083
  42
0.3463011
  0
VERTEX
  5
236
  8
Layer_1
  10
82.195374
  20
143.2887
  42
0.038942891
  0
VERTEX
  5
237
  8
Layer_1
  10
81.517029
  20
144.18571
  0
VERTEX
  5
238
  8
Layer_1
  10
81.774551
  20
144.31448
  42
0.14436262
  0
VERTEX
  5
239
  8
Layer_1
  10
83.349144
  20
145.70226
  42
0.32101434
  0
VERTEX
  5
23a
  8
Layer_1
  10
83.000633
  20
148.54752
  42
0.22652604
  0
VERTEX
  5
23b
  8
Layer_1
  10
80.823074
  20
149.47852
  42
0.19606765
  0
VERTEX
  5
23c
  8
Layer_1
  10
78.529694
  20
148.55666
  0
VERTEX
  5
23d
  8
Layer_1
  10
78.251678
  20
148.27388
  0
VERTEX
  5
23e
  8
Layer_1
  10
77.900948
  20
148.66698
  42
0.061086745
  0
VERTEX
  5
23f
  8
Layer_1
  10
76.880287
  20
149.53937
  0
VERTEX
  5
240
  8
Layer_1
  10
76.14045
  20
148.66768
  0
SEQEND
  0
POLYLINE
  5
242
  8
Layer_1
  62
0
  66
1
  10
0
  20
0
  30
0
  0
VERTEX
  5
242
  8
Layer_1
  10
80.965996
  20
143.03908
  0
VERTEX
  5
243
  8
Layer_1
  10
81.152634
  20
142.78929
  42
-0.2669166
  0
VERTEX
  5
244
  8
Layer_1
  10
81.317307
  20
141.73387
  42
-0.35264375
  0
VERTEX
  5
245
  8
Layer_1
  10
80.145035
  20
141.14798
  42
-0.3732443
  0
VERTEX
  5
246
  8
Layer_1
  10
79.341148
  20
142.16872
  42
-0.25965829
  0
VERTEX
  5
247
  8
Layer_1
  10
80.013268
  20
143.30687
  42
-0.022865098
  0
VERTEX
  5
248
  8
Layer_1
  10
80.478561
  20
143.60744
  0
VERTEX
  5
249
  8
Layer_1
  10
80.965996
  20
143.03908
  0
SEQEND
  0
POLYLINE
  5
24b
  8
Layer_1
  62
0
  66
1
  10
0
  20
0
  30
0
  0
VERTEX
  5
24b
  8
Layer_1
  10
81.002022
  20
148.49875
  42
-0.22155503
  0
VERTEX
  5
24c
  8
Layer_1
  10
82.035332
  20
147.9203
  42
-0.16163203
  0
VERTEX
  5
24d
  8
Layer_1
  10
82.466988
  20
146.7905
  42
-0.22159776
  0
VERTEX
  5
24e
  8
Layer_1
  10
81.69735
  20
145.41763
  42
-0.036989383
  0
VERTEX
  5
24f
  8
Layer_1
  10
80.950485
  20
144.90678
  0
VERTEX
  5
250
  8
Layer_1
  10
78.940079
  20
147.40614
  42
-0.23771072
  0
VERTEX
  5
251
  8
Layer_1
  10
80.80941
  20
148.50807
  0
VERTEX
  5
252
  8
Layer_1
  10
81.002022
  20
148.49875
  0
SEQEND
  0
POLYLINE
  5
254
  8
Layer_1
  62
0
  66
1
  10
0
  20
0
  30
0
  0
VERTEX
  5
254
  8
Layer_1
  10
79.47551
  20
163.6937
  42
0.12094248
  0
VERTEX
  5
255
  8
Layer_1
  10
77.670158
  20
163.25108
  42
0.25982044
  0
VERTEX
  5
256
  8
Layer_1
  10
76.537552
  20
161.11337
  42
0.35142146
  0
VERTEX
  5
257
  8
Layer_1
  10
78.218872
  20
158.94411
  0
VERTEX
  5
258
  8
Layer_1
  10
77.924179
  20
158.77682
  42
0.37874268
  0
VERTEX
  5
259
  8
Layer_1
  10
77.160965
  20
156.15199
  42
0.23065334
  0
VERTEX
  5
25a
  8
Layer_1
  10
78.618088
  20
154.90932
  42
0.065510516
  0
VERTEX
  5
25b
  8
Layer_1
  10
79.927666
  20
154.75452
  0
VERTEX
  5
25c
  8
Layer_1
  10
83.284599
  20
154.74948
  0
VERTEX
  5
25d
  8
Layer_1
  10
83.298027
  20
163.69724
  0
VERTEX
  5
25e
  8
Layer_1
  10
79.886169
  20
163.70235
  0
VERTEX
  5
25f
  8
Layer_1
  10
79.47551
  20
163.6937
  0
SEQEND
  0
POLYLINE
  5
261
  8
Layer_1
  62
0
  66
1
  10
0
  20
0
  30
0
  0
VERTEX
  5
261
  8
Layer_1
  10
82.106163
  20
158.51102
  0
VERTEX
  5
262
  8
Layer_1
  10
82.102104
  20
155.80717
  42
-0.012635005
  0
VERTEX
  5
263
  8
Layer_1
  10
79.867012
  20
155.81833
  42
-0.10286331
  0
VERTEX
  5
264
  8
Layer_1
  10
78.765984
  20
156.01311
  42
-0.28223873
  0
VERTEX
  5
265
  8
Layer_1
  10
78.130783
  20
157.18642
  42
-0.36539431
  0
VERTEX
  5
266
  8
Layer_1
  10
79.042046
  20
158.41187
  42
-0.065864871
  0
VERTEX
  5
267
  8
Layer_1
  10
80.171349
  20
158.51393
  0
VERTEX
  5
268
  8
Layer_1
  10
82.106163
  20
158.51102
  0
SEQEND
  0
POLYLINE
  5
26a
  8
Layer_1
  62
0
  66
1
  10
0
  20
0
  30
0
  0
VERTEX
  5
26a
  8
Layer_1
  10
72.016754
  20
163.8521
  42
0.34495187
  0
VERTEX
  5
26b
  8
Layer_1
  10
69.439163
  20
161.77101
  0
VERTEX
  5
26c
  8
Layer_1
  10
70.574203
  20
161.62892
  0
VERTEX
  5
26d
  8
Layer_1
  10
70.710922
  20
161.95294
  42
-0.33845252
  0
VERTEX
  5
26e
  8
Layer_1
  10
72.483902
  20
162.94783
  42
-0.32417123
  0
VERTEX
  5
26f
  8
Layer_1
  10
74.128677
  20
161.48151
  42
-0.051969724
  0
VERTEX
  5
270
  8
Layer_1
  10
74.241104
  20
160.75061
  0
VERTEX
  5
271
  8
Layer_1
  10
69.407127
  20
160.75787
  42
0.1146586
  0
VERTEX
  5
272
  8
Layer_1
  10
69.719772
  20
158.73933
  42
0.30661229
  0
VERTEX
  5
273
  8
Layer_1
  10
72.343513
  20
157.08525
  42
0.36818231
  0
VERTEX
  5
274
  8
Layer_1
  10
75.255928
  20
159.39948
  42
0.15355405
  0
VERTEX
  5
275
  8
Layer_1
  10
75.053131
  20
162.22424
  42
0.28219283
  0
VERTEX
  5
276
  8
Layer_1
  10
72.639061
  20
163.84604
  42
0.035230168
  0
VERTEX
  5
277
  8
Layer_1
  10
72.016754
  20
163.8521
  0
SEQEND
  0
POLYLINE
  5
279
  8
Layer_1
  62
0
  66
1
  10
0
  20
0
  30
0
  0
VERTEX
  5
279
  8
Layer_1
  10
65.85318
  20
163.85648
  42
0.14674021
  0
VERTEX
  5
27a
  8
Layer_1
  10
64.086273
  20
163.16675
  0
VERTEX
  5
27b
  8
Layer_1
  10
63.783669
  20
162.92696
  0
VERTEX
  5
27c
  8
Layer_1
  10
63.752018
  20
163.14868
  42
0.071406839
  0
VERTEX
  5
27d
  8
Layer_1
  10
63.56514
  20
163.72685
  0
VERTEX
  5
27e
  8
Layer_1
  10
62.417679
  20
163.72858
  42
-0.13243066
  0
VERTEX
  5
27f
  8
Layer_1
  10
62.745804
  20
162.2625
  42
-0.0048874501
  0
VERTEX
  5
280
  8
Layer_1
  10
62.772049
  20
158.92773
  0
VERTEX
  5
281
  8
Layer_1
  10
62.78904
  20
158.70262
  42
0.31559327
  0
VERTEX
  5
282
  8
Layer_1
  10
63.915592
  20
157.29321
  42
0.17781415
  0
VERTEX
  5
283
  8
Layer_1
  10
67.034241
  20
157.44868
  42
0.2208549
  0
VERTEX
  5
284
  8
Layer_1
  10
68.105301
  20
158.75909
  0
VERTEX
  5
285
  8
Layer_1
  10
68.19075
  20
159.08733
  0
VERTEX
  5
286
  8
Layer_1
  10
67.116753
  20
159.23543
  0
VERTEX
  5
287
  8
Layer_1
  10
67.015686
  20
158.91698
  42
-0.21310277
  0
VERTEX
  5
288
  8
Layer_1
  10
66.35878
  20
158.15649
  42
-0.16976699
  0
VERTEX
  5
289
  8
Layer_1
  10
64.546516
  20
158.15189
  42
-0.33238391
  0
VERTEX
  5
28a
  8
Layer_1
  10
63.868351
  20
159.16414
  42
-0.025753406
  0
VERTEX
  5
28b
  8
Layer_1
  10
63.870247
  20
159.61261
  42
-0.051049903
  0
VERTEX
  5
28c
  8
Layer_1
  10
66.136009
  20
160.02768
  0
VERTEX
  5
28d
  8
Layer_1
  10
66.400711
  20
160.06805
  42
0.16964689
  0
VERTEX
  5
28e
  8
Layer_1
  10
67.915466
  20
160.78673
  42
0.3765502
  0
VERTEX
  5
28f
  8
Layer_1
  10
67.946938
  20
163.21002
  42
0.20270312
  0
VERTEX
  5
290
  8
Layer_1
  10
66.430824
  20
163.86098
  42
0.036620059
  0
VERTEX
  5
291
  8
Layer_1
  10
65.85318
  20
163.85648
  0
SEQEND
  0
POLYLINE
  5
293
  8
Layer_1
  62
0
  66
1
  10
0
  20
0
  30
0
  0
VERTEX
  5
293
  8
Layer_1
  10
59.910927
  20
160.36929
  0
VERTEX
  5
294
  8
Layer_1
  10
59.899315
  20
159.9528
  42
-0.1132872
  0
VERTEX
  5
295
  8
Layer_1
  10
59.629509
  20
158.79379
  42
-0.38486557
  0
VERTEX
  5
296
  8
Layer_1
  10
57.67305
  20
158.20248
  42
-0.16833944
  0
VERTEX
  5
297
  8
Layer_1
  10
57.306755
  20
158.63223
  42
-0.097749615
  0
VERTEX
  5
298
  8
Layer_1
  10
57.156967
  20
159.52504
  0
VERTEX
  5
299
  8
Layer_1
  10
57.163292
  20
163.73647
  0
VERTEX
  5
29a
  8
Layer_1
  10
56.064659
  20
163.73811
  0
VERTEX
  5
29b
  8
Layer_1
  10
56.059006
  20
159.97224
  42
-0.12909479
  0
VERTEX
  5
29c
  8
Layer_1
  10
55.803062
  20
158.77853
  42
-0.36034593
  0
VERTEX
  5
29d
  8
Layer_1
  10
53.95668
  20
158.16461
  42
-0.29964141
  0
VERTEX
  5
29e
  8
Layer_1
  10
53.343815
  20
159.09204
  42
-0.027606643
  0
VERTEX
  5
29f
  8
Layer_1
  10
53.318054
  20
159.65897
  0
VERTEX
  5
2a0
  8
Layer_1
  10
53.324181
  20
163.74222
  0
VERTEX
  5
2a1
  8
Layer_1
  10
52.231655
  20
163.74387
  0
VERTEX
  5
2a2
  8
Layer_1
  10
52.224976
  20
159.2944
  42
0.12968976
  0
VERTEX
  5
2a3
  8
Layer_1
  10
52.514709
  20
157.95216
  42
0.23417573
  0
VERTEX
  5
2a4
  8
Layer_1
  10
53.769363
  20
157.14658
  42
0.31264184
  0
VERTEX
  5
2a5
  8
Layer_1
  10
56.22731
  20
158.24469
  0
VERTEX
  5
2a6
  8
Layer_1
  10
56.338505
  20
157.99086
  42
0.25538726
  0
VERTEX
  5
2a7
  8
Layer_1
  10
57.712696
  20
157.12601
  42
0.29572097
  0
VERTEX
  5
2a8
  8
Layer_1
  10
60.023575
  20
158.15965
  0
VERTEX
  5
2a9
  8
Layer_1
  10
60.022209
  20
157.25023
  0
VERTEX
  5
2aa
  8
Layer_1
  10
61.004875
  20
157.24875
  0
VERTEX
  5
2ab
  8
Layer_1
  10
61.014603
  20
163.73068
  0
VERTEX
  5
2ac
  8
Layer_1
  10
59.915974
  20
163.73233
  0
VERTEX
  5
2ad
  8
Layer_1
  10
59.910927
  20
160.36929
  0
SEQEND
  0
POLYLINE
  5
2af
  8
Layer_1
  62
0
  66
1
  10
0
  20
0
  30
0
  0
VERTEX
  5
2af
  8
Layer_1
  10
74.178719
  20
159.84738
  0
VERTEX
  5
2b0
  8
Layer_1
  10
74.15741
  20
159.64063
  42
-0.20205665
  0
VERTEX
  5
2b1
  8
Layer_1
  10
73.489723
  20
158.39128
  42
-0.20205477
  0
VERTEX
  5
2b2
  8
Layer_1
  10
72.128571
  20
157.9989
  42
-0.34883912
  0
VERTEX
  5
2b3
  8
Layer_1
  10
70.612228
  20
159.46944
  0
VERTEX
  5
2b4
  8
Layer_1
  10
70.559334
  20
159.85281
  0
VERTEX
  5
2b5
  8
Layer_1
  10
74.178719
  20
159.84738
  0
SEQEND
  0
POLYLINE
  5
2b7
  8
Layer_1
  62
0
  66
1
  10
0
  20
0
  30
0
  0
VERTEX
  5
2b7
  8
Layer_1
  10
82.112366
  20
162.6431
  0
VERTEX
  5
2b8
  8
Layer_1
  10
82.10775
  20
159.56693
  42
-0.011528692
  0
VERTEX
  5
2b9
  8
Layer_1
  10
79.63633
  20
159.57993
  42
-0.10210789
  0
VERTEX
  5
2ba
  8
Layer_1
  10
78.514847
  20
159.81036
  42
-0.28965216
  0
VERTEX
  5
2bb
  8
Layer_1
  10
77.764359
  20
161.11154
  42
-0.401274
  0
VERTEX
  5
2bc
  8
Layer_1
  10
79.078857
  20
162.60493
  42
-0.039209477
  0
VERTEX
  5
2bd
  8
Layer_1
  10
79.884583
  20
162.64644
  0
VERTEX
  5
2be
  8
Layer_1
  10
82.112366
  20
162.6431
  0
SEQEND
  0
POLYLINE
  5
2c0
  8
Layer_1
  62
0
  70
1
  66
1
  10
0
  20
0
  30
0
  0
VERTEX
  5
2c0
  8
Layer_1
  10
66.209061
  20
162.99046
  42
-0.15503727
  0
VERTEX
  5
2c1
  8
Layer_1
  10
66.880768
  20
162.71478
  42
-0.3727245
  0
VERTEX
  5
2c2
  8
Layer_1
  10
67.059059
  20
161.46037
  42
-0.2110444
  0
VERTEX
  5
2c3
  8
Layer_1
  10
66.245117
  20
160.98845
  42
-0.0093049838
  0
VERTEX
  5
2c4
  8
Layer_1
  10
65.105667
  20
160.79631
  0
VERTEX
  5
2c5
  8
Layer_1
  10
64.853394
  20
160.74835
  42
0.046169197
  0
VERTEX
  5
2c6
  8
Layer_1
  10
63.871536
  20
160.47321
  42
-0.071912596
  0
VERTEX
  5
2c7
  8
Layer_1
  10
63.973087
  20
161.76628
  42
-0.23316877
  0
VERTEX
  5
2c8
  8
Layer_1
  10
65.034286
  20
162.85428
  42
-0.12216833
  0
SEQEND
  0
ENDSEC
  0
EOF
